<svg viewBox="0 0 330 200" xmlns="http://www.w3.org/2000/svg"><g><g><g><g><g><line x1="61.90000057220459" y1="177.95999908447266" x2="56.90000057220459" y2="177.95999908447266" style="visibility: inherit;" fill="rgb(0, 0, 0)" stroke="rgb(204, 204, 204)" stroke-width="1px"></line><line x1="61.90000057220459" y1="158.1866658528646" x2="56.90000057220459" y2="158.1866658528646" style="visibility: inherit;" fill="rgb(0, 0, 0)" stroke="rgb(204, 204, 204)" stroke-width="1px"></line><line x1="61.90000057220459" y1="138.4133326212565" x2="56.90000057220459" y2="138.4133326212565" style="visibility: inherit;" fill="rgb(0, 0, 0)" stroke="rgb(204, 204, 204)" stroke-width="1px"></line><line x1="61.90000057220459" y1="118.63999938964844" x2="56.90000057220459" y2="118.63999938964844" style="visibility: inherit;" fill="rgb(0, 0, 0)" stroke="rgb(204, 204, 204)" stroke-width="1px"></line><line x1="61.90000057220459" y1="98.86666615804036" x2="56.90000057220459" y2="98.86666615804036" style="visibility: inherit;" fill="rgb(0, 0, 0)" stroke="rgb(204, 204, 204)" stroke-width="1px"></line><line x1="61.90000057220459" y1="79.09333292643228" x2="56.90000057220459" y2="79.09333292643228" style="visibility: inherit;" fill="rgb(0, 0, 0)" stroke="rgb(204, 204, 204)" stroke-width="1px"></line><line x1="61.90000057220459" y1="59.31999969482422" x2="56.90000057220459" y2="59.31999969482422" style="visibility: inherit;" fill="rgb(0, 0, 0)" stroke="rgb(204, 204, 204)" stroke-width="1px"></line><line x1="61.90000057220459" y1="39.546666463216155" x2="56.90000057220459" y2="39.546666463216155" style="visibility: inherit;" fill="rgb(0, 0, 0)" stroke="rgb(204, 204, 204)" stroke-width="1px"></line><line x1="61.90000057220459" y1="19.773333231608092" x2="56.90000057220459" y2="19.773333231608092" style="visibility: inherit;" fill="rgb(0, 0, 0)" stroke="rgb(204, 204, 204)" stroke-width="1px"></line><line x1="61.90000057220459" y1="0" x2="56.90000057220459" y2="0" style="visibility: inherit;" fill="rgb(0, 0, 0)" stroke="rgb(204, 204, 204)" stroke-width="1px"></line></g><g transform="translate(51.90000057220459, 0)"><text style="text-anchor: end; visibility: hidden; font-family: &quot;Helvetica Neue&quot;, sans-serif; font-size: 12px; font-weight: 200;" x="0" y="177.95999908447266" dx="0em" dy="0.3em" fill="rgb(50, 49, 63)" stroke="none" stroke-width="1px">-0.05</text><text style="text-anchor: end; visibility: inherit; font-family: &quot;Helvetica Neue&quot;, sans-serif; font-size: 12px; font-weight: 200;" x="0" y="158.1866658528646" dx="0em" dy="0.3em" fill="rgb(50, 49, 63)" stroke="none" stroke-width="1px">0</text><text style="text-anchor: end; visibility: hidden; font-family: &quot;Helvetica Neue&quot;, sans-serif; font-size: 12px; font-weight: 200;" x="0" y="138.4133326212565" dx="0em" dy="0.3em" fill="rgb(50, 49, 63)" stroke="none" stroke-width="1px">0.05</text><text style="text-anchor: end; visibility: inherit; font-family: &quot;Helvetica Neue&quot;, sans-serif; font-size: 12px; font-weight: 200;" x="0" y="118.63999938964844" dx="0em" dy="0.3em" fill="rgb(50, 49, 63)" stroke="none" stroke-width="1px">0.1</text><text style="text-anchor: end; visibility: hidden; font-family: &quot;Helvetica Neue&quot;, sans-serif; font-size: 12px; font-weight: 200;" x="0" y="98.86666615804036" dx="0em" dy="0.3em" fill="rgb(50, 49, 63)" stroke="none" stroke-width="1px">0.15</text><text style="text-anchor: end; visibility: inherit; font-family: &quot;Helvetica Neue&quot;, sans-serif; font-size: 12px; font-weight: 200;" x="0" y="79.09333292643228" dx="0em" dy="0.3em" fill="rgb(50, 49, 63)" stroke="none" stroke-width="1px">0.2</text><text style="text-anchor: end; visibility: hidden; font-family: &quot;Helvetica Neue&quot;, sans-serif; font-size: 12px; font-weight: 200;" x="0" y="59.31999969482422" dx="0em" dy="0.3em" fill="rgb(50, 49, 63)" stroke="none" stroke-width="1px">0.25</text><text style="text-anchor: end; visibility: inherit; font-family: &quot;Helvetica Neue&quot;, sans-serif; font-size: 12px; font-weight: 200;" x="0" y="39.546666463216155" dx="0em" dy="0.3em" fill="rgb(50, 49, 63)" stroke="none" stroke-width="1px">0.3</text><text style="text-anchor: end; visibility: hidden; font-family: &quot;Helvetica Neue&quot;, sans-serif; font-size: 12px; font-weight: 200;" x="0" y="19.773333231608092" dx="0em" dy="0.3em" fill="rgb(50, 49, 63)" stroke="none" stroke-width="1px">0.35</text><text style="text-anchor: end; visibility: hidden; font-family: &quot;Helvetica Neue&quot;, sans-serif; font-size: 12px; font-weight: 200;" x="0" y="0" dx="0em" dy="0.3em" fill="rgb(50, 49, 63)" stroke="none" stroke-width="1px">0.4</text></g><line x1="61.90000057220459" y1="0" x2="61.90000057220459" y2="177.95999908447266" fill="rgb(0, 0, 0)" stroke="rgb(204, 204, 204)" stroke-width="1px"></line></g></g><g transform="translate(61, 0)" clip-path="url(#clip_0)"><clipPath id="clip_0"><rect width="268" height="177"></rect></clipPath><g><g><g><line x1="0" y1="0" x2="0" y2="177.95999908447266" fill="rgb(0, 0, 0)" stroke="rgb(60, 60, 60)" stroke-width="1px" opacity="0.25"></line><line x1="22.34166661898295" y1="0" x2="22.34166661898295" y2="177.95999908447266" fill="rgb(0, 0, 0)" stroke="rgb(60, 60, 60)" stroke-width="1px" opacity="0.25"></line><line x1="44.6833332379659" y1="0" x2="44.6833332379659" y2="177.95999908447266" fill="rgb(0, 0, 0)" stroke="rgb(60, 60, 60)" stroke-width="1px" opacity="0.25"></line><line x1="67.02499985694885" y1="0" x2="67.02499985694885" y2="177.95999908447266" fill="rgb(0, 0, 0)" stroke="rgb(60, 60, 60)" stroke-width="1px" opacity="0.25"></line><line x1="89.3666664759318" y1="0" x2="89.3666664759318" y2="177.95999908447266" fill="rgb(0, 0, 0)" stroke="rgb(60, 60, 60)" stroke-width="1px" opacity="0.25"></line><line x1="111.70833309491476" y1="0" x2="111.70833309491476" y2="177.95999908447266" fill="rgb(0, 0, 0)" stroke="rgb(60, 60, 60)" stroke-width="1px" opacity="0.25"></line><line x1="134.0499997138977" y1="0" x2="134.0499997138977" y2="177.95999908447266" fill="rgb(0, 0, 0)" stroke="rgb(60, 60, 60)" stroke-width="1px" opacity="0.25"></line><line x1="156.39166633288067" y1="0" x2="156.39166633288067" y2="177.95999908447266" fill="rgb(0, 0, 0)" stroke="rgb(60, 60, 60)" stroke-width="1px" opacity="0.25"></line><line x1="178.7333329518636" y1="0" x2="178.7333329518636" y2="177.95999908447266" fill="rgb(0, 0, 0)" stroke="rgb(60, 60, 60)" stroke-width="1px" opacity="0.25"></line><line x1="201.07499957084656" y1="0" x2="201.07499957084656" y2="177.95999908447266" fill="rgb(0, 0, 0)" stroke="rgb(60, 60, 60)" stroke-width="1px" opacity="0.25"></line><line x1="223.41666618982953" y1="0" x2="223.41666618982953" y2="177.95999908447266" fill="rgb(0, 0, 0)" stroke="rgb(60, 60, 60)" stroke-width="1px" opacity="0.25"></line><line x1="245.75833280881244" y1="0" x2="245.75833280881244" y2="177.95999908447266" fill="rgb(0, 0, 0)" stroke="rgb(60, 60, 60)" stroke-width="1px" opacity="0.25"></line><line x1="268.0999994277954" y1="0" x2="268.0999994277954" y2="177.95999908447266" fill="rgb(0, 0, 0)" stroke="rgb(60, 60, 60)" stroke-width="1px" opacity="0.25"></line></g><g><line x1="0" y1="177.95999908447266" x2="268.0999994277954" y2="177.95999908447266" fill="rgb(0, 0, 0)" stroke="rgb(60, 60, 60)" stroke-width="1px" opacity="0.25"></line><line x1="0" y1="158.1866658528646" x2="268.0999994277954" y2="158.1866658528646" fill="rgb(0, 0, 0)" stroke="rgb(60, 60, 60)" stroke-width="1px" opacity="0.25"></line><line x1="0" y1="138.4133326212565" x2="268.0999994277954" y2="138.4133326212565" fill="rgb(0, 0, 0)" stroke="rgb(60, 60, 60)" stroke-width="1px" opacity="0.25"></line><line x1="0" y1="118.63999938964844" x2="268.0999994277954" y2="118.63999938964844" fill="rgb(0, 0, 0)" stroke="rgb(60, 60, 60)" stroke-width="1px" opacity="0.25"></line><line x1="0" y1="98.86666615804036" x2="268.0999994277954" y2="98.86666615804036" fill="rgb(0, 0, 0)" stroke="rgb(60, 60, 60)" stroke-width="1px" opacity="0.25"></line><line x1="0" y1="79.09333292643228" x2="268.0999994277954" y2="79.09333292643228" fill="rgb(0, 0, 0)" stroke="rgb(60, 60, 60)" stroke-width="1px" opacity="0.25"></line><line x1="0" y1="59.31999969482422" x2="268.0999994277954" y2="59.31999969482422" fill="rgb(0, 0, 0)" stroke="rgb(60, 60, 60)" stroke-width="1px" opacity="0.25"></line><line x1="0" y1="39.546666463216155" x2="268.0999994277954" y2="39.546666463216155" fill="rgb(0, 0, 0)" stroke="rgb(60, 60, 60)" stroke-width="1px" opacity="0.25"></line><line x1="0" y1="19.773333231608092" x2="268.0999994277954" y2="19.773333231608092" fill="rgb(0, 0, 0)" stroke="rgb(60, 60, 60)" stroke-width="1px" opacity="0.25"></line><line x1="0" y1="0" x2="268.0999994277954" y2="0" fill="rgb(0, 0, 0)" stroke="rgb(60, 60, 60)" stroke-width="1px" opacity="0.25"></line></g></g></g><g><g><line x1="0" y1="158.1866658528646" x2="268.0999994277954" y2="158.1866658528646" fill="rgb(0, 0, 0)" stroke="rgb(153, 153, 153)" stroke-width="1.5px"></line></g></g><g><g><line x1="22.34166661898295" y1="0" x2="22.34166661898295" y2="177.95999908447266" fill="rgb(0, 0, 0)" stroke="rgb(153, 153, 153)" stroke-width="1.5px"></line></g></g><g><g><g><g><g><path style="fill: none;" stroke="rgb(0, 119, 187)" stroke-width="2px" d="M26.224648277362185,158.03753871531111L29.41056993722916,157.98255193567155L32.6233015970389,157.4674146548916L35.84496992349625,157.30907950901627L39.07557491660118,157.03845163605115L42.31064824302991,156.84757776762888L46.09532656828562,156.12823618562658L49.27677989482879,155.34510460199567L52.50738488793373,152.54694663138287L55.742458214362465,151.13455769240676L58.964126540819805,148.66414473526055L62.185794867277146,145.72402847300842L65.42086819370587,146.48190175262994L68.6559415201346,142.24683496672222L71.88654651323954,136.50499728999233L75.11268317302068,135.9690916805587L78.33881983280182,134.48718722455868L81.56942482590676,124.2740847890675L84.7866248190403,123.49355435245755L88.01276147882143,118.33250743366054L91.23442980527878,116.47592079428475L94.45162979841233,113.32219882597697L97.66436145822207,106.55292979675318L100.88156145135562,95.32140303100257L104.09429311116536,94.23003101265788L107.3159614376227,90.26976108887395L110.53316143075625,79.07827110123478L113.73695642391841,71.73349770525941L116.94521975040435,62.59456005940446L120.14901474356651,56.533642215037005L123.36174640337626,51.76410671226752L126.56554139653842,48.10158608408105L129.75593138972917,44.70526214309365L132.95972638289135,43.38513978942598L136.1590530427297,42.646027185710636L139.36731636921564,42.08262236051078L142.57111136237782,41.743650746091646L145.76596968889234,41.58285703627999L148.9652963487307,41.38983604622007L152.17802800854048,41.58383507834975L155.39075966835023,41.30485306759894L158.5990229948362,41.476622191263175L161.79834965467455,41.40298114780373L165.0021446478367,41.5047003213449L168.19253464102744,41.383923688481104L171.4007979675134,41.28667447589001L174.61352962732315,41.49849377274472L177.80838795383772,41.39661034210715L181.0077146136761,41.35047185316816L184.21597794016205,41.31457639692215L187.41530460000035,41.336184671455584L190.60569459319115,41.40020583021848L193.8005529197057,41.41868162385029L197.00434791286787,41.51847193355749L200.19473790605863,41.50518914623714L203.39853289922078,41.43023827301761L206.59339122573533,41.3422589163757L209.7837812189261,41.376747693924585L212.98757621208827,41.27428851751955L216.19583953857423,41.27136970477028L219.3951661984126,41.350940609848095L222.59449285825096,41.448490049484036L225.79828785141308,41.426678101180954L228.99761451125144,41.44234834527953L232.1969411710898,41.45989685400144L235.39626783092817,41.3703925906849L238.60006282409032,41.39121416154333L241.8038578172525,41.34553698602576L245.00765281041464,41.17980752379847L245.75833280881244,41.13564065153662" fill="none"></path></g></g></g></g><g opacity="0.2"><g><g><g><path style="fill: none;" stroke="rgb(0, 119, 187)" stroke-width="2px" d="M26.224648277362185,158.03753871531111L29.41056993722916,157.94955986788784L32.6233015970389,156.9728828653428L35.84496992349625,157.1228773774669L39.07557491660118,156.68511988510792L42.31064824302991,156.58353049300825L46.09532656828562,155.09956621389802L49.27677989482879,154.20329123499857L52.50738488793373,148.42020713893322L55.742458214362465,149.03732472348375L58.964126540819805,144.98093176324014L62.185794867277146,141.32985406249387L65.42086819370587,147.61623708431026L68.6559415201346,135.90253172457483L71.88654651323954,127.89899008954619L75.11268317302068,135.16561122856433L78.33881983280182,132.26495763286007L81.56942482590676,108.95702424143269L84.7866248190403,122.32287760349861L88.01276147882143,110.59140879559634L91.23442980527878,113.69114265484473L94.45162979841233,108.59171964808003L97.66436145822207,96.399159900326L100.88156145135562,78.47424593051878L104.09429311116536,92.59298074214607L107.3159614376227,84.32937309194024L110.53316143075625,62.2910647557316L113.73695642391841,60.71634888725356L116.94521975040435,48.88616200887526L120.14901474356651,47.44226879826297L123.36174640337626,44.60980503974315L126.56554139653842,42.607805870520366L129.75593138972917,39.61077663706541L132.95972638289135,41.404956353482106L136.1590530427297,41.537358311902324L139.36731636921564,41.237515137238915L142.57111136237782,41.23519332970744L145.76596968889234,41.34166647305514L148.9652963487307,41.10030456220525L152.17802800854048,41.87483362589592L155.39075966835023,40.88638005203211L158.5990229948362,41.734275876552914L161.79834965467455,41.29251958266772L165.0021446478367,41.657279081612614L168.19253464102744,41.20275873921673L171.4007979675134,41.1408006570185L174.61352962732315,41.816222718007054L177.80838795383772,41.243785196156466L181.0077146136761,41.28126411976123L184.21597794016205,41.260733212553845L187.41530460000035,41.36859708325545L190.60569459319115,41.496237568362346L193.8005529197057,41.44639531429797L197.00434791286787,41.66815739811804L200.19473790605863,41.48526496525665L203.39853289922078,41.31781196318843L206.59339122573533,41.21028988141279L209.7837812189261,41.42848086024787L212.98757621208827,41.12059975291203L216.19583953857423,41.266991485646344L219.3951661984126,41.470296967464805L222.59449285825096,41.59481420893795L225.79828785141308,41.39396017872636L228.99761451125144,41.46585371142737L232.1969411710898,41.486219617084316L235.39626783092817,41.23613619571006L238.60006282409032,41.42244651783099L241.8038578172525,41.27702122274937L245.00765281041464,40.93121333045747L245.75833280881244,41.06939034314382" fill="none"></path></g></g></g></g></g></g><g transform="translate(61, 177)" clip-path="url(#clip_1)"><clipPath id="clip_1"><rect width="268" height="22"></rect></clipPath><g><g><line x1="0" y1="0" x2="0" y2="5" style="visibility: inherit;" fill="rgb(0, 0, 0)" stroke="rgb(204, 204, 204)" stroke-width="1px"></line><line x1="22.34166661898295" y1="0" x2="22.34166661898295" y2="5" style="visibility: inherit;" fill="rgb(0, 0, 0)" stroke="rgb(204, 204, 204)" stroke-width="1px"></line><line x1="44.6833332379659" y1="0" x2="44.6833332379659" y2="5" style="visibility: inherit;" fill="rgb(0, 0, 0)" stroke="rgb(204, 204, 204)" stroke-width="1px"></line><line x1="67.02499985694885" y1="0" x2="67.02499985694885" y2="5" style="visibility: inherit;" fill="rgb(0, 0, 0)" stroke="rgb(204, 204, 204)" stroke-width="1px"></line><line x1="89.3666664759318" y1="0" x2="89.3666664759318" y2="5" style="visibility: inherit;" fill="rgb(0, 0, 0)" stroke="rgb(204, 204, 204)" stroke-width="1px"></line><line x1="111.70833309491476" y1="0" x2="111.70833309491476" y2="5" style="visibility: inherit;" fill="rgb(0, 0, 0)" stroke="rgb(204, 204, 204)" stroke-width="1px"></line><line x1="134.0499997138977" y1="0" x2="134.0499997138977" y2="5" style="visibility: inherit;" fill="rgb(0, 0, 0)" stroke="rgb(204, 204, 204)" stroke-width="1px"></line><line x1="156.39166633288067" y1="0" x2="156.39166633288067" y2="5" style="visibility: inherit;" fill="rgb(0, 0, 0)" stroke="rgb(204, 204, 204)" stroke-width="1px"></line><line x1="178.7333329518636" y1="0" x2="178.7333329518636" y2="5" style="visibility: inherit;" fill="rgb(0, 0, 0)" stroke="rgb(204, 204, 204)" stroke-width="1px"></line><line x1="201.07499957084656" y1="0" x2="201.07499957084656" y2="5" style="visibility: inherit;" fill="rgb(0, 0, 0)" stroke="rgb(204, 204, 204)" stroke-width="1px"></line><line x1="223.41666618982953" y1="0" x2="223.41666618982953" y2="5" style="visibility: inherit;" fill="rgb(0, 0, 0)" stroke="rgb(204, 204, 204)" stroke-width="1px"></line><line x1="245.75833280881244" y1="0" x2="245.75833280881244" y2="5" style="visibility: inherit;" fill="rgb(0, 0, 0)" stroke="rgb(204, 204, 204)" stroke-width="1px"></line><line x1="268.0999994277954" y1="0" x2="268.0999994277954" y2="5" style="visibility: inherit;" fill="rgb(0, 0, 0)" stroke="rgb(204, 204, 204)" stroke-width="1px"></line></g><g transform="translate(0, 8)"><text style="text-anchor: middle; visibility: hidden; font-family: &quot;Helvetica Neue&quot;, sans-serif; font-size: 12px; font-weight: 200;" x="0" y="0" dx="0em" dy="0.95em" fill="rgb(50, 49, 63)" stroke="none" stroke-width="1px">-5k</text><text style="text-anchor: middle; visibility: inherit; font-family: &quot;Helvetica Neue&quot;, sans-serif; font-size: 12px; font-weight: 200;" x="22.34166661898295" y="0" dx="0em" dy="0.95em" fill="rgb(50, 49, 63)" stroke="none" stroke-width="1px">0</text><text style="text-anchor: middle; visibility: hidden; font-family: &quot;Helvetica Neue&quot;, sans-serif; font-size: 12px; font-weight: 200;" x="44.6833332379659" y="0" dx="0em" dy="0.95em" fill="rgb(50, 49, 63)" stroke="none" stroke-width="1px">5k</text><text style="text-anchor: middle; visibility: inherit; font-family: &quot;Helvetica Neue&quot;, sans-serif; font-size: 12px; font-weight: 200;" x="67.02499985694885" y="0" dx="0em" dy="0.95em" fill="rgb(50, 49, 63)" stroke="none" stroke-width="1px">10k</text><text style="text-anchor: middle; visibility: hidden; font-family: &quot;Helvetica Neue&quot;, sans-serif; font-size: 12px; font-weight: 200;" x="89.3666664759318" y="0" dx="0em" dy="0.95em" fill="rgb(50, 49, 63)" stroke="none" stroke-width="1px">15k</text><text style="text-anchor: middle; visibility: inherit; font-family: &quot;Helvetica Neue&quot;, sans-serif; font-size: 12px; font-weight: 200;" x="111.70833309491476" y="0" dx="0em" dy="0.95em" fill="rgb(50, 49, 63)" stroke="none" stroke-width="1px">20k</text><text style="text-anchor: middle; visibility: hidden; font-family: &quot;Helvetica Neue&quot;, sans-serif; font-size: 12px; font-weight: 200;" x="134.0499997138977" y="0" dx="0em" dy="0.95em" fill="rgb(50, 49, 63)" stroke="none" stroke-width="1px">25k</text><text style="text-anchor: middle; visibility: inherit; font-family: &quot;Helvetica Neue&quot;, sans-serif; font-size: 12px; font-weight: 200;" x="156.39166633288067" y="0" dx="0em" dy="0.95em" fill="rgb(50, 49, 63)" stroke="none" stroke-width="1px">30k</text><text style="text-anchor: middle; visibility: hidden; font-family: &quot;Helvetica Neue&quot;, sans-serif; font-size: 12px; font-weight: 200;" x="178.7333329518636" y="0" dx="0em" dy="0.95em" fill="rgb(50, 49, 63)" stroke="none" stroke-width="1px">35k</text><text style="text-anchor: middle; visibility: inherit; font-family: &quot;Helvetica Neue&quot;, sans-serif; font-size: 12px; font-weight: 200;" x="201.07499957084656" y="0" dx="0em" dy="0.95em" fill="rgb(50, 49, 63)" stroke="none" stroke-width="1px">40k</text><text style="text-anchor: middle; visibility: hidden; font-family: &quot;Helvetica Neue&quot;, sans-serif; font-size: 12px; font-weight: 200;" x="223.41666618982953" y="0" dx="0em" dy="0.95em" fill="rgb(50, 49, 63)" stroke="none" stroke-width="1px">45k</text><text style="text-anchor: middle; visibility: inherit; font-family: &quot;Helvetica Neue&quot;, sans-serif; font-size: 12px; font-weight: 200;" x="245.75833280881244" y="0" dx="0em" dy="0.95em" fill="rgb(50, 49, 63)" stroke="none" stroke-width="1px">50k</text><text style="text-anchor: middle; visibility: hidden; font-family: &quot;Helvetica Neue&quot;, sans-serif; font-size: 12px; font-weight: 200;" x="268.0999994277954" y="0" dx="0em" dy="0.95em" fill="rgb(50, 49, 63)" stroke="none" stroke-width="1px">55k</text></g><line x1="0" y1="0" x2="268.0999994277954" y2="0" fill="rgb(0, 0, 0)" stroke="rgb(204, 204, 204)" stroke-width="1px"></line></g></g></g></g></svg>