<svg viewBox="0 0 330 200" xmlns="http://www.w3.org/2000/svg"><g><g><g><g><g><line x1="51.52000045776367" y1="177.95999908447266" x2="46.52000045776367" y2="177.95999908447266" style="visibility: inherit;" fill="rgb(0, 0, 0)" stroke="rgb(204, 204, 204)" stroke-width="1px"></line><line x1="51.52000045776367" y1="155.71499919891357" x2="46.52000045776367" y2="155.71499919891357" style="visibility: inherit;" fill="rgb(0, 0, 0)" stroke="rgb(204, 204, 204)" stroke-width="1px"></line><line x1="51.52000045776367" y1="133.4699993133545" x2="46.52000045776367" y2="133.4699993133545" style="visibility: inherit;" fill="rgb(0, 0, 0)" stroke="rgb(204, 204, 204)" stroke-width="1px"></line><line x1="51.52000045776367" y1="111.2249994277954" x2="46.52000045776367" y2="111.2249994277954" style="visibility: inherit;" fill="rgb(0, 0, 0)" stroke="rgb(204, 204, 204)" stroke-width="1px"></line><line x1="51.52000045776367" y1="88.97999954223631" x2="46.52000045776367" y2="88.97999954223631" style="visibility: inherit;" fill="rgb(0, 0, 0)" stroke="rgb(204, 204, 204)" stroke-width="1px"></line><line x1="51.52000045776367" y1="66.73499965667725" x2="46.52000045776367" y2="66.73499965667725" style="visibility: inherit;" fill="rgb(0, 0, 0)" stroke="rgb(204, 204, 204)" stroke-width="1px"></line><line x1="51.52000045776367" y1="44.489999771118164" x2="46.52000045776367" y2="44.489999771118164" style="visibility: inherit;" fill="rgb(0, 0, 0)" stroke="rgb(204, 204, 204)" stroke-width="1px"></line><line x1="51.52000045776367" y1="22.244999885559082" x2="46.52000045776367" y2="22.244999885559082" style="visibility: inherit;" fill="rgb(0, 0, 0)" stroke="rgb(204, 204, 204)" stroke-width="1px"></line><line x1="51.52000045776367" y1="0" x2="46.52000045776367" y2="0" style="visibility: inherit;" fill="rgb(0, 0, 0)" stroke="rgb(204, 204, 204)" stroke-width="1px"></line></g><g transform="translate(41.52000045776367, 0)"><text style="text-anchor: end; visibility: hidden; font-family: &quot;Helvetica Neue&quot;, sans-serif; font-size: 12px; font-weight: 200;" x="0" y="177.95999908447266" dx="0em" dy="0.3em" fill="rgb(50, 49, 63)" stroke="none" stroke-width="1px">-0.1</text><text style="text-anchor: end; visibility: inherit; font-family: &quot;Helvetica Neue&quot;, sans-serif; font-size: 12px; font-weight: 200;" x="0" y="155.71499919891357" dx="0em" dy="0.3em" fill="rgb(50, 49, 63)" stroke="none" stroke-width="1px">0</text><text style="text-anchor: end; visibility: hidden; font-family: &quot;Helvetica Neue&quot;, sans-serif; font-size: 12px; font-weight: 200;" x="0" y="133.4699993133545" dx="0em" dy="0.3em" fill="rgb(50, 49, 63)" stroke="none" stroke-width="1px">0.1</text><text style="text-anchor: end; visibility: inherit; font-family: &quot;Helvetica Neue&quot;, sans-serif; font-size: 12px; font-weight: 200;" x="0" y="111.2249994277954" dx="0em" dy="0.3em" fill="rgb(50, 49, 63)" stroke="none" stroke-width="1px">0.2</text><text style="text-anchor: end; visibility: hidden; font-family: &quot;Helvetica Neue&quot;, sans-serif; font-size: 12px; font-weight: 200;" x="0" y="88.97999954223631" dx="0em" dy="0.3em" fill="rgb(50, 49, 63)" stroke="none" stroke-width="1px">0.3</text><text style="text-anchor: end; visibility: inherit; font-family: &quot;Helvetica Neue&quot;, sans-serif; font-size: 12px; font-weight: 200;" x="0" y="66.73499965667725" dx="0em" dy="0.3em" fill="rgb(50, 49, 63)" stroke="none" stroke-width="1px">0.4</text><text style="text-anchor: end; visibility: hidden; font-family: &quot;Helvetica Neue&quot;, sans-serif; font-size: 12px; font-weight: 200;" x="0" y="44.489999771118164" dx="0em" dy="0.3em" fill="rgb(50, 49, 63)" stroke="none" stroke-width="1px">0.5</text><text style="text-anchor: end; visibility: inherit; font-family: &quot;Helvetica Neue&quot;, sans-serif; font-size: 12px; font-weight: 200;" x="0" y="22.244999885559082" dx="0em" dy="0.3em" fill="rgb(50, 49, 63)" stroke="none" stroke-width="1px">0.6</text><text style="text-anchor: end; visibility: hidden; font-family: &quot;Helvetica Neue&quot;, sans-serif; font-size: 12px; font-weight: 200;" x="0" y="0" dx="0em" dy="0.3em" fill="rgb(50, 49, 63)" stroke="none" stroke-width="1px">0.7</text></g><line x1="51.52000045776367" y1="0" x2="51.52000045776367" y2="177.95999908447266" fill="rgb(0, 0, 0)" stroke="rgb(204, 204, 204)" stroke-width="1px"></line></g></g><g transform="translate(51, 0)" clip-path="url(#clip_0)"><clipPath id="clip_0"><rect width="278" height="177"></rect></clipPath><g><g><g><line x1="0" y1="0" x2="0" y2="177.95999908447266" fill="rgb(0, 0, 0)" stroke="rgb(60, 60, 60)" stroke-width="1px" opacity="0.25"></line><line x1="23.20666662851969" y1="0" x2="23.20666662851969" y2="177.95999908447266" fill="rgb(0, 0, 0)" stroke="rgb(60, 60, 60)" stroke-width="1px" opacity="0.25"></line><line x1="46.41333325703938" y1="0" x2="46.41333325703938" y2="177.95999908447266" fill="rgb(0, 0, 0)" stroke="rgb(60, 60, 60)" stroke-width="1px" opacity="0.25"></line><line x1="69.61999988555908" y1="0" x2="69.61999988555908" y2="177.95999908447266" fill="rgb(0, 0, 0)" stroke="rgb(60, 60, 60)" stroke-width="1px" opacity="0.25"></line><line x1="92.82666651407877" y1="0" x2="92.82666651407877" y2="177.95999908447266" fill="rgb(0, 0, 0)" stroke="rgb(60, 60, 60)" stroke-width="1px" opacity="0.25"></line><line x1="116.03333314259848" y1="0" x2="116.03333314259848" y2="177.95999908447266" fill="rgb(0, 0, 0)" stroke="rgb(60, 60, 60)" stroke-width="1px" opacity="0.25"></line><line x1="139.23999977111816" y1="0" x2="139.23999977111816" y2="177.95999908447266" fill="rgb(0, 0, 0)" stroke="rgb(60, 60, 60)" stroke-width="1px" opacity="0.25"></line><line x1="162.44666639963788" y1="0" x2="162.44666639963788" y2="177.95999908447266" fill="rgb(0, 0, 0)" stroke="rgb(60, 60, 60)" stroke-width="1px" opacity="0.25"></line><line x1="185.65333302815753" y1="0" x2="185.65333302815753" y2="177.95999908447266" fill="rgb(0, 0, 0)" stroke="rgb(60, 60, 60)" stroke-width="1px" opacity="0.25"></line><line x1="208.85999965667725" y1="0" x2="208.85999965667725" y2="177.95999908447266" fill="rgb(0, 0, 0)" stroke="rgb(60, 60, 60)" stroke-width="1px" opacity="0.25"></line><line x1="232.06666628519696" y1="0" x2="232.06666628519696" y2="177.95999908447266" fill="rgb(0, 0, 0)" stroke="rgb(60, 60, 60)" stroke-width="1px" opacity="0.25"></line><line x1="255.27333291371662" y1="0" x2="255.27333291371662" y2="177.95999908447266" fill="rgb(0, 0, 0)" stroke="rgb(60, 60, 60)" stroke-width="1px" opacity="0.25"></line><line x1="278.4799995422363" y1="0" x2="278.4799995422363" y2="177.95999908447266" fill="rgb(0, 0, 0)" stroke="rgb(60, 60, 60)" stroke-width="1px" opacity="0.25"></line></g><g><line x1="0" y1="177.95999908447266" x2="278.4799995422363" y2="177.95999908447266" fill="rgb(0, 0, 0)" stroke="rgb(60, 60, 60)" stroke-width="1px" opacity="0.25"></line><line x1="0" y1="155.71499919891357" x2="278.4799995422363" y2="155.71499919891357" fill="rgb(0, 0, 0)" stroke="rgb(60, 60, 60)" stroke-width="1px" opacity="0.25"></line><line x1="0" y1="133.4699993133545" x2="278.4799995422363" y2="133.4699993133545" fill="rgb(0, 0, 0)" stroke="rgb(60, 60, 60)" stroke-width="1px" opacity="0.25"></line><line x1="0" y1="111.2249994277954" x2="278.4799995422363" y2="111.2249994277954" fill="rgb(0, 0, 0)" stroke="rgb(60, 60, 60)" stroke-width="1px" opacity="0.25"></line><line x1="0" y1="88.97999954223631" x2="278.4799995422363" y2="88.97999954223631" fill="rgb(0, 0, 0)" stroke="rgb(60, 60, 60)" stroke-width="1px" opacity="0.25"></line><line x1="0" y1="66.73499965667725" x2="278.4799995422363" y2="66.73499965667725" fill="rgb(0, 0, 0)" stroke="rgb(60, 60, 60)" stroke-width="1px" opacity="0.25"></line><line x1="0" y1="44.489999771118164" x2="278.4799995422363" y2="44.489999771118164" fill="rgb(0, 0, 0)" stroke="rgb(60, 60, 60)" stroke-width="1px" opacity="0.25"></line><line x1="0" y1="22.244999885559082" x2="278.4799995422363" y2="22.244999885559082" fill="rgb(0, 0, 0)" stroke="rgb(60, 60, 60)" stroke-width="1px" opacity="0.25"></line><line x1="0" y1="0" x2="278.4799995422363" y2="0" fill="rgb(0, 0, 0)" stroke="rgb(60, 60, 60)" stroke-width="1px" opacity="0.25"></line></g></g></g><g><g><line x1="0" y1="155.71499919891357" x2="278.4799995422363" y2="155.71499919891357" fill="rgb(0, 0, 0)" stroke="rgb(153, 153, 153)" stroke-width="1.5px"></line></g></g><g><g><line x1="23.20666662851969" y1="0" x2="23.20666662851969" y2="177.95999908447266" fill="rgb(0, 0, 0)" stroke="rgb(153, 153, 153)" stroke-width="1.5px"></line></g></g><g><g><g><g><g><path style="fill: none;" stroke="rgb(0, 119, 187)" stroke-width="2px" d="M27.239985288556415,155.576831422677L30.549255949783326,155.5102366142679L33.88637461096446,155.11807840713658L37.232775938797,154.93746040582437L40.588459933280944,154.67594379480605L43.94878526109059,154.6093535967944L47.87999458796183,153.93718255069473L51.184623915863035,153.17630326965627L54.54030791034698,150.51190269907374L57.90063323815664,148.9954639289319L61.24703456598918,146.61519031973546L64.59343589382172,143.82645882704918L67.95376122163137,144.01359826656474L71.31408654944101,140.0540269816134L74.66977054392497,134.45146683159516L78.02081320508321,133.45842651388125L81.37185586624146,132.47951555257367L84.72753986072541,121.81596767007778L88.06929985523223,121.22864126420382L91.42034251639048,116.78765797634776L94.76674384422302,114.2971133010652L98.10850383872986,111.21281996044166L101.445622499911,104.75763489501097L104.78738249441783,94.66371073812226L108.12450115559895,92.68054244068642L111.4709024834315,87.71330674904938L114.81266247793833,78.3824505836856L118.14049847246807,72.55928941719286L121.47297580032348,64.20549677173926L124.8008117948532,58.639954565354614L128.13793045603435,54.514065765721156L131.46576645056408,51.53417697644683L134.77967844511667,48.28151353009551L138.1075144396464,46.4667436906218L141.43070910085044,45.428457153465445L144.76318642870586,44.74853495686577L148.0910224232356,44.34533368807698L151.4095757511139,44.156141531211375L154.7327704123179,43.818314879267206L158.06988907349904,43.88924331724323L161.40700773468018,43.72440227024069L164.7394850625356,43.86644115630088L168.06267972373962,43.729570043743166L171.39051571826937,43.8494729174887L174.70442771282194,43.821080734624246L178.03690504067737,43.74922189188953L181.3740237018585,43.900940417043586L184.69257702973684,43.82869424786972L188.01577169094085,43.77860564373873L191.3482490187963,43.79078521739274L194.6714436800003,43.779084782971864L197.98535567455292,43.72817705635276L201.30390900243123,43.70692436483742L204.63174499696095,43.810910757588516L207.94565699151357,43.87226838709245L211.2734929860433,43.79561729145496L214.5920463139216,43.70859251634653L217.90595830847423,43.75517881182395L221.23379430300395,43.71800211997831L224.56627163085938,43.71929721949945L227.8894662920634,43.8679604545606L231.21266095326743,43.806323406825584L234.54049694779712,43.81753518461804L237.86369160900114,43.78735965453285L241.18688627020518,43.753120720594154L244.5100809314092,43.74321642448814L247.83791692593894,43.75895505055519L251.16575292046866,43.6867436732021L254.49358891499838,43.57642150297292L255.27333291371662,43.51605688060542" fill="none"></path></g></g></g></g><g opacity="0.2"><g><g><g><path style="fill: none;" stroke="rgb(0, 119, 187)" stroke-width="2px" d="M27.239985288556415,155.576831422677L30.549255949783326,155.47027972922245L33.88637461096446,154.7416065282905L37.232775938797,154.7250536362812L40.588459933280944,154.33450770746055L43.94878526109059,154.51723538047295L47.87999458796183,152.97596720003546L51.184623915863035,152.0669339734611L54.54030791034698,146.58242939063138L57.90063323815664,146.7437290871113L61.24703456598918,143.06636881238802L64.59343589382172,139.6585377416526L67.95376122163137,144.29369638309868L71.31408654944101,134.12242726653443L74.66977054392497,126.05421220571208L78.02081320508321,131.96956640628008L81.37185586624146,131.01156335292407L84.72753986072541,105.82335331998613L88.06929985523223,120.34774112865938L91.42034251639048,110.12658896802697L94.76674384422302,110.56143287553033L98.10850383872986,106.58648143949256L101.445622499911,95.07498474323347L104.78738249441783,79.52294407494384L108.12450115559895,89.70580409004418L111.4709024834315,80.26247439458507L114.81266247793833,64.38619021074351L118.14049847246807,63.824556607377815L121.47297580032348,51.674815498582575L124.8008117948532,50.291644331768225L128.13793045603435,48.325233934460584L131.46576645056408,47.06434438543346L134.77967844511667,43.402518748871216L138.1075144396464,43.74458906139955L141.43070910085044,43.871027392353085L144.76318642870586,43.72865167949874L148.0910224232356,43.74053179113196L151.4095757511139,43.87235329766929L154.7327704123179,43.311574903232554L158.06988907349904,43.99563597397025L161.40700773468018,43.477140700067366L164.7394850625356,44.07949948522037L168.06267972373962,43.524263375005376L171.39051571826937,44.02932722805508L174.70442771282194,43.778492460334974L178.03690504067737,43.64143362779862L181.3740237018585,44.12851820476055L184.69257702973684,43.72032499411296L188.01577169094085,43.70347273754396L191.3482490187963,43.80905457787355L194.6714436800003,43.76153413134068L197.98535567455292,43.65181546642452L201.30390900243123,43.675045327564476L204.63174499696095,43.96689034671488L207.94565699151357,43.96430483134827L211.2734929860433,43.68064064799887L214.5920463139216,43.57805535368391L217.90595830847423,43.825058255040176L221.23379430300395,43.66223708220991L224.56627163085938,43.72123986878114L227.8894662920634,44.0909553071524L231.21266095326743,43.71386783522303L234.54049694779712,43.83435285130679L237.86369160900114,43.74209635940508L241.18688627020518,43.701762319686054L244.5100809314092,43.728359980329174L247.83791692593894,43.78256298965573L251.16575292046866,43.578426607172446L254.49358891499838,43.41093824762913L255.27333291371662,43.42550994705425" fill="none"></path></g></g></g></g></g></g><g transform="translate(51, 177)" clip-path="url(#clip_1)"><clipPath id="clip_1"><rect width="278" height="22"></rect></clipPath><g><g><line x1="0" y1="0" x2="0" y2="5" style="visibility: inherit;" fill="rgb(0, 0, 0)" stroke="rgb(204, 204, 204)" stroke-width="1px"></line><line x1="23.20666662851969" y1="0" x2="23.20666662851969" y2="5" style="visibility: inherit;" fill="rgb(0, 0, 0)" stroke="rgb(204, 204, 204)" stroke-width="1px"></line><line x1="46.41333325703938" y1="0" x2="46.41333325703938" y2="5" style="visibility: inherit;" fill="rgb(0, 0, 0)" stroke="rgb(204, 204, 204)" stroke-width="1px"></line><line x1="69.61999988555908" y1="0" x2="69.61999988555908" y2="5" style="visibility: inherit;" fill="rgb(0, 0, 0)" stroke="rgb(204, 204, 204)" stroke-width="1px"></line><line x1="92.82666651407877" y1="0" x2="92.82666651407877" y2="5" style="visibility: inherit;" fill="rgb(0, 0, 0)" stroke="rgb(204, 204, 204)" stroke-width="1px"></line><line x1="116.03333314259848" y1="0" x2="116.03333314259848" y2="5" style="visibility: inherit;" fill="rgb(0, 0, 0)" stroke="rgb(204, 204, 204)" stroke-width="1px"></line><line x1="139.23999977111816" y1="0" x2="139.23999977111816" y2="5" style="visibility: inherit;" fill="rgb(0, 0, 0)" stroke="rgb(204, 204, 204)" stroke-width="1px"></line><line x1="162.44666639963788" y1="0" x2="162.44666639963788" y2="5" style="visibility: inherit;" fill="rgb(0, 0, 0)" stroke="rgb(204, 204, 204)" stroke-width="1px"></line><line x1="185.65333302815753" y1="0" x2="185.65333302815753" y2="5" style="visibility: inherit;" fill="rgb(0, 0, 0)" stroke="rgb(204, 204, 204)" stroke-width="1px"></line><line x1="208.85999965667725" y1="0" x2="208.85999965667725" y2="5" style="visibility: inherit;" fill="rgb(0, 0, 0)" stroke="rgb(204, 204, 204)" stroke-width="1px"></line><line x1="232.06666628519696" y1="0" x2="232.06666628519696" y2="5" style="visibility: inherit;" fill="rgb(0, 0, 0)" stroke="rgb(204, 204, 204)" stroke-width="1px"></line><line x1="255.27333291371662" y1="0" x2="255.27333291371662" y2="5" style="visibility: inherit;" fill="rgb(0, 0, 0)" stroke="rgb(204, 204, 204)" stroke-width="1px"></line><line x1="278.4799995422363" y1="0" x2="278.4799995422363" y2="5" style="visibility: inherit;" fill="rgb(0, 0, 0)" stroke="rgb(204, 204, 204)" stroke-width="1px"></line></g><g transform="translate(0, 8)"><text style="text-anchor: middle; visibility: hidden; font-family: &quot;Helvetica Neue&quot;, sans-serif; font-size: 12px; font-weight: 200;" x="0" y="0" dx="0em" dy="0.95em" fill="rgb(50, 49, 63)" stroke="none" stroke-width="1px">-5k</text><text style="text-anchor: middle; visibility: inherit; font-family: &quot;Helvetica Neue&quot;, sans-serif; font-size: 12px; font-weight: 200;" x="23.20666662851969" y="0" dx="0em" dy="0.95em" fill="rgb(50, 49, 63)" stroke="none" stroke-width="1px">0</text><text style="text-anchor: middle; visibility: hidden; font-family: &quot;Helvetica Neue&quot;, sans-serif; font-size: 12px; font-weight: 200;" x="46.41333325703938" y="0" dx="0em" dy="0.95em" fill="rgb(50, 49, 63)" stroke="none" stroke-width="1px">5k</text><text style="text-anchor: middle; visibility: inherit; font-family: &quot;Helvetica Neue&quot;, sans-serif; font-size: 12px; font-weight: 200;" x="69.61999988555908" y="0" dx="0em" dy="0.95em" fill="rgb(50, 49, 63)" stroke="none" stroke-width="1px">10k</text><text style="text-anchor: middle; visibility: hidden; font-family: &quot;Helvetica Neue&quot;, sans-serif; font-size: 12px; font-weight: 200;" x="92.82666651407877" y="0" dx="0em" dy="0.95em" fill="rgb(50, 49, 63)" stroke="none" stroke-width="1px">15k</text><text style="text-anchor: middle; visibility: inherit; font-family: &quot;Helvetica Neue&quot;, sans-serif; font-size: 12px; font-weight: 200;" x="116.03333314259848" y="0" dx="0em" dy="0.95em" fill="rgb(50, 49, 63)" stroke="none" stroke-width="1px">20k</text><text style="text-anchor: middle; visibility: hidden; font-family: &quot;Helvetica Neue&quot;, sans-serif; font-size: 12px; font-weight: 200;" x="139.23999977111816" y="0" dx="0em" dy="0.95em" fill="rgb(50, 49, 63)" stroke="none" stroke-width="1px">25k</text><text style="text-anchor: middle; visibility: inherit; font-family: &quot;Helvetica Neue&quot;, sans-serif; font-size: 12px; font-weight: 200;" x="162.44666639963788" y="0" dx="0em" dy="0.95em" fill="rgb(50, 49, 63)" stroke="none" stroke-width="1px">30k</text><text style="text-anchor: middle; visibility: hidden; font-family: &quot;Helvetica Neue&quot;, sans-serif; font-size: 12px; font-weight: 200;" x="185.65333302815753" y="0" dx="0em" dy="0.95em" fill="rgb(50, 49, 63)" stroke="none" stroke-width="1px">35k</text><text style="text-anchor: middle; visibility: inherit; font-family: &quot;Helvetica Neue&quot;, sans-serif; font-size: 12px; font-weight: 200;" x="208.85999965667725" y="0" dx="0em" dy="0.95em" fill="rgb(50, 49, 63)" stroke="none" stroke-width="1px">40k</text><text style="text-anchor: middle; visibility: hidden; font-family: &quot;Helvetica Neue&quot;, sans-serif; font-size: 12px; font-weight: 200;" x="232.06666628519696" y="0" dx="0em" dy="0.95em" fill="rgb(50, 49, 63)" stroke="none" stroke-width="1px">45k</text><text style="text-anchor: middle; visibility: inherit; font-family: &quot;Helvetica Neue&quot;, sans-serif; font-size: 12px; font-weight: 200;" x="255.27333291371662" y="0" dx="0em" dy="0.95em" fill="rgb(50, 49, 63)" stroke="none" stroke-width="1px">50k</text><text style="text-anchor: middle; visibility: hidden; font-family: &quot;Helvetica Neue&quot;, sans-serif; font-size: 12px; font-weight: 200;" x="278.4799995422363" y="0" dx="0em" dy="0.95em" fill="rgb(50, 49, 63)" stroke="none" stroke-width="1px">55k</text></g><line x1="0" y1="0" x2="278.4799995422363" y2="0" fill="rgb(0, 0, 0)" stroke="rgb(204, 204, 204)" stroke-width="1px"></line></g></g></g></g></svg>