<svg viewBox="0 0 330 200" xmlns="http://www.w3.org/2000/svg"><g><g><g><g><g><line x1="51.52000045776367" y1="177.95999908447266" x2="46.52000045776367" y2="177.95999908447266" style="visibility: inherit;" fill="rgb(0, 0, 0)" stroke="rgb(204, 204, 204)" stroke-width="1px"></line><line x1="51.52000045776367" y1="158.18666585286456" x2="46.52000045776367" y2="158.18666585286456" style="visibility: inherit;" fill="rgb(0, 0, 0)" stroke="rgb(204, 204, 204)" stroke-width="1px"></line><line x1="51.52000045776367" y1="138.41333262125647" x2="46.52000045776367" y2="138.41333262125647" style="visibility: inherit;" fill="rgb(0, 0, 0)" stroke="rgb(204, 204, 204)" stroke-width="1px"></line><line x1="51.52000045776367" y1="118.63999938964847" x2="46.52000045776367" y2="118.63999938964847" style="visibility: inherit;" fill="rgb(0, 0, 0)" stroke="rgb(204, 204, 204)" stroke-width="1px"></line><line x1="51.52000045776367" y1="98.86666615804037" x2="46.52000045776367" y2="98.86666615804037" style="visibility: inherit;" fill="rgb(0, 0, 0)" stroke="rgb(204, 204, 204)" stroke-width="1px"></line><line x1="51.52000045776367" y1="79.09333292643228" x2="46.52000045776367" y2="79.09333292643228" style="visibility: inherit;" fill="rgb(0, 0, 0)" stroke="rgb(204, 204, 204)" stroke-width="1px"></line><line x1="51.52000045776367" y1="59.31999969482419" x2="46.52000045776367" y2="59.31999969482419" style="visibility: inherit;" fill="rgb(0, 0, 0)" stroke="rgb(204, 204, 204)" stroke-width="1px"></line><line x1="51.52000045776367" y1="39.5466664632161" x2="46.52000045776367" y2="39.5466664632161" style="visibility: inherit;" fill="rgb(0, 0, 0)" stroke="rgb(204, 204, 204)" stroke-width="1px"></line><line x1="51.52000045776367" y1="19.773333231608092" x2="46.52000045776367" y2="19.773333231608092" style="visibility: inherit;" fill="rgb(0, 0, 0)" stroke="rgb(204, 204, 204)" stroke-width="1px"></line><line x1="51.52000045776367" y1="0" x2="46.52000045776367" y2="0" style="visibility: inherit;" fill="rgb(0, 0, 0)" stroke="rgb(204, 204, 204)" stroke-width="1px"></line></g><g transform="translate(41.52000045776367, 0)"><text style="text-anchor: end; visibility: hidden; font-family: &quot;Helvetica Neue&quot;, sans-serif; font-size: 12px; font-weight: 200;" x="0" y="177.95999908447266" dx="0em" dy="0.3em" fill="rgb(50, 49, 63)" stroke="none" stroke-width="1px">1.5</text><text style="text-anchor: end; visibility: inherit; font-family: &quot;Helvetica Neue&quot;, sans-serif; font-size: 12px; font-weight: 200;" x="0" y="158.18666585286456" dx="0em" dy="0.3em" fill="rgb(50, 49, 63)" stroke="none" stroke-width="1px">1.55</text><text style="text-anchor: end; visibility: hidden; font-family: &quot;Helvetica Neue&quot;, sans-serif; font-size: 12px; font-weight: 200;" x="0" y="138.41333262125647" dx="0em" dy="0.3em" fill="rgb(50, 49, 63)" stroke="none" stroke-width="1px">1.6</text><text style="text-anchor: end; visibility: inherit; font-family: &quot;Helvetica Neue&quot;, sans-serif; font-size: 12px; font-weight: 200;" x="0" y="118.63999938964847" dx="0em" dy="0.3em" fill="rgb(50, 49, 63)" stroke="none" stroke-width="1px">1.65</text><text style="text-anchor: end; visibility: hidden; font-family: &quot;Helvetica Neue&quot;, sans-serif; font-size: 12px; font-weight: 200;" x="0" y="98.86666615804037" dx="0em" dy="0.3em" fill="rgb(50, 49, 63)" stroke="none" stroke-width="1px">1.7</text><text style="text-anchor: end; visibility: inherit; font-family: &quot;Helvetica Neue&quot;, sans-serif; font-size: 12px; font-weight: 200;" x="0" y="79.09333292643228" dx="0em" dy="0.3em" fill="rgb(50, 49, 63)" stroke="none" stroke-width="1px">1.75</text><text style="text-anchor: end; visibility: hidden; font-family: &quot;Helvetica Neue&quot;, sans-serif; font-size: 12px; font-weight: 200;" x="0" y="59.31999969482419" dx="0em" dy="0.3em" fill="rgb(50, 49, 63)" stroke="none" stroke-width="1px">1.8</text><text style="text-anchor: end; visibility: inherit; font-family: &quot;Helvetica Neue&quot;, sans-serif; font-size: 12px; font-weight: 200;" x="0" y="39.5466664632161" dx="0em" dy="0.3em" fill="rgb(50, 49, 63)" stroke="none" stroke-width="1px">1.85</text><text style="text-anchor: end; visibility: hidden; font-family: &quot;Helvetica Neue&quot;, sans-serif; font-size: 12px; font-weight: 200;" x="0" y="19.773333231608092" dx="0em" dy="0.3em" fill="rgb(50, 49, 63)" stroke="none" stroke-width="1px">1.9</text><text style="text-anchor: end; visibility: hidden; font-family: &quot;Helvetica Neue&quot;, sans-serif; font-size: 12px; font-weight: 200;" x="0" y="0" dx="0em" dy="0.3em" fill="rgb(50, 49, 63)" stroke="none" stroke-width="1px">1.95</text></g><line x1="51.52000045776367" y1="0" x2="51.52000045776367" y2="177.95999908447266" fill="rgb(0, 0, 0)" stroke="rgb(204, 204, 204)" stroke-width="1px"></line></g></g><g transform="translate(51, 0)" clip-path="url(#clip_0)"><clipPath id="clip_0"><rect width="278" height="177"></rect></clipPath><g><g><g><line x1="0" y1="0" x2="0" y2="177.95999908447266" fill="rgb(0, 0, 0)" stroke="rgb(60, 60, 60)" stroke-width="1px" opacity="0.25"></line><line x1="21.421538426325874" y1="0" x2="21.421538426325874" y2="177.95999908447266" fill="rgb(0, 0, 0)" stroke="rgb(60, 60, 60)" stroke-width="1px" opacity="0.25"></line><line x1="42.84307685265175" y1="0" x2="42.84307685265175" y2="177.95999908447266" fill="rgb(0, 0, 0)" stroke="rgb(60, 60, 60)" stroke-width="1px" opacity="0.25"></line><line x1="64.26461527897762" y1="0" x2="64.26461527897762" y2="177.95999908447266" fill="rgb(0, 0, 0)" stroke="rgb(60, 60, 60)" stroke-width="1px" opacity="0.25"></line><line x1="85.6861537053035" y1="0" x2="85.6861537053035" y2="177.95999908447266" fill="rgb(0, 0, 0)" stroke="rgb(60, 60, 60)" stroke-width="1px" opacity="0.25"></line><line x1="107.10769213162936" y1="0" x2="107.10769213162936" y2="177.95999908447266" fill="rgb(0, 0, 0)" stroke="rgb(60, 60, 60)" stroke-width="1px" opacity="0.25"></line><line x1="128.52923055795523" y1="0" x2="128.52923055795523" y2="177.95999908447266" fill="rgb(0, 0, 0)" stroke="rgb(60, 60, 60)" stroke-width="1px" opacity="0.25"></line><line x1="149.9507689842811" y1="0" x2="149.9507689842811" y2="177.95999908447266" fill="rgb(0, 0, 0)" stroke="rgb(60, 60, 60)" stroke-width="1px" opacity="0.25"></line><line x1="171.372307410607" y1="0" x2="171.372307410607" y2="177.95999908447266" fill="rgb(0, 0, 0)" stroke="rgb(60, 60, 60)" stroke-width="1px" opacity="0.25"></line><line x1="192.79384583693283" y1="0" x2="192.79384583693283" y2="177.95999908447266" fill="rgb(0, 0, 0)" stroke="rgb(60, 60, 60)" stroke-width="1px" opacity="0.25"></line><line x1="214.21538426325873" y1="0" x2="214.21538426325873" y2="177.95999908447266" fill="rgb(0, 0, 0)" stroke="rgb(60, 60, 60)" stroke-width="1px" opacity="0.25"></line><line x1="235.6369226895846" y1="0" x2="235.6369226895846" y2="177.95999908447266" fill="rgb(0, 0, 0)" stroke="rgb(60, 60, 60)" stroke-width="1px" opacity="0.25"></line><line x1="257.05846111591046" y1="0" x2="257.05846111591046" y2="177.95999908447266" fill="rgb(0, 0, 0)" stroke="rgb(60, 60, 60)" stroke-width="1px" opacity="0.25"></line><line x1="278.4799995422363" y1="0" x2="278.4799995422363" y2="177.95999908447266" fill="rgb(0, 0, 0)" stroke="rgb(60, 60, 60)" stroke-width="1px" opacity="0.25"></line></g><g><line x1="0" y1="177.95999908447266" x2="278.4799995422363" y2="177.95999908447266" fill="rgb(0, 0, 0)" stroke="rgb(60, 60, 60)" stroke-width="1px" opacity="0.25"></line><line x1="0" y1="158.18666585286456" x2="278.4799995422363" y2="158.18666585286456" fill="rgb(0, 0, 0)" stroke="rgb(60, 60, 60)" stroke-width="1px" opacity="0.25"></line><line x1="0" y1="138.41333262125647" x2="278.4799995422363" y2="138.41333262125647" fill="rgb(0, 0, 0)" stroke="rgb(60, 60, 60)" stroke-width="1px" opacity="0.25"></line><line x1="0" y1="118.63999938964847" x2="278.4799995422363" y2="118.63999938964847" fill="rgb(0, 0, 0)" stroke="rgb(60, 60, 60)" stroke-width="1px" opacity="0.25"></line><line x1="0" y1="98.86666615804037" x2="278.4799995422363" y2="98.86666615804037" fill="rgb(0, 0, 0)" stroke="rgb(60, 60, 60)" stroke-width="1px" opacity="0.25"></line><line x1="0" y1="79.09333292643228" x2="278.4799995422363" y2="79.09333292643228" fill="rgb(0, 0, 0)" stroke="rgb(60, 60, 60)" stroke-width="1px" opacity="0.25"></line><line x1="0" y1="59.31999969482419" x2="278.4799995422363" y2="59.31999969482419" fill="rgb(0, 0, 0)" stroke="rgb(60, 60, 60)" stroke-width="1px" opacity="0.25"></line><line x1="0" y1="39.5466664632161" x2="278.4799995422363" y2="39.5466664632161" fill="rgb(0, 0, 0)" stroke="rgb(60, 60, 60)" stroke-width="1px" opacity="0.25"></line><line x1="0" y1="19.773333231608092" x2="278.4799995422363" y2="19.773333231608092" fill="rgb(0, 0, 0)" stroke="rgb(60, 60, 60)" stroke-width="1px" opacity="0.25"></line><line x1="0" y1="0" x2="278.4799995422363" y2="0" fill="rgb(0, 0, 0)" stroke="rgb(60, 60, 60)" stroke-width="1px" opacity="0.25"></line></g></g></g><g><g><line x1="0" y1="771.1599960327148" x2="278.4799995422363" y2="771.1599960327148" fill="rgb(0, 0, 0)" stroke="rgb(153, 153, 153)" stroke-width="1.5px"></line></g></g><g><g><line x1="21.421538426325874" y1="0" x2="21.421538426325874" y2="177.95999908447266" fill="rgb(0, 0, 0)" stroke="rgb(153, 153, 153)" stroke-width="1.5px"></line></g></g><g><g><g><g><g><path style="fill: none;" stroke="rgb(255, 112, 67)" stroke-width="2px" d="M22.065255656036964,61.083083690473956L22.172363348168595,70.4255009421587L22.60079411669511,406.0519166403144L22.92211719309,178.71953166318985L23.02922488522163,131.4360464823967L23.136332577353258,100.94975075201887L23.457655653748144,86.9041588562806L23.564763345879776,82.05655896959178L23.671871038011403,72.21427006461144L24.100301806537924,67.98620819812948L25.064271035722587,62.513450310940854L25.385594112117477,61.651566699534555L25.81402488064399,59.288370687983175L26.02824026490725,71.0187890703424L26.24245564917051,65.74048618313608L26.34956334130214,63.71012451531911L26.563778725565395,65.08730915166161L26.777994109828654,61.56604978889091L26.885101801960285,64.39347567878006L27.206424878355175,76.83975388163087L27.313532570486803,73.08375515583374L27.420640262618434,69.35398717397815L27.52774795475006,64.84605257706923L27.63485564688169,62.46642546891769L28.063286415408207,59.98134065223829L28.277501799671466,59.66072981422171L28.49171718393473,57.407898323221914L28.598824876066352,55.566362387857254L28.705932568197984,55.096687941947806L28.81304026032961,57.05775442811061L29.1343633367245,58.23026439990841L29.241471028856132,57.80717739755755L29.34857872098776,56.79935295980687L29.45568641311939,64.81113371545243L29.991224873777536,62.2486858987957L30.526763334435685,59.78339935874065L30.633871026567313,67.91408749490525L30.848086410830568,63.3915039984914L30.9551941029622,59.3256577696627L31.06230179509383,58.813877294420195L31.59784025575198,57.83884501830818L32.45470179280501,56.45380384947332L32.7760248691999,56.92493367025497L32.88313256133153,57.74691205891581L33.632886406252936,57.4443390431029L33.95420948264782,58.28974602641712L34.16842486691108,328.2171295112932L34.81107101970086,220.00497327294917L34.91817871183248,154.23837792996204L35.02528640396412,115.38526814112993L35.34660948035901,92.07168625182629L35.45371717249063,77.55747446077568L36.20347101741204,69.19452663344829L36.417686401675304,71.53446936059491L36.63190178593855,64.34751141385756L36.73900947807019,61.215314590796595L36.846117170201815,59.09062504843422L36.95322486233345,57.5648769650754L37.595871015123215,66.27303511612917L37.91719409151811,60.941979387645375L38.13140947578137,59.67731498052285L38.34562486004463,57.0386112428729L38.45273255217626,56.958958557367154L38.559840244307885,58.350395327127785L38.930432859083325,66.38656619999976L39.25175593547821,59.67045516410225L39.46597131974147,52.86084242039067L39.5730790118731,50.3252784837382L39.89440208826799,322.1398408127769L40.42994054892613,225.47858460971747L40.53704824105777,167.16915766408752L40.64415593318939,115.52477524625021L40.85837131745265,89.64591493430972L41.179694393847534,69.43517588153001L41.393909778110796,65.51822902017673L41.50101747024243,55.73039444280839L41.715232854505686,54.227726760046394L41.92944823876895,55.731867613435796L42.036555930900576,52.01157440114372L42.78630977582198,47.757610904315385L43.64317131287502,52.88610212349484L43.75027900500664,56.986809902104696L43.857386697138274,61.415919925455185L44.285817465664785,68.13381952249877L44.60714054205968,56.727429080601354L44.928463618454565,61.1540681486961L45.35689438698108,55.886375419277684L45.46400207911271,51.03052442352654L45.67821746337597,322.87589142403226L45.89243284763923,216.5336067738248L46.10664823190249,164.74491232874016L46.42797130829737,118.88250297857735L46.53507900042901,88.07517159744089L46.642186692560635,75.63639186302316L46.963509768955525,74.95316030341013L48.034586690271816,70.23896263632709L48.24880207453508,58.53160689049123L48.89144822732486,68.46326191604041L49.21277130371974,57.78866548854097L49.319878995851376,51.25846873905046L49.426986687982996,46.74866455806179L49.534094380114624,44.53614611400815L49.748309764377886,42.51166849842713L50.176740532904404,44.294579239300106L50.390955917167666,42.14745545602918L50.60517130143092,40.225612946935115L50.819386685694184,40.284090254866356L51.35492514635233,40.194190322315706L51.63233406897324,62.57078742034308L52.06076483749977,56.627977391962744L52.81051868242117,48.77594709766947L52.9176263745528,53.40347724544549L53.45316483521095,48.40593314113403L53.560272527342576,46.667075658069336L53.66738021947421,42.79621917024454L53.881595603737466,40.138818130733284L53.988703295869094,38.01750398475332L54.09581098800073,39.625925428021446L54.52424175652724,38.65231379132163L54.631349448658874,37.58654971247526L54.84556483292213,39.47591445619821L55.16688790931702,46.57074703214002L55.59531867784354,41.47205866654613L55.702426369975164,42.864587478637134L55.80953406210679,45.49226674906291L55.91664175423842,44.687854794860755L56.18441098456749,73.71840323314115L56.50573406096239,67.70309895566672L56.61284175309401,63.86223535501435L56.719949445225645,57.15540039903355L57.04127252162053,52.15017192042173L57.148380213752155,50.25109320770174L57.4075808287107,51.46475666284928L58.05022698150048,48.639651061082304L58.26444236576374,57.130123981341924L58.585765442158625,58.73961270239391L58.69287313429026,57.346123195188525L58.907088518553515,63.82714110432461L59.01419621068514,65.91582065077355L59.54973467134329,69.0363556395441L59.65684236347492,71.27614922867393L59.871057747738185,59.67372087315279L60.08527313200143,51.418915706703785L60.19238082413307,47.40063910328763L60.299488516264695,46.065426678285945L60.620811592659585,44.18232277061949L61.049242361186096,45.087108687748696L61.691888513975876,44.43738674593166L62.12031928250239,43.06020316020073L62.22742697463402,43.680513459287L62.334534666765656,44.08830225899831L62.54875005102891,40.833848944481275L62.65585774316054,41.16700472060239L63.084288511687056,41.83216484393603L63.191396203818684,41.25507403076662L63.29850389595032,41.065825589623984L63.51271928021358,42.11303886078403L63.6198269723452,39.719688715551115L63.726934664476836,38.7623151259898L63.834042356608464,40.05231420586597L64.79801158579313,40.68857978812659L65.11933466218802,40.929305240808645L66.19041158350431,40.57298437841766L66.29751927563595,41.22528971368479L66.72595004416246,41.30637571337749L66.94016542842571,42.248694567811896L67.15438081268897,41.42382995958522L67.36859619695224,41.1781861084263L67.79702696547875,41.388504301811025L68.76099619466342,41.200381407203054L68.86810388679504,40.850810589136444L68.97521157892668,40.160923015113895L69.0823192710583,41.260818409893204L69.29653465532157,41.66544639056687L69.72496542384808,42.69185797108224L70.79604234516438,41.21267551885359L70.903150037296,42.48551720471687L71.01025772942764,41.568450422615314L71.11736542155926,41.639238474650824L71.33158080582253,42.21495860232312L71.43868849795415,44.060924207482174L71.76001157434904,43.88435778962693L71.86711926648067,42.668419508650146L71.97422695861229,42.55336002862231L72.18844234287556,42.39456349715459L72.50976541927044,42.65474606126787L72.93819618779696,41.93957198401961L73.68795003271836,41.29085518833668L74.00927310911325,42.345379248803795L74.11638080124489,40.721664482214834L74.33059618550814,42.81009068666489L74.54481156977141,43.076267421695576L74.86613464616629,44.57050600284549L76.04431925961421,43.934552465490384L76.36564233600909,42.93472424782871L76.47275002814074,42.38051860371942L76.57985772027236,43.73087903071931L76.79407310453561,43.43326544846167L77.00828848879888,43.51257115082814L77.1153961809305,43.96034461840699L77.32961156519376,44.33012164907703L77.86515002585192,44.86775369176192L77.97225771798354,44.29572279675142L78.61490387077332,43.385181785958935L78.82911925503659,42.612399622970116L78.93622694716821,42.54816607853374L79.04333463929983,44.06831545547013L79.15044233143146,42.10004373017827L79.25755002356308,42.294986195330296L79.36465771569473,42.16388362912792L79.47176540782635,42.8873936271294L79.57887309995797,43.11759542420009L79.68598079208961,42.97906075994905L79.79308848422124,40.67317107482327L80.0073038684845,41.77442861245561L80.32862694487939,316.33482105187625L80.43573463701101,207.48150836963438L80.54284232914264,143.0282642581704L80.75705771340591,105.27334926545603L81.18548848193241,81.82601680528629L81.39970386619568,64.52511438306607L81.61391925045893,56.05508345355588L82.04235001898545,51.18881149457302L82.14945771111708,46.901930330000795L82.25656540324871,44.93240615086236L82.47078078751197,44.529234959076206L82.8992115560385,44.856597021756244L83.22053463243338,44.319294793432704L83.54185770882826,43.80573794574394L83.75607309309153,43.426115736810885L83.86318078522315,41.02181167364523L83.97028847735479,41.458851469321445L84.07739616948642,42.219455458400745L84.18450386161804,41.94941502609723L84.29161155374968,40.96530589901647L84.50582693801293,42.94926061368628L84.61293463014457,43.35520664293483L85.14847309080271,41.944874147939515L85.25558078293433,42.06929862869629L85.46979616719759,40.279756371377886L85.68401155146086,315.8566714268853L86.00533462785575,206.26757388352772L86.219550012119,138.58531323324004L86.43376539638226,101.010401356672L86.86219616490877,76.95183372205898L87.07641154917204,63.559012649885645L87.18351924130366,55.17874019725812L87.61195000983018,50.586180818899564L88.0403807783567,47.80445237433128L88.14748847048833,46.43632156367161L88.3617038547516,44.45520874639175L88.68302693114647,44.32092924945192L89.111457699673,43.36590990580308L89.64699616033114,42.14539450096322L90.39675000525254,42.64680656518888L90.50385769738418,43.23490736008745L90.71807308164743,43.162535269837605L90.82518077377907,42.61911017448975L90.93228846591069,42.55204155088509L91.03939615804232,317.9498986070753L91.14650385017394,207.41641947106228L91.25361154230559,140.89893356314252L91.46782692656883,103.04698250462654L92.00336538722698,78.1731224046299L92.11047307935861,61.58960732515264L92.32468846362188,54.45170927424947L92.86022692428003,49.907287413335894L93.07444230854327,46.8154434366466L93.18155000067492,44.61447494354596L93.28865769280654,44.244340492983156L93.60998076920143,41.40597638121005L93.71708846133306,39.98332854869008L93.82419615346468,42.35492615511609L93.9313038455963,42.594701029583376L94.03841153772794,42.43871570810535L94.25262692199121,41.502145736901525L94.35973461412283,42.118314824473316L94.46684230625445,42.46122002522148L94.68105769051772,43.8271220472742L94.78816538264935,44.654093044606725L94.89527307478097,43.52739582194852L95.0023807669126,42.8167743060568L95.10948845904424,43.224404090493806L95.21659615117586,41.120925040150496L95.43081153543912,40.25069272064022L95.53791922757075,41.6998975672461L95.85924230396564,41.85584062709441L96.60899614888704,42.24916242256148L96.71610384101868,42.45954725921024L96.8232115331503,41.37698623117953L97.03742691741357,42.84254320343513L97.25164230167682,42.99526713051671L97.57296537807171,42.56164969401701L97.68007307020333,41.992483185733306L97.78718076233497,41.54081881701501L98.21561153086148,41.67140568362694L98.644042299388,41.95982834898146L98.75114999151963,42.56601573248528L98.9653653757829,43.461353729513974L99.07247306791453,43.77145782233626L99.17958076004615,43.99210460300628L99.28668845217777,44.62771911433538L99.39379614430942,43.98777536707718L99.92933460496756,43.45896604339734L100.57198075775733,41.56547249526221L100.7861961420206,42.281184052878814L100.89330383415222,42.97169058357889L101.00041152628386,42.42066943117976L101.10751921841548,42.21451505208819L101.32173460267875,42.189389636548896L101.64305767907362,42.151402743361274L101.75016537120526,316.99250462077873L102.07148844760015,207.7465875795337L102.17859613973177,140.87069001563253L102.2857038318634,100.11746672201679L102.49991921612666,76.10430486883419L102.71413460038993,61.22899136477757L103.35678075317969,53.19245446982836L103.6781038295746,48.08708795514627L103.78521152170622,45.649403067126116L104.1065345981011,43.61860222380528L104.21364229023274,42.9775328578273L104.32074998236436,42.91071251040913L104.53496536662762,41.54336668736718L104.64207305875925,39.617693950611624L104.74918075089089,41.8031097010595L105.28471921154903,42.42222007611295L105.71314998007554,41.71120070083833L105.82025767220718,40.585020216357435L106.03447305647043,40.70109308004285L106.24868844073369,40.21504929094033L106.46290382499694,40.086727409135335L106.57001151712858,42.16448481319725L106.67711920926021,41.75525912448438L106.78422690139183,40.81601947847696L106.89133459352345,42.077336267015056L106.9984422856551,43.486099323640985L107.21265766991836,41.855768181094476L107.42687305418163,41.51030801261584L107.64108843844487,42.28646000959836L107.96241151483977,41.636382437588026L108.17662689910301,40.99195064687055L108.28373459123465,41.79931822085868L108.39084228336628,41.049414023880246L108.8192730518928,42.36842012787935L109.14059612828768,42.62289931641757L109.35481151255095,43.759014927610195L109.67613458894583,42.386575278302416L110.10456535747234,43.69591210132114L110.42588843386724,43.628767325028036L110.74721151026212,43.42834409736437L110.85431920239375,42.17693381740338L111.06853458665701,43.230356032071654L111.28274997092028,43.50940032948566L111.49696535518353,42.90848540238568L112.03250381584168,42.9168610556373L112.24671920010493,42.75049226562899L112.35382689223657,317.4215430237164L112.46093458436819,208.32994054108758L112.56804227649982,141.90252591371123L112.88936535289471,101.69419954510157L113.53201150568448,79.3617239961879L113.74622688994775,64.17662017372695L113.85333458207937,54.86306797752407L113.960442274211,49.20812517485561L114.06754996634263,47.078958225868206L114.60308842700078,45.47219039103507L114.81730381126404,43.993626569816655L114.92441150339566,42.513727278548146L115.24573457979055,42.31935993532636L115.4599499640538,41.88846343339449L115.67416534831708,41.14868672448981L115.88838073258033,40.893375042354165L115.99548842471195,40.650332903021564L116.20970380897522,40.284272978526275L116.42391919323848,41.40056500564438L116.74524226963337,40.38834270249228L116.95945765389662,41.0667579737561L117.06656534602826,40.47616061912484L117.28078073029151,41.21271702871638L117.38788842242313,40.85725023872175L117.70921149881804,316.5015365152434L118.03053457521293,207.59575606697445L118.13764226734455,140.63476345585036L118.88739611226596,101.10561511586617L119.10161149652922,77.95592001866329L119.20871918866084,64.42016800165156L119.31582688079247,56.0594173999754L119.4229345729241,49.56364799547339L119.53004226505573,47.357819962742184L119.74425764931898,45.710731530998686L119.85136534145063,46.5638014885011L119.95847303358225,45.743562374477904L120.27979610997713,46.89106288464859L120.38690380210878,46.60577118322814L120.4940114942404,46.88973643916847L120.60111918637202,46.023924713155395L120.81533457063529,45.630480004780054L121.45798072342505,43.71401853253627L121.56508841555669,42.66734776183853L121.88641149195158,42.16721678669745L122.63616533687298,42.303289157112346L122.95748841326787,41.613668189204674L123.38591918179439,43.07248406165601L123.70724225818928,43.00637845345463L123.8143499503209,42.32517020301995L124.13567302671579,42.117841430922226L124.24278071884743,41.39197108726182L124.34988841097905,41.99282833384345L124.67121148737394,42.72856563620161L124.77831917950557,42.46119907147457L124.99253456376883,42.36129227268759L125.20674994803208,41.44011552928734L125.31385764016372,42.86550464213812L125.52807302442697,43.59350777145286L125.74228840869023,43.13569952842019L125.84939610082186,42.99377011577184L126.27782686934837,43.2548140070308L126.38493456148001,42.183395087992494L126.59914994574328,41.99562744140195L126.92047302213815,42.2219460387154L127.02758071426979,41.525299660695964L127.13468840640142,43.14846587103156L127.45601148279631,43.18368591964821L127.56311917492793,42.78428085432236L128.41998071198097,42.484294390958155L128.74130378837586,42.71516580224841L128.84841148050748,42.83677363293529L129.06262686477075,43.00685352961895L129.276842249034,41.89119002522432L129.38394994116564,42.82396640622747L129.70527301756053,46.22705209629973L129.81238070969215,44.115220479649025L130.02659609395542,43.949445572697925L130.13370378608704,44.27106458530466L130.24081147821866,45.77030141024116L130.3479191703503,45.863051924067236L130.66924224674517,44.274381638405146L131.52610378379822,43.401134504031575L131.63321147592984,43.48795596259521L131.74031916806146,43.57042798033828L131.95453455232473,42.17338502705951L132.27585762871962,41.15203582006026L132.38296532085124,41.37060782234525L132.5971807051145,43.12972232118824L132.81139608937778,41.91199766009794L132.9185037815094,42.484064247326245L133.02561147364102,42.992098319604054L133.3469345500359,42.427841453700694L133.45404224216753,42.38257523293868L133.56114993429918,42.89754459467733L134.0966883949573,41.97156032146748L134.4180114713522,41.78994812882726L134.95354993201036,41.082562618689934L135.59619608480014,43.13075968988116L135.70330377693176,42.02295426094216L135.91751916119503,42.41903297118483L136.13173454545827,41.96073194346448L136.5601653139848,44.14774417559619L136.77438069824805,43.67412559124199L136.9885960825113,42.6385845231284L137.20281146677456,43.013246955485215L137.41702685103783,41.568285296190425L137.6312422353011,42.10412319665599L137.73834992743272,42.97237507454403L137.84545761956434,42.072540279224256L138.7023191566174,42.513465189934976L138.809426848749,43.328333307460014L139.4520730015388,45.67600135825228L139.66628838580203,45.896195021684775L139.8805037700653,47.41387166793842L139.98761146219695,47.87088367914234L140.09471915432857,46.97880335524357L141.05868838351324,50.78471766756263L141.27290376777648,50.01624671906036L141.59422684417137,43.501153548271475L141.91554992056626,41.59855421404828L142.0226576126979,40.14375567011854L142.23687299696115,40.76098197432714L142.34398068909277,41.17091812896305L142.45108838122442,40.830360596144686L142.55819607335604,40.092986210523264L142.7724114576193,39.69800659640299L142.8795191497509,42.05225974833621L143.0937345340142,44.755142621424085L143.30794991827744,48.993947794154394L143.62927299467233,44.86583163757868L143.73638068680395,43.55451403877231L143.95059607106722,45.50314746901691L144.80745760812025,47.175553970090675L144.9145653002519,45.416928487972L145.02167299238351,50.2682052709758L145.45010376091003,46.21153101305646L145.55721145304167,45.78539732555913L145.6643191451733,45.73514875771511L145.98564222156818,51.18867057370147L146.0927499136998,53.087310757252965L146.19985760583143,53.98253771786182L146.52118068222632,56.69512976478984L147.8064729878059,54.89813909941127L148.12779606420077,51.91509137237797L148.34201144846404,57.97980797112008L148.6633345248589,60.19875715967514L148.77044221699055,63.484065604711645L149.09176529338544,70.06771344199042L149.41308836978033,60.871823186720036L149.52019606191195,64.00836578143542L149.63373021557146,91.81573095047456L149.7408379077031,79.36344083594912L149.84794559983473,70.51486011182298L149.95505329196635,67.82512543391148L150.062160984098,78.29520617551243L150.16926867622962,67.05129907810871L150.59769944475616,84.43421583953412L150.91902252115105,77.00634780893783L151.1332379054143,69.92227430227373L151.34745328967756,71.60449394542354L151.45456098180918,74.1298411196324L151.5616686739408,68.10894775292599L151.66877636607245,78.37898218251915L151.77588405820404,79.5775299145567L151.8829917503357,67.81150980666952L152.84696097952036,69.04425337656346L152.95406867165198,70.48863528351028L153.16828405591522,64.78297924166172L153.70382251657338,61.21806142955691L153.81093020870503,58.711034712184855L154.13225328509992,53.994926786460795L154.4535763614948,50.5584523290497L154.7748994378897,50.704194113175774L154.98911482215294,50.02505140886794L155.2033302064162,51.31557317043105L155.31043789854783,49.0275140227663L155.5246532828111,48.157867262454374L155.6317609749427,48.6589945325274L155.9530840513376,47.93288981770024L156.06019174346923,46.8094062398807L156.16729943560088,47.386404992087165L156.48862251199574,47.5861017239213L156.5957302041274,47.17395476433438L156.80994558839063,46.49115678196458L156.91705328052228,48.67796124792261L157.0241609726539,48.787757772895816L157.23837635691717,52.05966295664412L157.3454840490488,50.935957060861924L157.88102250970692,49.143664160146415L157.98813020183857,52.147145604441945L158.2023455861018,50.21661653978258L158.63077635462835,48.268309392017954L158.73788404675997,48.72657982266918L158.9520994310232,45.65549921090408L159.38053019954975,45.9433885780422L159.594745583813,45.586042931642936L159.80896096807626,45.33780551162877L160.02317635233953,44.717373486341955L160.13028404447115,45.20721437202042L160.2373917366028,45.63089498003032L160.5587148129977,44.36891824063696L160.88003788939255,44.69912070052126L160.98714558152417,45.39241654371645L161.20136096578744,44.668997057407665L161.3084686579191,45.55278917750715L161.4155763500507,46.68534839473094L161.62979173431398,45.29146501330774L162.05822250284047,56.0982855338892L162.27243788710373,57.12325912025388L162.37954557923536,68.32285701766828L162.70086865563027,80.198772778134L163.02219173202516,66.83312854303817L163.12929942415676,59.15356976665076L163.66483788481492,62.40015344793969L163.77194557694656,58.89911131159717L163.87905326907818,55.2155648699257L163.9861609612098,49.49486401730695L164.20037634547305,61.31411196314079L164.41459172973634,57.857441612747294L164.52169942186794,61.138560008404596L164.73591480613123,65.70852291779248L164.84302249826285,80.871345949155L164.95013019039447,94.40929749150791L165.27145326678936,74.62866564705914L165.59277634318423,64.99295551999256L165.80699172744752,62.1529696548572L166.1283148038424,72.88896360135941L166.23542249597403,62.67007998803639L166.34253018810566,56.840542370166446L166.44963788023728,53.67278518572708L166.87806864876381,324.42559693921044L167.52071480155357,184.2281220915772L167.62782249368522,153.0987045077451L168.0562532622117,119.64474082392994L168.16336095434335,89.88426357799204L168.48468403073824,75.064250904079L168.80600710713313,83.84089218293437L169.0202224913964,90.10927551229034L169.3415455677913,96.17453801910679L169.98419172058107,99.85476676627148L170.0912994127127,111.56084583480752L170.30551479697593,114.24289705090956L170.41262248910758,123.2611876866072L170.51973018123923,148.23203043663702L170.73394556550247,151.6365375780017L170.8410532576341,159.6328560925474L171.16237633402898,166.65181321564538L171.6979147946871,142.1316843668483L172.9832071002667,102.99769928780405L173.0903147923983,79.28049801515536L173.19742248452994,63.42599627542482L173.7329609451881,56.32452417476844L174.054284021583,51.39305575597973L174.16139171371458,51.45136477046273L174.37560709797788,71.04857571277033L174.48271479010947,75.3958246388729L174.58982248224112,63.40176306654469L174.69693017437274,56.18188647432224L175.2324686350309,54.475088043528885L175.33957632716252,56.45045431263962L175.55379171142576,52.07504639427802L175.6608994035574,48.626679622959585L175.76800709568906,47.09703548563658L175.9822224799523,51.15548833463687L176.19643786421557,63.85727708818368L176.68163570957182,65.18917010024664L176.78874340170347,64.2491895656217L177.0029587859667,57.77773087728892L177.11006647809836,52.45304383037782L177.64560493875652,55.9875228350069L177.7527126308881,57.14929665578302L178.074035707283,48.453756117826174L178.2882510915463,44.19559052221402L178.50246647580954,42.9274958279247L178.82378955220443,39.73511959179234L178.93089724433605,39.501559368295574L179.3593280128626,39.29798720954011L179.78775878138907,44.25313962384354L180.00197416565234,44.56765066211187L180.2161895499156,56.99521057497388L180.965943394837,54.64965498732347L181.07305108696863,60.93218589367484L181.18015877910028,65.65171736442197L181.2872664712319,56.59449938786763L181.50148185549517,49.53934422876307L181.6085895476268,42.93822431035909L181.7156972397584,39.44798592267219L181.82280493189006,37.312752789664984L181.92991262402165,36.98230470031908L182.0370203161533,37.93955584758237L182.14412800828495,38.65590215593738L182.25123570041657,34.99925325624426L182.3583433925482,37.736245679695855L182.67966646894308,41.99813775013183L182.89388185320635,40.500402318775514L183.59757939051113,67.94995143790595L184.02601015903767,55.25189482998837L184.77576400395907,45.10733027469567L184.9899793882223,40.61303564801261L185.52551784888047,39.04787921784637L185.63262554101212,39.16715244770592L186.0610563095386,36.91860601293445L186.2752716938019,36.56195776376657L186.38237938593352,34.94351333137888L186.59659477019676,33.66590207716908L186.81081015446003,34.49975607751813L186.91791784659165,35.1803821720718L187.56056399938143,34.3670297772278L187.66767169151308,33.17658316835747L187.7747793836447,32.77249926058258L188.31031784430283,31.273246249043495L188.41742553643448,31.537964239495352L189.38139476561912,32.19632544196324L189.48850245775077,32.648347841963385L189.80982553414566,33.12346548369362L189.91693322627728,30.933739099651973L190.0240409184089,30.4769684656234L190.23825630267217,32.421224644248866L190.4524716869354,31.953414422454358L190.55957937906706,33.35842184353106L191.20222553185684,34.11011915248176L191.52354860825173,33.105107284621L192.0590870689099,34.43693663059449L192.16619476104148,33.91990644241861L192.59462552956802,33.70735039006615L192.70173322169964,33.21473904243388L193.02305629809453,33.17129460295942L193.13016399022618,34.49971152402205L193.23727168235777,34.94279092194992L193.45148706662107,33.89780967188133L193.55859475875266,34.21528979668102L193.6657024508843,34.06743983517481L193.77281014301593,34.60484945598185L194.20124091154247,33.23347416937L194.4154562958057,32.74099153008652L194.52256398793736,33.45342570333466L194.62967168006895,32.85150282024529L194.84388706433225,32.69547901792521L195.0581024485955,33.16121056393726L195.27231783285873,31.55097630638076L195.486533217122,33.65028169961806L195.59364090925365,33.63592096475844L195.70074860138524,32.50640656258844L195.91496398564854,32.70971191414992L196.02207167778013,32.45337957018896L196.2362870620434,33.004806219144285L196.34339475417502,32.67133768037991L196.45050244630667,32.809424877626924L196.66471783056994,32.35712531019877L196.77182552270156,32.939661593689436L197.09314859909642,32.91224439324992L197.4144716754913,32.99289041393766L197.52157936762296,33.411918651986696L197.84290244401785,34.39822421459098L197.95001013614947,34.42615482525696L198.05711782828112,33.30543964607597L198.16422552041274,31.13194900505036L198.4855485968076,33.81297206717767L198.91397936533414,32.907150848623445L199.1281947495974,32.29777064122672L199.23530244172903,32.607083716115966L199.34241013386065,33.37868163900802L199.66373321025554,32.35213839641841L199.7708409023872,32.834387341455255L199.98505628665043,32.996072651720425L200.41348705517694,33.397384411570386L200.5205947473086,33.66185626146651L200.6277024394402,33.25744093730978L200.73481013157183,33.225409150484694L200.94902551583507,33.085314656851665L201.3774562843616,32.50372642840057L201.48456397649323,32.95724674617384L201.6987793607565,32.75662478043594L201.80588705288812,34.200051438325715L201.91299474501977,33.477189645416814L202.02010243715142,33.168213741820296L202.23431782141466,33.22224073505183L202.55564089780955,31.288008165371792L202.66274858994117,32.271640200159055L202.7698562820728,33.83785544964047L202.87696397420441,34.176413236048404L202.98407166633606,33.4139776919134L203.30539474273095,33.663119005128095L203.4125024348626,33.10671773152316L203.84093320338908,32.76771006166575L203.94804089552073,32.77922233639225L204.2693639719156,32.991052198241135L204.37647166404724,33.3897332387499L204.80490243257375,33.76064138630332L205.12622550896864,33.48650332196661L205.34044089323191,35.554500889766786L205.66176396962678,33.58506697931085L205.76887166175842,34.87892018027901L205.87597935389007,35.255306057181656L205.98308704602167,33.787165665666805L206.09019473815331,33.82433120020485L206.30441012241656,33.12032198177684L206.4115178145482,34.079215144582236L206.51862550667983,32.68399881139561L206.83994858307472,33.00125757315146L206.94705627520636,311.27059505458465L207.26837935160125,200.26113576172662L207.37548704373285,132.91919498187306L207.69681012012776,93.1358883573398L207.911025504391,69.03375191545072L208.01813319652265,54.98793452571884L208.12524088865425,46.15951861023876L208.2323485807859,41.18370350804892L208.9821024257073,39.170007578332275L209.08921011783895,37.738670209638315L209.41053319423384,36.159216445286944L209.94607165489197,36.66853616323007L210.37450242341848,36.047007853603645L210.58871780768175,34.90921910916916L210.80293319194502,35.02379563969757L211.01714857620826,35.68737686175788L211.1242562683399,35.26926763919178L211.33847165260315,33.4030274979753L211.76690242112966,32.8315034218183L211.8740101132613,32.8534781191444L211.98111780539293,33.47756467796822L212.1953331896562,34.410551575904236L212.30244088178782,35.07696300224393L212.40954857391944,314.04930582694476L212.83797934244595,201.72809748618275L213.05219472670922,134.41987213288172L213.2664101109725,94.67904640194213L213.48062549523573,70.14424104820827L213.58773318736738,55.11042060969291L213.80194857163062,45.914321551732144L214.23037934015713,39.82720876600351L214.44459472442043,38.79256340572536L214.55170241655202,36.42466434399344L214.8730254929469,35.348070997916494L215.1943485693418,34.1732048774314L215.6227793378683,33.173884724477205L215.8369947221316,31.479078341362452L215.9441024142632,32.026050920786304L216.2654254906581,32.993516475548034L216.6938562591846,32.93686353578357L216.9080716434479,32.22298995474381L217.0151793355795,33.04313353753088L217.33650241197438,32.070552781387704L217.44361010410603,33.36325110098804L217.76493318050092,33.19560808639079L217.87204087263254,33.53607613634557L217.9791485647642,33.68668903344843L218.19336394902743,33.51088569916601L218.30047164115908,32.78841104379137L218.62179471755394,33.953159554315306L218.72890240968556,33.64165230952466L218.94311779394883,33.35282414776535L219.1573331782121,33.85733476268493L219.26444087034372,33.52036312080807L219.37154856247537,33.02856941431213L220.12130240739677,34.127728005833006L220.2284100995284,33.7833914423787L220.33551779166,34.28567387972822L220.44262548379166,34.74727399062593L221.19237932871306,34.46315335631573L221.29948702084468,35.21685937419372L221.4065947129763,36.15188695023042L221.51370240510795,35.14442704314692L221.7279177893712,33.29212451636775L222.04924086576608,33.82099041312654L222.37056394216097,32.81264035147518L222.79899471068748,32.602917457429584L222.90610240281913,33.258135060266085L223.12031778708237,311.8176915965972L223.44164086347726,200.43259507069564L223.5487485556089,134.07960793313157L224.40561009266196,92.17401197585865L224.72693316905682,68.35194910294926L224.83404086118844,55.1485136196909L224.9411485533201,45.95281007605465L225.0482562454517,41.063374422268794L225.15536393758333,39.48549776982816L225.47668701397822,36.54140443837895L225.58379470610984,34.248904639318596L225.6909023982415,33.88306339014545L225.7980100903731,32.66363038752573L226.22644085889962,31.6792070679671L226.33354855103127,32.310545130288745L226.4406562431629,33.118993147763064L226.76197931955778,32.13830132786916L226.97619470382102,32.62277346033272L227.08330239595267,31.69474585944323L227.1904100880843,31.709362668467293L227.40462547234756,31.508552498815874L227.6188408566108,31.268454415930506L227.83305624087407,31.231373142858473L227.94016393300572,32.402359019991565L228.47570239366385,311.0777365941917L228.6899177779271,199.98613290300548L228.79702547005874,133.01815803273854L229.011240854322,91.82143499273765L229.3325639307169,69.50518259457283L229.54677931498014,56.61258554154391L229.6538870071118,47.163123204774365L229.76099469924338,42.170103018164724L230.18942546776992,37.97149560395576L230.29653315990154,38.05960079788056L230.4036408520332,36.662354859500795L230.83207162055967,35.206788353827136L231.15339469695456,35.65442257743655L231.36761008121783,35.13531399567964L231.90314854187596,35.105709209453636L232.3315793104025,33.45192296458359L232.43868700253412,32.423973168121705L232.54579469466577,32.13422693459904L232.6529023867974,31.675709090969434L233.93819469237695,310.9747138726969L234.1524100766402,201.94952001449118L234.36662546090344,135.02877869459792L234.58084084516673,94.62532411544012L234.68794853729833,69.84442230475878L234.79505622942997,54.74073043729247L234.90216392156162,46.34566844295824L235.00927161369324,38.96349720996042L235.33059469008813,36.49552547152578L235.43770238221975,35.71740388826973L235.54481007435137,36.242576831649956L235.65191776648302,35.53076751956675L235.86613315074626,35.469891087740734L235.9732408428779,35.49712182774343L236.08034853500953,34.35456481058469L236.29456391927278,34.8877791952971L236.50877930353604,33.40907778217547L236.83010237993096,33.82433203034438L237.15142545632582,32.14909506786492L237.3656408405891,33.86760991219282L237.47274853272071,34.147612903769385L238.00828699337885,35.17026615814504L238.22250237764214,35.17882099687861L238.32961006977374,35.304999037537215L238.543825454037,34.30016256559111L238.8651485304319,34.15394725946041L238.97225622256352,33.1375516351454L239.29357929895843,311.2882412820292L239.40068699109003,200.1371576622971L239.50779468322168,133.78795698465254L239.6149023753533,92.65750016569231L240.0433331438798,68.72795596700972L240.25754852814308,55.36617880638494L240.36465622027472,48.142025103587116L241.22151775732775,41.63813021108254L241.32862544945937,38.674378666564195L241.5428408337226,36.92092511572258L242.0783792943808,37.41941498387308L242.61391775503893,36.03856683322613L242.72102544717055,34.896649283561686L242.8281331393022,33.07576008162735L243.04234852356544,32.97001126150593L243.14945621569709,34.415091001690996L243.36367159996033,34.52169855735576L243.57788698422357,35.30691786813142L243.8992100606185,34.964299522361415L244.0063177527501,34.038642891365924L244.43474852127662,34.61344353280879L244.97028698193478,34.55932188267886L245.18450236619802,34.32515099731697L245.8271485189878,33.29013263207875L245.93425621111945,33.26642722560587L246.04136390325107,33.98714917345717L246.1484715953827,35.275421812760925L246.2555792875143,34.860015943940425L246.5769023639092,34.01780399359015L246.79111774817247,35.417518724386554L247.00533313243574,35.20459995628079L247.11244082456736,34.90381392661365L247.43376390096225,34.825171837098L247.6479792852255,34.753472067320075L247.86219466948876,35.62970884338361L247.96930236162038,35.26849686034177L248.07641005375203,34.09675955376636L248.39773313014692,33.711048151668365L248.82616389867343,34.299386727741734L248.93327159080505,34.020537650379026L249.04037928293667,33.62856209285326L249.4688100514632,33.185795379197344L249.57591774359483,34.24503180058832L249.7901331278581,33.04485126093019L249.89724081998972,34.59982202953654L250.11145620425296,34.33217778026332L250.2185638963846,34.38109605648512L250.32567158851626,33.77335246423684L250.5398869727795,32.480039868251254L250.64699466491115,32.80858211810832L250.75410235704274,34.96377615301748L250.8612100491744,35.43173396309575L251.18253312556928,35.54128418306388L251.39674850983255,34.41574083535389L251.50385620196414,32.71902694339195L252.03939466262233,33.53387354537978L252.14650235475392,33.56128631292205L252.25361004688557,33.886202014869895L252.68204081541208,33.03051584930091L252.89625619967532,33.68178880837618L253.11047158393862,33.435948316161216L253.5389023524651,33.54976876212288L254.2886561973865,34.17899087198833L254.6099792737814,34.02793459950962L254.82419465804466,33.30378916885107L255.03841004230793,32.89130840295746L255.14551773443955,32.17879843092112L255.3597331187028,33.20266494287742L255.5739485029661,33.23540624230503L255.78816388722933,34.87772341249877L255.89527157936098,35.847763856092115L256.0023792714926,34.818448981062716L256.10948696362425,34.232483781773425L256.3237023478875,33.797291305086105L256.43081004001914,33.89676549312193L256.752133116414,33.969348412859546L256.8592408085456,33.434959019726165L257.1805638849405,33.64434807856804L257.5018869613354,34.16986984291128L257.93031772986194,32.74580255717382L258.5729638826517,32.13516847669305L258.6800715747833,33.029362159289235L259.0013946511782,33.83802721184787L259.10850234330985,33.12784186792064L259.3227177275731,34.74516643443795L259.53693311183633,34.34229569882868L259.644040803968,33.31182813161763L259.8582561882312,32.94223792814631L259.9653638803629,33.80440256269432L260.1795792646261,32.308192137473185L260.28668695675776,32.702720310913776L260.3937946488894,34.28718873646659L260.500902341021,33.60620245959589L260.7151177252843,33.60127048652214L260.92933310954754,33.97306282408573L261.0364408016792,34.67897990657397L261.4648715702057,33.800488778386296L261.5719792623373,33.39562725005544L261.78619464660056,33.32302964777318L262.10751772299545,33.72810558777823L262.3217331072587,34.87190875873986L262.6430561836536,34.5551698077123L263.22250879808576,42.668702177153364" fill="none"></path></g></g></g></g><g opacity="0.2"><g><g><g><path style="fill: none;" stroke="rgb(255, 112, 67)" stroke-width="2px" d="M22.065255656036964,61.083083690473956L22.172363348168595,76.03095129316957L22.60079411669511,728.2532757105437L22.70790180882674,71.03050859148787L22.92211719309,82.92721466635217L23.02922488522163,66.0259644226947L23.136332577353258,57.3538600768467L23.457655653748144,66.425551034612L23.564763345879776,74.90729073452772L23.671871038011403,57.59961810043386L24.100301806537924,61.68246360834988L25.064271035722587,54.33409598690315L25.385594112117477,60.3615554819565L25.81402488064399,55.74820641765713L26.02824026490725,88.60062797741557L26.24245564917051,57.82675452046895L26.34956334130214,60.66544119460619L26.563778725565395,67.15273643914527L26.777994109828654,56.28469717315721L26.885101801960285,68.63435607568802L27.206424878355175,95.50848860243059L27.313532570486803,67.4498806598761L27.420640262618434,63.7594088389572L27.52774795475006,58.08420408248881L27.63485564688169,58.89700172006147L28.063286415408207,56.25372402497061L28.277501799671466,59.17981437755223L28.49171718393473,54.02865454534913L28.598824876066352,52.804060181125024L28.705932568197984,54.392176532665545L28.81304026032961,59.999353507043736L29.1343633367245,59.98902912431488L29.241471028856132,57.17254694453972L29.34857872098776,55.28761637536928L29.45568641311939,76.82880450460044L29.991224873777536,58.40501423988583L30.526763334435685,56.08546958680016L30.633871026567313,80.11011962367532L30.848086410830568,56.607628779060164L30.9551941029622,53.2268884400073L31.06230179509383,58.04620658258257L31.59784025575198,56.37629660531334L32.45470179280501,54.376242097220995L32.7760248691999,57.63162840122335L32.88313256133153,58.9798796416932L33.632886406252936,56.99047951943065L33.95420948264782,59.557856501309274L34.16842486691108,733.1082047234561L34.81107101970086,57.686738919077456L34.91817871183248,55.58848491681054L35.02528640396412,57.10560345835256L35.34660948035901,57.10131341804056L35.45371717249063,55.78615677426325L36.20347101741204,56.650104892478936L36.417686401675304,75.04438345131105L36.63190178593855,53.5670744937585L36.73900947807019,56.5170193562068L36.846117170201815,55.90359073489162L36.95322486233345,55.276254840037524L37.595871015123215,79.33527234270876L37.91719409151811,52.945395794920216L38.13140947578137,57.78031836983911L38.34562486004463,53.080555636398145L38.45273255217626,56.83947952910843L38.559840244307885,60.437550481768994L38.930432859083325,78.44082250930781L39.25175593547821,49.59628861025581L39.46597131974147,42.646423304823344L39.5730790118731,46.52193257875962L39.89440208826799,729.8616843063347L40.42994054892613,80.48670030512827L40.53704824105777,79.70501724564261L40.64415593318939,38.05820161949424L40.85837131745265,50.827624466398746L41.179694393847534,39.11906730236052L41.393909778110796,59.64280872814682L41.50101747024243,41.04864257675581L41.715232854505686,51.97372523590333L41.92944823876895,57.98807889352004L42.036555930900576,46.43113458270574L42.78630977582198,41.376665659072984L43.64317131287502,60.57883895226405L43.75027900500664,63.13787157001933L43.857386697138274,68.05958496048089L44.285817465664785,78.21066891806427L44.60714054205968,39.617843417755154L44.928463618454565,67.79402675083837L45.35689438698108,47.98483632515004L45.46400207911271,43.74674792989995L45.67821746337597,730.6439419247907L45.89243284763923,57.020179798513695L46.10664823190249,87.06187066111306L46.42797130829737,50.08888895333317L46.53507900042901,41.864174525736104L46.642186692560635,56.97822226139637L46.963509768955525,73.92831296399041L48.034586690271816,63.167666135702646L48.24880207453508,40.97057327173752L48.89144822732486,83.36074445436435L49.21277130371974,41.776770847291715L49.319878995851376,41.46317361481488L49.426986687982996,39.983958286578826L49.534094380114624,41.217368447927555L49.748309764377886,39.474952075055626L50.176740532904404,46.968945350609516L50.390955917167666,38.92676978112286L50.60517130143092,37.34284918329405L50.819386685694184,40.371806216763304L51.35492514635233,40.05934042348963L51.63233406897324,96.13568306738428L52.06076483749977,47.713762349392084L52.81051868242117,36.997901656229544L52.9176263745528,60.344772467109564L53.45316483521095,40.90961698466708L53.560272527342576,44.05878943347244L53.66738021947421,36.98993443850728L53.881595603737466,36.15271657146633L53.988703295869094,34.83553276578337L54.09581098800073,42.038557592923695L54.52424175652724,37.19189633627198L54.631349448658874,35.987903594205505L54.84556483292213,42.309961571782566L55.16688790931702,57.21299589605283L55.59531867784354,33.8240261181551L55.702426369975164,44.95338069677382L55.80953406210679,49.43378565470144L55.91664175423842,43.48123686355757L56.18441098456749,117.26422589056165L56.50573406096239,58.68014253945512L56.61284175309401,58.10093995403561L56.719949445225645,47.09514796506238L57.04127252162053,44.64232920250407L57.148380213752155,47.402475138621696L57.4075808287107,53.285251845570485L58.05022698150048,44.40199265843208L58.26444236576374,69.86583336173133L58.585765442158625,61.1538457839718L58.69287313429026,55.25588893438058L58.907088518553515,73.54866796802888L59.01419621068514,69.04883997044693L59.54973467134329,73.7171581227L59.65684236347492,74.63583961236871L59.871057747738185,42.27007833987105L60.08527313200143,39.036707957030245L60.19238082413307,41.37322419816337L60.299488516264695,44.06260804078312L60.620811592659585,41.35766690911987L61.049242361186096,46.444287563442515L61.691888513975876,43.46280383320601L62.12031928250239,40.9944277816042L62.22742697463402,44.61097890791643L62.334534666765656,44.699985458565294L62.54875005102891,35.95216897270558L62.65585774316054,41.666738384784054L63.084288511687056,42.829905028936366L63.191396203818684,40.38943781101261L63.29850389595032,40.78195292791011L63.51271928021358,43.6838587675241L63.6198269723452,36.12966349770187L63.726934664476836,37.32625474164766L63.834042356608464,41.98731282568042L64.79801158579313,41.64297816151762L65.11933466218802,41.29039341983176L66.19041158350431,40.03850308483135L66.29751927563595,42.20374771658558L66.72595004416246,41.42800471291653L66.94016542842571,43.662172849463474L67.15438081268897,40.18653304724526L67.36859619695224,40.80972033168774L67.79702696547875,41.70398159188818L68.76099619466342,40.918197065291054L68.86810388679504,40.326454362036486L68.97521157892668,39.12609165408017L69.0823192710583,42.91066150206217L69.29653465532157,42.2723883615775L69.72496542384808,44.23147534185529L70.79604234516438,38.993901840510546L70.903150037296,44.39477973351191L71.01025772942764,40.192850249462936L71.11736542155926,41.74542055270405L71.33158080582253,43.07853879383157L71.43868849795415,46.82987261522064L71.76001157434904,43.61950816284417L71.86711926648067,40.844512087185024L71.97422695861229,42.380770808580536L72.18844234287556,42.156368699953106L72.50976541927044,43.04501990743785L72.93819618779696,40.86681086814738L73.68795003271836,40.31777999481224L74.00927310911325,43.92716533950443L74.11638080124489,38.286092332331464L74.33059618550814,45.94272999334012L74.54481156977141,43.4755325242416L74.86613464616629,46.81186387457029L76.04431925961421,42.980622159457795L76.36564233600909,41.43498192133603L76.47275002814074,41.549210137555434L76.57985772027236,45.75641967121916L76.79407310453561,42.986845075075195L77.00828848879888,43.63152970437778L77.1153961809305,44.632004819775204L77.32961156519376,44.884787195082026L77.86515002585192,45.674201755789284L77.97225771798354,43.43767645423574L78.61490387077332,42.019370269770036L78.82911925503659,41.453226378487045L78.93622694716821,42.4518157618792L79.04333463929983,46.348539520874795L79.15044233143146,39.1476361422404L79.25755002356308,42.58739989305829L79.36465771569473,41.967229779824265L79.47176540782635,43.97265862413161L79.57887309995797,43.46289811980628L79.68598079208961,42.771258763572405L79.79308848422124,37.214336547134735L80.0073038684845,43.426314918903984L80.32862694487939,728.1754097110073L80.43573463701101,44.2015393462716L80.54284232914264,46.3483980909744L80.75705771340591,48.64097677638466L81.18548848193241,46.65501811503174L81.39970386619568,38.57376074973581L81.61391925045893,43.35003705929071L82.04235001898545,43.88940355609884L82.14945771111708,40.47160858314237L82.25656540324871,41.97811988215469L82.47078078751197,43.92447817139691L82.8992115560385,45.34764011577619L83.22053463243338,43.51334145094734L83.54185770882826,43.03540267421096L83.75607309309153,42.85668242341126L83.86318078522315,37.41535557889679L83.97028847735479,42.11441116283578L84.07739616948642,43.36036144201958L84.18450386161804,41.54435437764187L84.29161155374968,39.48914220839529L84.50582693801293,45.92519268569109L84.61293463014457,43.96412568680776L85.14847309080271,39.829375405446626L85.25558078293433,42.2559353498315L85.46979616719759,37.595442985400325L85.68401155146086,729.2220440101462L86.00533462785575,41.883927568491316L86.219550012119,37.06192225780856L86.43376539638226,44.64803354182004L86.86219616490877,40.86398227013947L87.07641154917204,43.46978104162554L87.18351924130366,42.608331518316845L87.61195000983018,43.69734175136179L88.0403807783567,43.631859707478725L88.14748847048833,44.38412534768213L88.3617038547516,41.48353952047182L88.68302693114647,44.11951000404221L89.111457699673,41.9333808903296L89.64699616033114,40.31462139370342L90.39675000525254,43.39892466152742L90.50385769738418,44.11705855243537L90.71807308164743,43.05397713446291L90.82518077377907,41.803972531467764L90.93228846591069,42.45143861547814L91.03939615804232,731.0466841913607L91.14650385017394,41.61620076704273L91.25361154230559,41.122704701262876L91.46782692656883,46.26905591685255L92.00336538722698,40.86233225463485L92.11047307935861,36.714334705936665L92.32468846362188,43.74486219789466L92.86022692428003,43.090654621965456L93.07444230854327,42.1776774716127L93.18155000067492,41.31302220389503L93.28865769280654,43.68913881713888L93.60998076920143,37.14843021355043L93.71708846133306,37.84935679991028L93.82419615346468,45.9123225647551L93.9313038455963,42.95436334128436L94.03841153772794,42.20473772588835L94.25262692199121,40.09729078009573L94.35973461412283,43.042568455831L94.46684230625445,42.97557782634368L94.68105769051772,45.87597508035347L94.78816538264935,45.8945495406054L94.89527307478097,41.83734998796109L95.0023807669126,41.750842032219225L95.10948845904424,43.83584876714909L95.21659615117586,37.965706464635616L95.43081153543912,38.945344241374784L95.53791922757075,43.873704837154946L95.85924230396564,42.08975521686685L96.60899614888704,42.83914511576222L96.71610384101868,42.775124514183204L96.8232115331503,39.75314468913345L97.03742691741357,45.040878661818454L97.25164230167682,43.22435302113928L97.57296537807171,41.91122353926767L97.68007307020333,41.13873342330771L97.78718076233497,40.86332226393762L98.21561153086148,41.867285983544804L98.644042299388,42.392462347013236L98.75114999151963,43.47529680774096L98.9653653757829,44.80436072505714L99.07247306791453,44.236613961569645L99.17958076004615,44.32307477401142L99.28668845217777,45.58114088132908L99.39379614430942,43.027859746189876L99.92933460496756,42.6657520578774L100.57198075775733,38.72523217305934L100.7861961420206,43.354751389303885L100.89330383415222,44.00745037962889L101.00041152628386,41.59413770258104L101.10751921841548,41.90528348345106L101.32173460267875,42.151701513240056L101.64305767907362,42.0944224035799L101.75016537120526,729.2541574369047L102.07148844760015,43.87771201766614L102.17859613973177,40.556843669780676L102.2857038318634,38.987631781593024L102.49991921612666,40.08456208906014L102.71413460038993,38.916021108692775L103.35678075317969,41.13764912740467L103.6781038295746,40.42903818312331L103.78521152170622,41.992875735095964L104.1065345981011,40.572400958824176L104.21364229023274,42.01592880886042L104.32074998236436,42.81048198928207L104.53496536662762,39.492347952804266L104.64207305875925,36.72918484547819L104.74918075089089,45.08123332673131L105.28471921154903,43.350885638693086L105.71314998007554,40.64467163792625L105.82025767220718,38.8957494896361L106.03447305647043,40.87520237557084L106.24868844073369,39.48598360728647L106.46290382499694,39.89424458642799L106.57001151712858,45.2811209192902L106.67711920926021,41.1414205914152L106.78422690139183,39.407160009466054L106.89133459352345,43.96931144982224L106.9984422856551,45.599243908579695L107.21265766991836,39.410271467274754L107.42687305418163,40.99211775989775L107.64108843844487,43.45068800507215L107.96241151483977,40.66126607957267L108.17662689910301,40.02530296079445L108.28373459123465,43.01036958184096L108.39084228336628,39.924557728412736L108.8192730518928,44.3469292838781L109.14059612828768,43.0046180992249L109.35481151255095,45.46318834439927L109.67613458894583,40.32791580434059L110.10456535747234,45.65991733584934L110.42588843386724,43.528050160588435L110.74721151026212,43.127709255869064L110.85431920239375,40.29981839746202L111.06853458665701,44.810489354074264L111.28274997092028,43.92796677560665L111.49696535518353,42.00711301173578L112.03250381584168,42.92942453551464L112.24671920010493,42.50093908061655L112.35382689223657,729.4281191608475L112.46093458436819,44.69253681714446L112.56804227649982,42.261403972646804L112.88936535289471,41.3817099921871L113.53201150568448,45.86301067281721L113.74622688994775,41.398964440035314L113.85333458207937,40.89273968321987L113.960442274211,40.725710970852845L114.06754996634263,43.8852078023871L114.60308842700078,43.06203863878545L114.81730381126404,41.77578083798895L114.92441150339566,40.29387834164541L115.24573457979055,42.02780892049364L115.4599499640538,41.24211868049679L115.67416534831708,40.03902166113281L115.88838073258033,40.510407519150846L115.99548842471195,40.28576969402275L116.20970380897522,39.735183091783256L116.42391919323848,43.07500304632168L116.74524226963337,38.87000924776413L116.95945765389662,42.08438088065182L117.06656534602826,39.59026458717804L117.28078073029151,42.31755164310377L117.38788842242313,40.32405005372976L117.70921149881804,729.9679659300257L118.03053457521293,44.23708539457098L118.13764226734455,40.19327453916412L118.88739611226596,41.81189260588991L119.10161149652922,43.23137737285893L119.20871918866084,44.11653997613391L119.31582688079247,43.51829149746115L119.4229345729241,39.819993888720376L119.53004226505573,44.04907791364528L119.74425764931898,43.240098883383325L119.85136534145063,47.84340642475459L119.95847303358225,44.513203703443025L120.27979610997713,48.61231364990451L120.38690380210878,46.177833631097485L120.4940114942404,47.31568432307901L120.60111918637202,44.72520712413581L120.81533457063529,45.04031294221687L121.45798072342505,40.839326324170514L121.56508841555669,41.09734160579197L121.88641149195158,41.41702032398581L122.63616533687298,42.507397712734615L122.95748841326787,40.57923673734328L123.38591918179439,45.260707870333135L123.70724225818928,42.907220041152556L123.8143499503209,41.30335782736802L124.13567302671579,41.806848272775824L124.24278071884743,40.30316557177139L124.34988841097905,42.8941142037159L124.67121148737394,43.832171589738806L124.77831917950557,42.06014922438408L124.99253456376883,42.21143207450706L125.20674994803208,40.05835041418686L125.31385764016372,45.003588311414205L125.52807302442697,44.68551246542481L125.74228840869023,42.448987163871294L125.84939610082186,42.78087599679927L126.27782686934837,43.646379843919306L126.38493456148001,40.576266709434975L126.59914994574328,41.713975971516135L126.92047302213815,42.56142393468568L127.02758071426979,40.48033009366674L127.13468840640142,45.583215186534886L127.45601148279631,43.23651599257329L127.56311917492793,42.18517325633363L128.41998071198097,42.03431469591183L128.74130378837586,43.06147291918387L128.84841148050748,43.01918537896563L129.06262686477075,43.26197337464447L129.276842249034,40.217694768632384L129.38394994116564,44.223130977731955L129.70527301756053,51.33168063140813L129.81238070969215,40.94747305467291L130.02659609395542,43.70078321227143L130.13370378608704,44.7534931042149L130.24081147821866,48.019156647645985L130.3479191703503,46.002177694806335L130.66924224674517,41.89137620991215L131.52610378379822,42.091263802471076L131.63321147592984,43.61818815044049L131.74031916806146,43.694136006952846L131.95453455232473,40.07782059714128L132.27585762871962,39.62001200956121L132.38296532085124,41.69846582577276L132.5971807051145,45.768394069452654L132.81139608937778,40.085410668462515L132.9185037815094,43.34216412816869L133.02561147364102,43.75414942802064L133.3469345500359,41.5814561548456L133.45404224216753,42.31467590179574L133.56114993429918,43.669998637285346L134.0966883949573,40.58258391165265L134.4180114713522,41.51752983986685L134.95354993201036,40.02148435348377L135.59619608480014,46.203055296668026L135.70330377693176,40.36124611753377L135.91751916119503,43.01315103654875L136.13173454545827,41.27328040188391L136.5601653139848,47.42826252379382L136.77438069824805,42.96369771471046L136.9885960825113,41.08527292095823L137.20281146677456,43.575240604020394L137.41702685103783,39.40084280724841L137.6312422353011,42.90788004735441L137.73834992743272,44.274752891376295L137.84545761956434,40.72278808624469L138.7023191566174,43.17485255600087L138.809426848749,44.5506354837477L139.4520730015388,49.19750343444076L139.66628838580203,46.22648551683352L139.8805037700653,49.69038663731891L139.98761146219695,48.55640169594818L140.09471915432857,45.64068286939556L141.05868838351324,56.49358913604131L141.27290376777648,48.86354029630698L141.59422684417137,33.72851379208805L141.91554992056626,38.74465521271364L142.0226576126979,37.961557854224026L142.23687299696115,41.68682143064021L142.34398068909277,41.785822360917024L142.45108838122442,40.31952429691711L142.55819607335604,38.986924632091046L142.7724114576193,39.10553717522271L142.8795191497509,45.58363947623607L143.0937345340142,48.809466931055795L143.30794991827744,55.352155553249744L143.62927299467233,38.67365740271512L143.73638068680395,41.5875376405626L143.95059607106722,48.42609761438385L144.80745760812025,49.68416372170151L144.9145653002519,42.778990264794004L145.02167299238351,57.54512044548149L145.45010376091003,40.12651962617744L145.55721145304167,45.14619679431294L145.6643191451733,45.65977590594895L145.98564222156818,59.36895329768109L146.0927499136998,55.93527103258019L146.19985760583143,55.32537815877487L146.52118068222632,60.76401783518182L147.8064729878059,52.202653101343444L148.12779606420077,47.44051978182807L148.34201144846404,67.07688286923317L148.6633345248589,63.52718094250788L148.77044221699055,68.41202827226637L149.09176529338544,79.94318519790855L149.41308836978033,47.07798780381441L149.52019606191195,68.7131796735084L149.63373021557146,133.52677870403323L149.7408379077031,60.68500566416088L149.84794559983473,57.2419890256339L149.95505329196635,63.79052341704421L150.062160984098,94.00032728791362L150.16926867622962,50.18543843200314L150.59769944475616,110.50859098167226L150.91902252115105,65.86454576304335L151.1332379054143,59.29616404227757L151.34745328967756,74.12782341014825L151.45456098180918,77.91786188094557L151.5616686739408,59.077607702866445L151.66877636607245,93.78403382690884L151.77588405820404,81.37535151261302L151.8829917503357,50.162479644838925L152.84696097952036,70.89336873140442L152.95406867165198,72.6552081439307L153.16828405591522,56.22449517888889L153.70382251657338,55.870684711399605L153.81093020870503,54.95049463612666L154.13225328509992,46.92076489787479L154.4535763614948,45.40374064293306L154.7748994378897,50.92280678936487L154.98911482215294,49.00633735240626L155.2033302064162,53.25135581277573L155.31043789854783,45.59542530126902L155.5246532828111,46.85339712198643L155.6317609749427,49.41068543763686L155.9530840513376,46.84373274545942L156.06019174346923,45.124180873151374L156.16729943560088,48.251903120396776L156.48862251199574,47.88564682167271L156.5957302041274,46.55573432495413L156.80994558839063,45.466959808409825L156.91705328052228,51.958167946859845L157.0241609726539,48.952452560355596L157.23837635691717,56.967520732266465L157.3454840490488,49.25039821718866L157.88102250970692,46.45522480907309L157.98813020183857,56.65236777088525L158.2023455861018,47.3208229427934L158.63077635462835,45.3458486703712L158.73788404675997,49.413985468646075L158.9520994310232,41.04887829325645L159.38053019954975,46.37522262874941L159.594745583813,45.050024462044036L159.80896096807626,44.965449381607556L160.02317635233953,43.786725448411744L160.13028404447115,45.94197570053802L160.2373917366028,46.26641589204516L160.5587148129977,42.4759531315467L160.88003788939255,45.19442439034779L160.98714558152417,46.432360308509175L161.20136096578744,43.583867827944516L161.3084686579191,46.87847735765655L161.4155763500507,48.38418722056667L161.62979173431398,43.200639941172994L162.05822250284047,72.3085163147613L162.27243788710373,58.66071949980079L162.37954557923536,85.12225386378971L162.70086865563027,98.01264641883245L163.02219173202516,46.78466219039424L163.12929942415676,47.63423160206972L163.66483788481492,67.27002896987322L163.77194557694656,53.647548107083495L163.87905326907818,49.69024520741851L163.9861609612098,40.913812738378795L164.20037634547305,79.04298388189149L164.41459172973634,52.67243608715701L164.52169942186794,66.06023760189055L164.73591480613123,72.56346728187417L164.84302249826285,103.61558049619876L164.95013019039447,114.7162248050372L165.27145326678936,44.95771788038593L165.59277634318423,50.5393903293928L165.80699172744752,57.892990857154146L166.1283148038424,88.99295452111254L166.23542249597403,47.341754568051925L166.34253018810566,48.096235943361535L166.44963788023728,48.92114940906805L166.87806864876381,730.5548145694353L167.30649941729033,102.61496395090094L167.52071480155357,107.01828961311305L167.62782249368522,106.40457813199706L168.0562532622117,69.46379529820719L168.16336095434335,45.243547709085135L168.48468403073824,52.83423189320939L168.80600710713313,97.00585410121735L169.0202224913964,99.51185050632435L169.3415455677913,105.27243177933147L169.98419172058107,105.37510988701857L170.0912994127127,129.11996443761137L170.30551479697593,118.26597387506263L170.41262248910758,136.78862364015367L170.51973018123923,185.6882945616817L170.73394556550247,156.74329829004878L170.8410532576341,171.62733386436594L171.16237633402898,177.1802489002924L171.6979147946871,105.35149109365253L172.9832071002667,44.29672166923774L173.0903147923983,43.70469610618238L173.19742248452994,39.64424366582898L173.7329609451881,45.67231602378402L174.054284021583,43.995853127796465L174.16139171371458,51.53882829218732L174.37560709797788,100.44439212623182L174.48271479010947,81.91669802802666L174.58982248224112,45.410670708052436L174.69693017437274,45.35207158598857L175.2324686350309,51.91489039733884L175.33957632716252,59.413503716305655L175.55379171142576,45.51193451673558L175.6608994035574,43.454129465981765L175.76800709568906,44.80256927965212L175.9822224799523,57.243167608137185L176.19643786421557,82.90996021850391L176.68163570957182,67.1870096183411L176.78874340170347,62.83921876368427L177.0029587859667,48.070542844789685L177.11006647809836,44.466013260011096L177.64560493875652,61.28924134195039L177.7527126308881,58.891957386947354L178.074035707283,35.41044531089088L178.2882510915463,37.80834212879563L178.50246647580954,41.02535378649068L178.82378955220443,34.9465552375938L178.93089724433605,39.15121903305044L179.3593280128626,38.99262897140699L179.78775878138907,51.685868245298465L180.00197416565234,45.03941721951438L180.2161895499156,75.63655044426679L180.965943394837,51.1313216058479L181.07305108696863,70.35598225320184L181.18015877910028,72.73101457054264L181.2872664712319,43.00867242303622L181.50148185549517,38.9566114901063L181.6085895476268,33.03654443275323L181.7156972397584,34.21262834114168L181.82280493189006,34.10990309015443L181.92991262402165,36.48663256629999L182.0370203161533,39.37543256847735L182.14412800828495,39.73042161846993L182.25123570041657,29.514279906704644L182.3583433925482,41.84173431487335L182.67966646894308,48.390975855785655L182.89388185320635,38.25379917174115L183.59757939051113,109.12427511660158L184.02601015903767,36.20480991811198L184.77576400395907,29.890483441756544L184.9899793882223,33.8715937079881L185.52551784888047,36.700144572597L185.63262554101212,39.34606229249522L186.0610563095386,33.5457863607771L186.2752716938019,36.02698539001477L186.38237938593352,32.5158466827973L186.59659477019676,31.749485195854504L186.81081015446003,35.750537078041816L186.91791784659165,36.20132131390224L187.56056399938143,33.14700118496205L187.66767169151308,31.390913255051885L187.7747793836447,32.16637339892014L188.31031784430283,29.0243667317348L188.41742553643448,31.935041225173336L189.38139476561912,33.18386724566514L189.48850245775077,33.32638144196363L189.80982553414566,33.83614194628899L189.91693322627728,27.649149523589585L190.0240409184089,29.79181251458067L190.23825630267217,35.33760891218722L190.4524716869354,31.25169908976261L190.55957937906706,35.46593297514602L191.20222553185684,35.23766511590776L191.52354860825173,31.59758948282979L192.0590870689099,36.434680649554736L192.16619476104148,33.14436116015469L192.59462552956802,33.38851631153739L192.70173322169964,32.47582202098539L193.02305629809453,33.10612794374779L193.13016399022618,36.49233690561596L193.23727168235777,35.60741001884159L193.45148706662107,32.33033779677862L193.55859475875266,34.69150998388068L193.6657024508843,33.84566489291561L193.77281014301593,35.41096388719231L194.20124091154247,31.176411239452136L194.4154562958057,32.00226757116127L194.52256398793736,34.5220769632069L194.62967168006895,31.9486184956113L194.84388706433225,32.461443314445205L195.0581024485955,33.85980788295515L195.27231783285873,29.1356249200459L195.486533217122,36.79923978947406L195.59364090925365,33.61437986246892L195.70074860138524,30.812134959333548L195.91496398564854,33.01466994149206L196.02207167778013,32.06888105424753L196.2362870620434,33.83194619257725L196.34339475417502,32.17113487223344L196.45050244630667,33.01655567349735L196.66471783056994,31.678675959056505L196.77182552270156,33.81346601892557L197.09314859909642,32.871118592590676L197.4144716754913,33.11385944496939L197.52157936762296,34.040461009060266L197.84290244401785,35.8776825584973L197.95001013614947,34.468050741255865L198.05711782828112,31.624366877304652L198.16422552041274,27.871713043511875L198.4855485968076,37.83450666036876L198.91397936533414,31.548419020792295L199.1281947495974,31.383700330131717L199.23530244172903,33.07105332844969L199.34241013386065,34.53607852334605L199.66373321025554,30.812323532534094L199.7708409023872,33.55776075901059L199.98505628665043,33.23860061711818L200.41348705517694,33.99935205134531L200.5205947473086,34.058564036310884L200.6277024394402,32.650817951074714L200.73481013157183,33.17736147024698L200.94902551583507,32.87517291640202L201.3774562843616,31.63134408572415L201.48456397649323,33.637527222833626L201.6987793607565,32.455691831829114L201.80588705288812,36.36519142516042L201.91299474501977,32.392896956053534L202.02010243715142,32.7047498864255L202.23431782141466,33.30328122489905L202.55564089780955,28.386659310851712L202.66274858994117,33.74708825233998L202.7698562820728,36.187178323862696L202.87696397420441,34.68424991566036L202.98407166633606,32.2703243757108L203.30539474273095,34.036830974950135L203.4125024348626,32.27211582111579L203.84093320338908,32.25919855687971L203.94804089552073,32.796490748482L204.2693639719156,33.308796991014475L204.37647166404724,33.98775479951291L204.80490243257375,34.317003607633524L205.12622550896864,33.07529622546156L205.34044089323191,38.65649724146715L205.66176396962678,30.630916113626853L205.76887166175842,36.819699981731276L205.87597935389007,35.81988487253571L205.98308704602167,31.584955078394444L206.09019473815331,33.880079502011824L206.30441012241656,32.06430815413478L206.4115178145482,35.51755488879036L206.51862550667983,30.59117431161576L206.83994858307472,33.477145715785184L206.94705627520636,728.6746012767343L207.26837935160125,33.74694682243958L207.37548704373285,31.90628381209291L207.69681012012776,33.46092842053983L207.911025504391,32.88054725261702L208.01813319652265,33.91920844112124L208.12524088865425,32.91689473701868L208.2323485807859,33.719980854764174L208.9821024257073,36.14946368375723L209.08921011783895,35.591664156597574L209.41053319423384,33.79003579876007L209.94607165489197,37.432515740144765L210.37450242341848,35.11471538916399L210.58871780768175,33.20253599251734L210.80293319194502,35.19566043549031L211.01714857620826,36.68274869484836L211.1242562683399,34.642103805342515L211.33847165260315,30.60366728615068L211.76690242112966,31.974217307582848L211.8740101132613,32.88644016513351L211.98111780539293,34.41369451620386L212.1953331896562,35.81003192280815L212.30244088178782,36.07658014175345L212.40954857391944,732.5078200639961L212.83797934244595,33.24628497503966L213.05219472670922,33.45753410293034L213.2664101109725,35.06780780553282L213.48062549523573,33.342033017607406L213.58773318736738,32.55968995191989L213.80194857163062,32.12017296479095L214.23037934015713,30.69653958741037L214.44459472442043,37.24059536530814L214.55170241655202,32.87281575139542L214.8730254929469,33.7331809788011L215.1943485693418,32.41090569670388L215.6227793378683,31.67490449504595L215.8369947221316,28.936868766690168L215.9441024142632,32.84650978992187L216.2654254906581,34.444714807690616L216.6938562591846,32.851884126136895L216.9080716434479,31.152179583184363L217.0151793355795,34.27334891171145L217.33650241197438,30.6116816471731L217.44361010410603,35.30229858038848L217.76493318050092,32.94414356449485L217.87204087263254,34.04677821127794L217.9791485647642,33.91260837910278L218.19336394902743,33.24718069774218L218.30047164115908,31.70469906072927L218.62179471755394,35.70028232010128L218.72890240968556,33.174391442338674L218.94311779394883,32.919581905126165L219.1573331782121,34.614100685064216L219.26444087034372,33.01490565799273L219.37154856247537,32.29087885456829L220.12130240739677,35.776465893114306L220.2284100995284,33.2668865971973L220.33551779166,35.039097535752546L220.44262548379166,35.439674156972615L221.19237932871306,34.03697240485053L221.29948702084468,36.34741840101074L221.4065947129763,37.554428314285644L221.51370240510795,33.63323718252164L221.7279177893712,30.513670726199052L222.04924086576608,34.61428925826476L222.37056394216097,31.300115258998005L222.79899471068748,32.28833311636117L222.90610240281913,34.24096146452089L223.12031778708237,729.6570264010937L223.44164086347726,33.354950281843514L223.5487485556089,34.55012722678535L224.40561009266196,29.315618039949157L224.72693316905682,32.61885479358534L224.83404086118844,35.34336039480331L224.9411485533201,32.15925476060022L225.0482562454517,33.72922094159003L225.15536393758333,37.11868279116726L225.47668701397822,32.12526444120519L225.58379470610984,30.81015494072804L225.6909023982415,33.33430151638578L225.7980100903731,30.834480883596058L226.22644085889962,30.202572088629182L226.33354855103127,33.2575522237712L226.4406562431629,34.3316651739745L226.76197931955778,30.667263598028512L226.97619470382102,33.34948165902824L227.08330239595267,30.30270445810916L227.1904100880843,31.731287882003613L227.40462547234756,31.20733724433859L227.6188408566108,30.908307291602483L227.83305624087407,31.175751233250253L227.94016393300572,34.15883783569126L228.47570239366385,729.0908029554918L228.6899177779271,33.348727366226115L228.79702547005874,32.56619572733808L229.011240854322,30.02635043273642L229.3325639307169,36.03080399732545L229.54677931498014,37.273689962000674L229.6538870071118,32.98892969962009L229.76099469924338,34.68057273825008L230.18942546776992,31.67358448264227L230.29653315990154,38.19175858876767L230.4036408520332,34.5664859519311L230.83207162055967,33.02343859531658L231.15339469695456,36.32587391285051L231.36761008121783,34.35665112304437L231.90314854187596,35.06130203011463L232.3315793104025,30.97124359727843L232.43868700253412,30.88204847342905L232.54579469466577,31.699607584315032L232.6529023867974,30.987932325525122L233.93819469237695,729.9232210452881L234.1524100766402,38.41172922718275L234.36662546090344,34.64766671475806L234.58084084516673,34.02014224670344L234.68794853729833,32.673069588736894L234.79505622942997,32.085192636093154L234.90216392156162,33.75307545145671L235.00927161369324,27.89024036046368L235.33059469008813,32.79356786387382L235.43770238221975,34.55022151338562L235.54481007435137,37.03033624672025L235.65191776648302,34.463053551441874L235.86613315074626,35.37857644000178L235.9732408428779,35.53796793774745L236.08034853500953,32.640729284846486L236.29456391927278,35.68760077236581L236.50877930353604,31.19102566249296L236.83010237993096,34.44721340259758L237.15142545632582,29.636239624145674L237.3656408405891,36.44538217868464L237.47274853272071,34.56761739113426L238.00828699337885,36.704246039708465L238.22250237764214,35.191653254979116L238.32961006977374,35.49426609852526L238.543825454037,32.79290785767199L238.8651485304319,33.934624300264346L238.97225622256352,31.612958198672743L239.29357929895843,728.5142757523547L239.40068699109003,33.41053223269893L239.50779468322168,34.26415596818575L239.6149023753533,30.961814937252086L240.0433331438798,32.83363966898588L240.25754852814308,35.3235130654478L240.36465622027472,37.30579454939044L241.22151775732775,31.882287872325833L241.32862544945937,34.22875134978676L241.5428408337226,34.29074478946009L242.0783792943808,38.16714978609886L242.61391775503893,33.967294607255695L242.72102544717055,33.183772959064896L242.8281331393022,30.34442627872582L243.04234852356544,32.811388031323645L243.14945621569709,36.58271061196865L243.36367159996033,34.68160989085297L243.57788698422357,36.484746834294725L243.8992100606185,34.450372003706406L244.0063177527501,32.65015794487283L244.43474852127662,35.47564449497318L244.97028698193478,34.478139407484065L245.18450236619802,33.97389466927413L245.8271485189878,31.737605084221286L245.93425621111945,33.23086911589658L246.04136390325107,35.06823209523401L246.1484715953827,37.207830771716516L246.2555792875143,34.23690714070955L246.5769023639092,32.75448606806455L246.79111774817247,37.517090820581245L247.00533313243574,34.885221804122295L247.11244082456736,34.45263488211276L247.43376390096225,34.70720870282457L247.6479792852255,34.64592241265319L247.86219466948876,36.94406400747903L247.96930236162038,34.726678885778995L248.07641005375203,32.339153593903234L248.39773313014692,33.13248104852147L248.82616389867343,35.18189459185183L248.93327159080505,33.602264034335036L249.04037928293667,33.04059875656458L249.4688100514632,32.521645308713516L249.57591774359483,35.83388643267486L249.7901331278581,31.244580451442744L249.89724081998972,36.932278182446055L250.11145620425296,33.930711406353396L250.2185638963846,34.4544734708179L250.32567158851626,32.861737075864454L250.5398869727795,30.54007097427285L250.64699466491115,33.30139549289376L250.75410235704274,38.19656720538114L250.8612100491744,36.13367067821309L251.18253312556928,35.705609513016185L251.39674850983255,32.7274258137889L251.50385620196414,30.17395610544915L252.03939466262233,34.7561434483614L252.14650235475392,33.60240546423543L252.25361004688557,34.373575567791676L252.68204081541208,31.74698660094751L252.89625619967532,34.658698246988905L253.11047158393862,33.067187577838894L253.5389023524651,33.72049943106563L254.2886561973865,35.12282403678665L254.6099792737814,33.80135019079171L254.82419465804466,32.2175710228633L255.03841004230793,32.27258725411713L255.14551773443955,31.11003347286652L255.3597331187028,34.73846471081194L255.5739485029661,33.28451819144658L255.78816388722933,37.341199167789455L255.89527157936098,37.30282452148214L256.0023792714926,33.2744766685185L256.10948696362425,33.35353598283956L256.3237023478875,33.14450259005508L256.43081004001914,34.04597677517569L256.752133116414,34.07822279246585L256.8592408085456,32.63337493002592L257.1805638849405,33.958431666830904L257.5018869613354,34.958152489426226L257.93031772986194,30.609701628567535L258.5729638826517,31.219217355971807L258.6800715747833,34.37065268318352L259.0013946511782,35.051024790685915L259.10850234330985,32.06256385202988L259.3227177275731,37.17115328421397L259.53693311183633,33.73798959541452L259.644040803968,31.766126780801017L259.8582561882312,32.38785262293942L259.9653638803629,35.09764951451626L260.1795792646261,30.063876499641367L260.28668695675776,33.294512571074534L260.3937946488894,36.66389137479561L260.500902341021,32.58472304428989L260.7151177252843,33.59387252691158L260.92933310954754,34.53075133043117L261.0364408016792,35.73785553030635L261.4648715702057,32.48275208610477L261.5719792623373,32.788334957559215L261.78619464660056,33.214133244349796L262.10751772299545,34.335719497785846L262.3217331072587,36.58761351518234L262.6430561836536,34.08006138117099L263.22250879808576,54.83900073131491" fill="none"></path></g></g></g></g></g></g><g transform="translate(51, 177)" clip-path="url(#clip_1)"><clipPath id="clip_1"><rect width="278" height="22"></rect></clipPath><g><g><line x1="0" y1="0" x2="0" y2="5" style="visibility: inherit;" fill="rgb(0, 0, 0)" stroke="rgb(204, 204, 204)" stroke-width="1px"></line><line x1="21.421538426325874" y1="0" x2="21.421538426325874" y2="5" style="visibility: inherit;" fill="rgb(0, 0, 0)" stroke="rgb(204, 204, 204)" stroke-width="1px"></line><line x1="42.84307685265175" y1="0" x2="42.84307685265175" y2="5" style="visibility: inherit;" fill="rgb(0, 0, 0)" stroke="rgb(204, 204, 204)" stroke-width="1px"></line><line x1="64.26461527897762" y1="0" x2="64.26461527897762" y2="5" style="visibility: inherit;" fill="rgb(0, 0, 0)" stroke="rgb(204, 204, 204)" stroke-width="1px"></line><line x1="85.6861537053035" y1="0" x2="85.6861537053035" y2="5" style="visibility: inherit;" fill="rgb(0, 0, 0)" stroke="rgb(204, 204, 204)" stroke-width="1px"></line><line x1="107.10769213162936" y1="0" x2="107.10769213162936" y2="5" style="visibility: inherit;" fill="rgb(0, 0, 0)" stroke="rgb(204, 204, 204)" stroke-width="1px"></line><line x1="128.52923055795523" y1="0" x2="128.52923055795523" y2="5" style="visibility: inherit;" fill="rgb(0, 0, 0)" stroke="rgb(204, 204, 204)" stroke-width="1px"></line><line x1="149.9507689842811" y1="0" x2="149.9507689842811" y2="5" style="visibility: inherit;" fill="rgb(0, 0, 0)" stroke="rgb(204, 204, 204)" stroke-width="1px"></line><line x1="171.372307410607" y1="0" x2="171.372307410607" y2="5" style="visibility: inherit;" fill="rgb(0, 0, 0)" stroke="rgb(204, 204, 204)" stroke-width="1px"></line><line x1="192.79384583693283" y1="0" x2="192.79384583693283" y2="5" style="visibility: inherit;" fill="rgb(0, 0, 0)" stroke="rgb(204, 204, 204)" stroke-width="1px"></line><line x1="214.21538426325873" y1="0" x2="214.21538426325873" y2="5" style="visibility: inherit;" fill="rgb(0, 0, 0)" stroke="rgb(204, 204, 204)" stroke-width="1px"></line><line x1="235.6369226895846" y1="0" x2="235.6369226895846" y2="5" style="visibility: inherit;" fill="rgb(0, 0, 0)" stroke="rgb(204, 204, 204)" stroke-width="1px"></line><line x1="257.05846111591046" y1="0" x2="257.05846111591046" y2="5" style="visibility: inherit;" fill="rgb(0, 0, 0)" stroke="rgb(204, 204, 204)" stroke-width="1px"></line><line x1="278.4799995422363" y1="0" x2="278.4799995422363" y2="5" style="visibility: inherit;" fill="rgb(0, 0, 0)" stroke="rgb(204, 204, 204)" stroke-width="1px"></line></g><g transform="translate(0, 8)"><text style="text-anchor: middle; visibility: hidden; font-family: &quot;Helvetica Neue&quot;, sans-serif; font-size: 12px; font-weight: 200;" x="0" y="0" dx="0em" dy="0.95em" fill="rgb(50, 49, 63)" stroke="none" stroke-width="1px">-20k</text><text style="text-anchor: middle; visibility: inherit; font-family: &quot;Helvetica Neue&quot;, sans-serif; font-size: 12px; font-weight: 200;" x="21.421538426325874" y="0" dx="0em" dy="0.95em" fill="rgb(50, 49, 63)" stroke="none" stroke-width="1px">0</text><text style="text-anchor: middle; visibility: hidden; font-family: &quot;Helvetica Neue&quot;, sans-serif; font-size: 12px; font-weight: 200;" x="42.84307685265175" y="0" dx="0em" dy="0.95em" fill="rgb(50, 49, 63)" stroke="none" stroke-width="1px">20k</text><text style="text-anchor: middle; visibility: inherit; font-family: &quot;Helvetica Neue&quot;, sans-serif; font-size: 12px; font-weight: 200;" x="64.26461527897762" y="0" dx="0em" dy="0.95em" fill="rgb(50, 49, 63)" stroke="none" stroke-width="1px">40k</text><text style="text-anchor: middle; visibility: hidden; font-family: &quot;Helvetica Neue&quot;, sans-serif; font-size: 12px; font-weight: 200;" x="85.6861537053035" y="0" dx="0em" dy="0.95em" fill="rgb(50, 49, 63)" stroke="none" stroke-width="1px">60k</text><text style="text-anchor: middle; visibility: inherit; font-family: &quot;Helvetica Neue&quot;, sans-serif; font-size: 12px; font-weight: 200;" x="107.10769213162936" y="0" dx="0em" dy="0.95em" fill="rgb(50, 49, 63)" stroke="none" stroke-width="1px">80k</text><text style="text-anchor: middle; visibility: hidden; font-family: &quot;Helvetica Neue&quot;, sans-serif; font-size: 12px; font-weight: 200;" x="128.52923055795523" y="0" dx="0em" dy="0.95em" fill="rgb(50, 49, 63)" stroke="none" stroke-width="1px">100k</text><text style="text-anchor: middle; visibility: inherit; font-family: &quot;Helvetica Neue&quot;, sans-serif; font-size: 12px; font-weight: 200;" x="149.9507689842811" y="0" dx="0em" dy="0.95em" fill="rgb(50, 49, 63)" stroke="none" stroke-width="1px">120k</text><text style="text-anchor: middle; visibility: hidden; font-family: &quot;Helvetica Neue&quot;, sans-serif; font-size: 12px; font-weight: 200;" x="171.372307410607" y="0" dx="0em" dy="0.95em" fill="rgb(50, 49, 63)" stroke="none" stroke-width="1px">140k</text><text style="text-anchor: middle; visibility: inherit; font-family: &quot;Helvetica Neue&quot;, sans-serif; font-size: 12px; font-weight: 200;" x="192.79384583693283" y="0" dx="0em" dy="0.95em" fill="rgb(50, 49, 63)" stroke="none" stroke-width="1px">160k</text><text style="text-anchor: middle; visibility: hidden; font-family: &quot;Helvetica Neue&quot;, sans-serif; font-size: 12px; font-weight: 200;" x="214.21538426325873" y="0" dx="0em" dy="0.95em" fill="rgb(50, 49, 63)" stroke="none" stroke-width="1px">180k</text><text style="text-anchor: middle; visibility: inherit; font-family: &quot;Helvetica Neue&quot;, sans-serif; font-size: 12px; font-weight: 200;" x="235.6369226895846" y="0" dx="0em" dy="0.95em" fill="rgb(50, 49, 63)" stroke="none" stroke-width="1px">200k</text><text style="text-anchor: middle; visibility: hidden; font-family: &quot;Helvetica Neue&quot;, sans-serif; font-size: 12px; font-weight: 200;" x="257.05846111591046" y="0" dx="0em" dy="0.95em" fill="rgb(50, 49, 63)" stroke="none" stroke-width="1px">220k</text><text style="text-anchor: middle; visibility: hidden; font-family: &quot;Helvetica Neue&quot;, sans-serif; font-size: 12px; font-weight: 200;" x="278.4799995422363" y="0" dx="0em" dy="0.95em" fill="rgb(50, 49, 63)" stroke="none" stroke-width="1px">240k</text></g><line x1="0" y1="0" x2="278.4799995422363" y2="0" fill="rgb(0, 0, 0)" stroke="rgb(204, 204, 204)" stroke-width="1px"></line></g></g></g></g></svg>