<svg viewBox="0 0 330 200" xmlns="http://www.w3.org/2000/svg"><g><g><g><g><g><line x1="51.52000045776367" y1="172.46909562025806" x2="46.52000045776367" y2="172.46909562025806" style="visibility: inherit;" fill="rgb(0, 0, 0)" stroke="rgb(204, 204, 204)" stroke-width="1px"></line><line x1="51.52000045776367" y1="149.91228559593787" x2="46.52000045776367" y2="149.91228559593787" style="visibility: inherit;" fill="rgb(0, 0, 0)" stroke="rgb(204, 204, 204)" stroke-width="1px"></line><line x1="51.52000045776367" y1="127.35547557161772" x2="46.52000045776367" y2="127.35547557161772" style="visibility: inherit;" fill="rgb(0, 0, 0)" stroke="rgb(204, 204, 204)" stroke-width="1px"></line><line x1="51.52000045776367" y1="104.79866554729756" x2="46.52000045776367" y2="104.79866554729756" style="visibility: inherit;" fill="rgb(0, 0, 0)" stroke="rgb(204, 204, 204)" stroke-width="1px"></line><line x1="51.52000045776367" y1="82.24185552297739" x2="46.52000045776367" y2="82.24185552297739" style="visibility: inherit;" fill="rgb(0, 0, 0)" stroke="rgb(204, 204, 204)" stroke-width="1px"></line><line x1="51.52000045776367" y1="59.68504549865722" x2="46.52000045776367" y2="59.68504549865722" style="visibility: inherit;" fill="rgb(0, 0, 0)" stroke="rgb(204, 204, 204)" stroke-width="1px"></line><line x1="51.52000045776367" y1="37.12823547433709" x2="46.52000045776367" y2="37.12823547433709" style="visibility: inherit;" fill="rgb(0, 0, 0)" stroke="rgb(204, 204, 204)" stroke-width="1px"></line><line x1="51.52000045776367" y1="14.571425450016903" x2="46.52000045776367" y2="14.571425450016903" style="visibility: inherit;" fill="rgb(0, 0, 0)" stroke="rgb(204, 204, 204)" stroke-width="1px"></line></g><g transform="translate(41.52000045776367, 0)"><text style="text-anchor: end; visibility: hidden; font-family: &quot;Helvetica Neue&quot;, sans-serif; font-size: 12px; font-weight: 200;" x="0" y="172.46909562025806" dx="0em" dy="0.3em" fill="rgb(50, 49, 63)" stroke="none" stroke-width="1px">0</text><text style="text-anchor: end; visibility: inherit; font-family: &quot;Helvetica Neue&quot;, sans-serif; font-size: 12px; font-weight: 200;" x="0" y="149.91228559593787" dx="0em" dy="0.3em" fill="rgb(50, 49, 63)" stroke="none" stroke-width="1px">0.05</text><text style="text-anchor: end; visibility: hidden; font-family: &quot;Helvetica Neue&quot;, sans-serif; font-size: 12px; font-weight: 200;" x="0" y="127.35547557161772" dx="0em" dy="0.3em" fill="rgb(50, 49, 63)" stroke="none" stroke-width="1px">0.1</text><text style="text-anchor: end; visibility: inherit; font-family: &quot;Helvetica Neue&quot;, sans-serif; font-size: 12px; font-weight: 200;" x="0" y="104.79866554729756" dx="0em" dy="0.3em" fill="rgb(50, 49, 63)" stroke="none" stroke-width="1px">0.15</text><text style="text-anchor: end; visibility: hidden; font-family: &quot;Helvetica Neue&quot;, sans-serif; font-size: 12px; font-weight: 200;" x="0" y="82.24185552297739" dx="0em" dy="0.3em" fill="rgb(50, 49, 63)" stroke="none" stroke-width="1px">0.2</text><text style="text-anchor: end; visibility: inherit; font-family: &quot;Helvetica Neue&quot;, sans-serif; font-size: 12px; font-weight: 200;" x="0" y="59.68504549865722" dx="0em" dy="0.3em" fill="rgb(50, 49, 63)" stroke="none" stroke-width="1px">0.25</text><text style="text-anchor: end; visibility: hidden; font-family: &quot;Helvetica Neue&quot;, sans-serif; font-size: 12px; font-weight: 200;" x="0" y="37.12823547433709" dx="0em" dy="0.3em" fill="rgb(50, 49, 63)" stroke="none" stroke-width="1px">0.3</text><text style="text-anchor: end; visibility: inherit; font-family: &quot;Helvetica Neue&quot;, sans-serif; font-size: 12px; font-weight: 200;" x="0" y="14.571425450016903" dx="0em" dy="0.3em" fill="rgb(50, 49, 63)" stroke="none" stroke-width="1px">0.35</text></g><line x1="51.52000045776367" y1="0" x2="51.52000045776367" y2="177.95999908447266" fill="rgb(0, 0, 0)" stroke="rgb(204, 204, 204)" stroke-width="1px"></line></g></g><g transform="translate(51, 0)" clip-path="url(#clip_0)"><clipPath id="clip_0"><rect width="278" height="177"></rect></clipPath><g><g><g><line x1="16.028794244734556" y1="0" x2="16.028794244734556" y2="177.95999908447266" fill="rgb(0, 0, 0)" stroke="rgb(60, 60, 60)" stroke-width="1px" opacity="0.25"></line><line x1="47.03398017410583" y1="0" x2="47.03398017410583" y2="177.95999908447266" fill="rgb(0, 0, 0)" stroke="rgb(60, 60, 60)" stroke-width="1px" opacity="0.25"></line><line x1="78.0391661034771" y1="0" x2="78.0391661034771" y2="177.95999908447266" fill="rgb(0, 0, 0)" stroke="rgb(60, 60, 60)" stroke-width="1px" opacity="0.25"></line><line x1="109.04435203284837" y1="0" x2="109.04435203284837" y2="177.95999908447266" fill="rgb(0, 0, 0)" stroke="rgb(60, 60, 60)" stroke-width="1px" opacity="0.25"></line><line x1="140.04953796221966" y1="0" x2="140.04953796221966" y2="177.95999908447266" fill="rgb(0, 0, 0)" stroke="rgb(60, 60, 60)" stroke-width="1px" opacity="0.25"></line><line x1="171.05472389159092" y1="0" x2="171.05472389159092" y2="177.95999908447266" fill="rgb(0, 0, 0)" stroke="rgb(60, 60, 60)" stroke-width="1px" opacity="0.25"></line><line x1="202.0599098209622" y1="0" x2="202.0599098209622" y2="177.95999908447266" fill="rgb(0, 0, 0)" stroke="rgb(60, 60, 60)" stroke-width="1px" opacity="0.25"></line><line x1="233.06509575033346" y1="0" x2="233.06509575033346" y2="177.95999908447266" fill="rgb(0, 0, 0)" stroke="rgb(60, 60, 60)" stroke-width="1px" opacity="0.25"></line><line x1="264.07028167970475" y1="0" x2="264.07028167970475" y2="177.95999908447266" fill="rgb(0, 0, 0)" stroke="rgb(60, 60, 60)" stroke-width="1px" opacity="0.25"></line></g><g><line x1="0" y1="172.46909562025806" x2="278.4799995422363" y2="172.46909562025806" fill="rgb(0, 0, 0)" stroke="rgb(60, 60, 60)" stroke-width="1px" opacity="0.25"></line><line x1="0" y1="149.91228559593787" x2="278.4799995422363" y2="149.91228559593787" fill="rgb(0, 0, 0)" stroke="rgb(60, 60, 60)" stroke-width="1px" opacity="0.25"></line><line x1="0" y1="127.35547557161772" x2="278.4799995422363" y2="127.35547557161772" fill="rgb(0, 0, 0)" stroke="rgb(60, 60, 60)" stroke-width="1px" opacity="0.25"></line><line x1="0" y1="104.79866554729756" x2="278.4799995422363" y2="104.79866554729756" fill="rgb(0, 0, 0)" stroke="rgb(60, 60, 60)" stroke-width="1px" opacity="0.25"></line><line x1="0" y1="82.24185552297739" x2="278.4799995422363" y2="82.24185552297739" fill="rgb(0, 0, 0)" stroke="rgb(60, 60, 60)" stroke-width="1px" opacity="0.25"></line><line x1="0" y1="59.68504549865722" x2="278.4799995422363" y2="59.68504549865722" fill="rgb(0, 0, 0)" stroke="rgb(60, 60, 60)" stroke-width="1px" opacity="0.25"></line><line x1="0" y1="37.12823547433709" x2="278.4799995422363" y2="37.12823547433709" fill="rgb(0, 0, 0)" stroke="rgb(60, 60, 60)" stroke-width="1px" opacity="0.25"></line><line x1="0" y1="14.571425450016903" x2="278.4799995422363" y2="14.571425450016903" fill="rgb(0, 0, 0)" stroke="rgb(60, 60, 60)" stroke-width="1px" opacity="0.25"></line></g></g></g><g><g><line x1="0" y1="172.46909562025806" x2="278.4799995422363" y2="172.46909562025806" fill="rgb(0, 0, 0)" stroke="rgb(153, 153, 153)" stroke-width="1.5px"></line></g></g><g><g><line x1="78.0391661034771" y1="0" x2="78.0391661034771" y2="177.95999908447266" fill="rgb(0, 0, 0)" stroke="rgb(153, 153, 153)" stroke-width="1.5px"></line></g></g><g><g><g><g><g><path style="fill: none;" stroke="rgb(0, 119, 187)" stroke-width="2px" d="M83.44647052955945,172.46909562025806L88.80416665815481,172.2415448451367L92.73562423399909,172.27102594974153L96.67948388421512,172.36205061450096L100.64814768317464,172.37619013820952L109.9745076107295,171.34591142500466L113.9245682981314,171.41900593678895L117.91803624583443,171.332709185698L121.90530315635158,170.66740225105568L125.90497214124048,169.25257577057118L129.89223905175763,166.91209711455437L133.85470181353128,164.86346880614389L137.83576768686254,161.1079389018205L141.80443148582205,158.26988051183523L145.7482911360381,159.11007155769056L149.6921507862541,157.06406370209902L158.96270137913615,154.02586073808354L162.88795791779452,142.1070728715378L166.86282275393995,133.31335123548985L170.83148655289946,124.23148851499077L174.78154724030136,116.38547339140794L178.75641207644674,109.49179583730947L182.72507587540625,105.25756869779134L186.69994071155168,95.44980003724663L190.67480554769705,90.94600742943865L194.6186651979131,78.53490913708447L198.57492692250085,74.33334579622665L202.51258553553103,64.45131972148495L206.45024414856113,55.37241695875426L210.40030483596306,48.36206369359985L214.33796344899318,37.87135303288102L218.27562206202336,32.39594827174153L222.21328067505348,27.125952369578556L226.15093928808366,22.95737783546886L230.06379375237032,19.90819728173281L233.97664821665697,18.17315289699502L237.90810579250126,17.344044894975724L241.82096025678788,16.70809755971095L245.76481990700393,16.389639551257062L249.69007644566233,16.283493532053512L253.60913194713484,16.04534481389848L257.55299159735085,15.977704035794005L261.4782481360093,15.913730809619494L265.3973036374818,15.802029109855425L269.29155499021084,15.856980281678062L273.19200738012574,15.879851171013826L277.1296659931559,15.794726752113434L281.0363194202567,15.83907866906415" fill="none"></path></g></g></g></g><g opacity="0.2"><g><g><g><path style="fill: none;" stroke="rgb(0, 119, 187)" stroke-width="2px" d="M83.44647052955945,172.46909562025806L88.80416665815481,172.10501438006392L92.73562423399909,172.29932781016217L96.67948388421512,172.46909562025806L100.64814768317464,172.3946507003634L109.9745076107295,169.92066506430555L113.9245682981314,171.52353225815267L117.91803624583443,171.20688769415858L121.90530315635158,169.68620375167725L125.90497214124048,167.15172333658904L129.89223905175763,163.42260709968L133.85470181353128,161.80167488831506L137.83576768686254,155.48690650207246L141.80443148582205,154.01835297869204L145.7482911360381,160.3693705134387L149.6921507862541,153.99649492196974L158.96270137913615,149.46984195773277L162.88795791779452,124.23191725066738L166.86282275393995,120.12410841640042L170.83148655289946,110.6095245524681L174.78154724030136,104.61688100014992L178.75641207644674,99.15150634555812L182.72507587540625,98.90631158594275L186.69994071155168,80.7382632287995L190.67480554769705,84.19035052875702L194.6186651979131,59.91831462621805L198.57492692250085,68.03101153558899L202.51258553553103,49.62829578061019L206.45024414856113,41.754071177610825L210.40030483596306,37.84653767038395L214.33796344899318,22.135290520636545L218.27562206202336,24.182842219454614L222.21328067505348,19.220959145465798L226.15093928808366,16.704516332890734L230.06379375237032,15.334426582172682L233.97664821665697,15.570586364628355L237.90810579250126,16.10038290477442L241.82096025678788,15.754176562717277L245.76481990700393,15.911952540349915L249.69007644566233,16.124274503602976L253.60913194713484,15.688121737143433L257.55299159735085,15.87624286871872L261.4782481360093,15.81777097040387L265.3973036374818,15.634476560257667L269.29155499021084,15.939407039397707L273.19200738012574,15.91415750501389L277.1296659931559,15.66704012377079L281.0363194202567,15.905606544487739" fill="none"></path></g></g></g></g></g></g><g transform="translate(51, 177)" clip-path="url(#clip_1)"><clipPath id="clip_1"><rect width="278" height="22"></rect></clipPath><g><g><line x1="16.028794244734556" y1="0" x2="16.028794244734556" y2="5" style="visibility: inherit;" fill="rgb(0, 0, 0)" stroke="rgb(204, 204, 204)" stroke-width="1px"></line><line x1="47.03398017410583" y1="0" x2="47.03398017410583" y2="5" style="visibility: inherit;" fill="rgb(0, 0, 0)" stroke="rgb(204, 204, 204)" stroke-width="1px"></line><line x1="78.0391661034771" y1="0" x2="78.0391661034771" y2="5" style="visibility: inherit;" fill="rgb(0, 0, 0)" stroke="rgb(204, 204, 204)" stroke-width="1px"></line><line x1="109.04435203284837" y1="0" x2="109.04435203284837" y2="5" style="visibility: inherit;" fill="rgb(0, 0, 0)" stroke="rgb(204, 204, 204)" stroke-width="1px"></line><line x1="140.04953796221966" y1="0" x2="140.04953796221966" y2="5" style="visibility: inherit;" fill="rgb(0, 0, 0)" stroke="rgb(204, 204, 204)" stroke-width="1px"></line><line x1="171.05472389159092" y1="0" x2="171.05472389159092" y2="5" style="visibility: inherit;" fill="rgb(0, 0, 0)" stroke="rgb(204, 204, 204)" stroke-width="1px"></line><line x1="202.0599098209622" y1="0" x2="202.0599098209622" y2="5" style="visibility: inherit;" fill="rgb(0, 0, 0)" stroke="rgb(204, 204, 204)" stroke-width="1px"></line><line x1="233.06509575033346" y1="0" x2="233.06509575033346" y2="5" style="visibility: inherit;" fill="rgb(0, 0, 0)" stroke="rgb(204, 204, 204)" stroke-width="1px"></line><line x1="264.07028167970475" y1="0" x2="264.07028167970475" y2="5" style="visibility: inherit;" fill="rgb(0, 0, 0)" stroke="rgb(204, 204, 204)" stroke-width="1px"></line></g><g transform="translate(0, 8)"><text style="text-anchor: middle; visibility: inherit; font-family: &quot;Helvetica Neue&quot;, sans-serif; font-size: 12px; font-weight: 200;" x="16.028794244734556" y="0" dx="0em" dy="0.95em" fill="rgb(50, 49, 63)" stroke="none" stroke-width="1px">-10k</text><text style="text-anchor: middle; visibility: inherit; font-family: &quot;Helvetica Neue&quot;, sans-serif; font-size: 12px; font-weight: 200;" x="47.03398017410583" y="0" dx="0em" dy="0.95em" fill="rgb(50, 49, 63)" stroke="none" stroke-width="1px">-5k</text><text style="text-anchor: middle; visibility: inherit; font-family: &quot;Helvetica Neue&quot;, sans-serif; font-size: 12px; font-weight: 200;" x="78.0391661034771" y="0" dx="0em" dy="0.95em" fill="rgb(50, 49, 63)" stroke="none" stroke-width="1px">0</text><text style="text-anchor: middle; visibility: inherit; font-family: &quot;Helvetica Neue&quot;, sans-serif; font-size: 12px; font-weight: 200;" x="109.04435203284837" y="0" dx="0em" dy="0.95em" fill="rgb(50, 49, 63)" stroke="none" stroke-width="1px">5k</text><text style="text-anchor: middle; visibility: inherit; font-family: &quot;Helvetica Neue&quot;, sans-serif; font-size: 12px; font-weight: 200;" x="140.04953796221966" y="0" dx="0em" dy="0.95em" fill="rgb(50, 49, 63)" stroke="none" stroke-width="1px">10k</text><text style="text-anchor: middle; visibility: inherit; font-family: &quot;Helvetica Neue&quot;, sans-serif; font-size: 12px; font-weight: 200;" x="171.05472389159092" y="0" dx="0em" dy="0.95em" fill="rgb(50, 49, 63)" stroke="none" stroke-width="1px">15k</text><text style="text-anchor: middle; visibility: inherit; font-family: &quot;Helvetica Neue&quot;, sans-serif; font-size: 12px; font-weight: 200;" x="202.0599098209622" y="0" dx="0em" dy="0.95em" fill="rgb(50, 49, 63)" stroke="none" stroke-width="1px">20k</text><text style="text-anchor: middle; visibility: inherit; font-family: &quot;Helvetica Neue&quot;, sans-serif; font-size: 12px; font-weight: 200;" x="233.06509575033346" y="0" dx="0em" dy="0.95em" fill="rgb(50, 49, 63)" stroke="none" stroke-width="1px">25k</text><text style="text-anchor: middle; visibility: inherit; font-family: &quot;Helvetica Neue&quot;, sans-serif; font-size: 12px; font-weight: 200;" x="264.07028167970475" y="0" dx="0em" dy="0.95em" fill="rgb(50, 49, 63)" stroke="none" stroke-width="1px">30k</text></g><line x1="0" y1="0" x2="278.4799995422363" y2="0" fill="rgb(0, 0, 0)" stroke="rgb(204, 204, 204)" stroke-width="1px"></line></g></g></g></g></svg>