<svg viewBox="0 0 330 200" xmlns="http://www.w3.org/2000/svg"><g><g><g><g><g><line x1="51.52000045776367" y1="158.52592848305528" x2="46.52000045776367" y2="158.52592848305528" style="visibility: inherit;" fill="rgb(0, 0, 0)" stroke="rgb(204, 204, 204)" stroke-width="1px"></line><line x1="51.52000045776367" y1="139.09185788163794" x2="46.52000045776367" y2="139.09185788163794" style="visibility: inherit;" fill="rgb(0, 0, 0)" stroke="rgb(204, 204, 204)" stroke-width="1px"></line><line x1="51.52000045776367" y1="119.65778728022056" x2="46.52000045776367" y2="119.65778728022056" style="visibility: inherit;" fill="rgb(0, 0, 0)" stroke="rgb(204, 204, 204)" stroke-width="1px"></line><line x1="51.52000045776367" y1="100.2237166788032" x2="46.52000045776367" y2="100.2237166788032" style="visibility: inherit;" fill="rgb(0, 0, 0)" stroke="rgb(204, 204, 204)" stroke-width="1px"></line><line x1="51.52000045776367" y1="80.78964607738581" x2="46.52000045776367" y2="80.78964607738581" style="visibility: inherit;" fill="rgb(0, 0, 0)" stroke="rgb(204, 204, 204)" stroke-width="1px"></line><line x1="51.52000045776367" y1="61.355575475968465" x2="46.52000045776367" y2="61.355575475968465" style="visibility: inherit;" fill="rgb(0, 0, 0)" stroke="rgb(204, 204, 204)" stroke-width="1px"></line><line x1="51.52000045776367" y1="41.92150487455109" x2="46.52000045776367" y2="41.92150487455109" style="visibility: inherit;" fill="rgb(0, 0, 0)" stroke="rgb(204, 204, 204)" stroke-width="1px"></line><line x1="51.52000045776367" y1="22.487434273133744" x2="46.52000045776367" y2="22.487434273133744" style="visibility: inherit;" fill="rgb(0, 0, 0)" stroke="rgb(204, 204, 204)" stroke-width="1px"></line><line x1="51.52000045776367" y1="3.0533636717163404" x2="46.52000045776367" y2="3.0533636717163404" style="visibility: inherit;" fill="rgb(0, 0, 0)" stroke="rgb(204, 204, 204)" stroke-width="1px"></line></g><g transform="translate(41.52000045776367, 0)"><text style="text-anchor: end; visibility: inherit; font-family: &quot;Helvetica Neue&quot;, sans-serif; font-size: 12px; font-weight: 200;" x="0" y="158.52592848305528" dx="0em" dy="0.3em" fill="rgb(50, 49, 63)" stroke="none" stroke-width="1px">0</text><text style="text-anchor: end; visibility: hidden; font-family: &quot;Helvetica Neue&quot;, sans-serif; font-size: 12px; font-weight: 200;" x="0" y="139.09185788163794" dx="0em" dy="0.3em" fill="rgb(50, 49, 63)" stroke="none" stroke-width="1px">0.05</text><text style="text-anchor: end; visibility: inherit; font-family: &quot;Helvetica Neue&quot;, sans-serif; font-size: 12px; font-weight: 200;" x="0" y="119.65778728022056" dx="0em" dy="0.3em" fill="rgb(50, 49, 63)" stroke="none" stroke-width="1px">0.1</text><text style="text-anchor: end; visibility: hidden; font-family: &quot;Helvetica Neue&quot;, sans-serif; font-size: 12px; font-weight: 200;" x="0" y="100.2237166788032" dx="0em" dy="0.3em" fill="rgb(50, 49, 63)" stroke="none" stroke-width="1px">0.15</text><text style="text-anchor: end; visibility: inherit; font-family: &quot;Helvetica Neue&quot;, sans-serif; font-size: 12px; font-weight: 200;" x="0" y="80.78964607738581" dx="0em" dy="0.3em" fill="rgb(50, 49, 63)" stroke="none" stroke-width="1px">0.2</text><text style="text-anchor: end; visibility: hidden; font-family: &quot;Helvetica Neue&quot;, sans-serif; font-size: 12px; font-weight: 200;" x="0" y="61.355575475968465" dx="0em" dy="0.3em" fill="rgb(50, 49, 63)" stroke="none" stroke-width="1px">0.25</text><text style="text-anchor: end; visibility: inherit; font-family: &quot;Helvetica Neue&quot;, sans-serif; font-size: 12px; font-weight: 200;" x="0" y="41.92150487455109" dx="0em" dy="0.3em" fill="rgb(50, 49, 63)" stroke="none" stroke-width="1px">0.3</text><text style="text-anchor: end; visibility: hidden; font-family: &quot;Helvetica Neue&quot;, sans-serif; font-size: 12px; font-weight: 200;" x="0" y="22.487434273133744" dx="0em" dy="0.3em" fill="rgb(50, 49, 63)" stroke="none" stroke-width="1px">0.35</text><text style="text-anchor: end; visibility: hidden; font-family: &quot;Helvetica Neue&quot;, sans-serif; font-size: 12px; font-weight: 200;" x="0" y="3.0533636717163404" dx="0em" dy="0.3em" fill="rgb(50, 49, 63)" stroke="none" stroke-width="1px">0.4</text></g><line x1="51.52000045776367" y1="0" x2="51.52000045776367" y2="177.95999908447266" fill="rgb(0, 0, 0)" stroke="rgb(204, 204, 204)" stroke-width="1px"></line></g></g><g transform="translate(51, 0)" clip-path="url(#clip_0)"><clipPath id="clip_0"><rect width="278" height="177"></rect></clipPath><g><g><g><line x1="19.749350042159627" y1="0" x2="19.749350042159627" y2="177.95999908447266" fill="rgb(0, 0, 0)" stroke="rgb(60, 60, 60)" stroke-width="1px" opacity="0.25"></line><line x1="46.95798259242421" y1="0" x2="46.95798259242421" y2="177.95999908447266" fill="rgb(0, 0, 0)" stroke="rgb(60, 60, 60)" stroke-width="1px" opacity="0.25"></line><line x1="74.1666151426888" y1="0" x2="74.1666151426888" y2="177.95999908447266" fill="rgb(0, 0, 0)" stroke="rgb(60, 60, 60)" stroke-width="1px" opacity="0.25"></line><line x1="101.37524769295338" y1="0" x2="101.37524769295338" y2="177.95999908447266" fill="rgb(0, 0, 0)" stroke="rgb(60, 60, 60)" stroke-width="1px" opacity="0.25"></line><line x1="128.58388024321798" y1="0" x2="128.58388024321798" y2="177.95999908447266" fill="rgb(0, 0, 0)" stroke="rgb(60, 60, 60)" stroke-width="1px" opacity="0.25"></line><line x1="155.79251279348256" y1="0" x2="155.79251279348256" y2="177.95999908447266" fill="rgb(0, 0, 0)" stroke="rgb(60, 60, 60)" stroke-width="1px" opacity="0.25"></line><line x1="183.00114534374714" y1="0" x2="183.00114534374714" y2="177.95999908447266" fill="rgb(0, 0, 0)" stroke="rgb(60, 60, 60)" stroke-width="1px" opacity="0.25"></line><line x1="210.20977789401172" y1="0" x2="210.20977789401172" y2="177.95999908447266" fill="rgb(0, 0, 0)" stroke="rgb(60, 60, 60)" stroke-width="1px" opacity="0.25"></line><line x1="237.41841044427636" y1="0" x2="237.41841044427636" y2="177.95999908447266" fill="rgb(0, 0, 0)" stroke="rgb(60, 60, 60)" stroke-width="1px" opacity="0.25"></line><line x1="264.62704299454094" y1="0" x2="264.62704299454094" y2="177.95999908447266" fill="rgb(0, 0, 0)" stroke="rgb(60, 60, 60)" stroke-width="1px" opacity="0.25"></line></g><g><line x1="0" y1="158.52592848305528" x2="278.4799995422363" y2="158.52592848305528" fill="rgb(0, 0, 0)" stroke="rgb(60, 60, 60)" stroke-width="1px" opacity="0.25"></line><line x1="0" y1="139.09185788163794" x2="278.4799995422363" y2="139.09185788163794" fill="rgb(0, 0, 0)" stroke="rgb(60, 60, 60)" stroke-width="1px" opacity="0.25"></line><line x1="0" y1="119.65778728022056" x2="278.4799995422363" y2="119.65778728022056" fill="rgb(0, 0, 0)" stroke="rgb(60, 60, 60)" stroke-width="1px" opacity="0.25"></line><line x1="0" y1="100.2237166788032" x2="278.4799995422363" y2="100.2237166788032" fill="rgb(0, 0, 0)" stroke="rgb(60, 60, 60)" stroke-width="1px" opacity="0.25"></line><line x1="0" y1="80.78964607738581" x2="278.4799995422363" y2="80.78964607738581" fill="rgb(0, 0, 0)" stroke="rgb(60, 60, 60)" stroke-width="1px" opacity="0.25"></line><line x1="0" y1="61.355575475968465" x2="278.4799995422363" y2="61.355575475968465" fill="rgb(0, 0, 0)" stroke="rgb(60, 60, 60)" stroke-width="1px" opacity="0.25"></line><line x1="0" y1="41.92150487455109" x2="278.4799995422363" y2="41.92150487455109" fill="rgb(0, 0, 0)" stroke="rgb(60, 60, 60)" stroke-width="1px" opacity="0.25"></line><line x1="0" y1="22.487434273133744" x2="278.4799995422363" y2="22.487434273133744" fill="rgb(0, 0, 0)" stroke="rgb(60, 60, 60)" stroke-width="1px" opacity="0.25"></line><line x1="0" y1="3.0533636717163404" x2="278.4799995422363" y2="3.0533636717163404" fill="rgb(0, 0, 0)" stroke="rgb(60, 60, 60)" stroke-width="1px" opacity="0.25"></line></g></g></g><g><g><line x1="0" y1="158.52592848305528" x2="278.4799995422363" y2="158.52592848305528" fill="rgb(0, 0, 0)" stroke="rgb(153, 153, 153)" stroke-width="1.5px"></line></g></g><g><g><line x1="74.1666151426888" y1="0" x2="74.1666151426888" y2="177.95999908447266" fill="rgb(0, 0, 0)" stroke="rgb(153, 153, 153)" stroke-width="1.5px"></line></g></g><g><g><g><g><g><path style="fill: none;" stroke="rgb(0, 119, 187)" stroke-width="2px" d="M78.91180065945495,158.52592848305528L83.61345236414066,158.47306456280754L87.06350697151422,158.4275528740979L90.52444503190786,158.47276225321434L94.00714999834173,158.4958218601891L102.19150666946132,157.48979871301728L105.65788645636503,157.6056858195568L109.16235832883912,157.5940718698824L112.66138847480313,156.8559623345862L116.17130207378726,155.72536467948888L119.6703322197513,153.60870904180123L123.1475954596751,152.06335453599883L126.64118387912907,148.06272808230418L130.12388884556296,145.71077997993171L133.5848269059566,146.39920107363116L137.04576496635028,144.74905047429505L145.18114609887937,142.77978043271204L148.62575897974284,132.30038808652947L152.1139056726868,123.84232478091161L155.59661063912066,116.65314578145441L159.06299042602436,109.9885720436316L162.55113711896828,104.14263580199304L166.03384208540217,100.35754772726446L169.52198877834607,91.701079669541L173.01013547128997,84.97857127814748L176.47107353168366,73.83814244317982L179.94289504509743,70.22016276345887L183.39839137898105,60.973981971419065L186.85388771286463,53.68936069292141L190.32026749976833,46.479780119989584L193.77576383365192,36.25242892919903L197.23126016753554,31.89792575837336L200.68675650141913,26.327840587824653L204.14225283530277,23.351363724821994L207.57598226314613,20.82994629415782L211.00971169098952,19.445076207704602L214.45976629836306,19.025710519428657L217.89349572620648,18.336522602789074L221.3544337866001,17.836420062141826L224.7990466674636,17.990255297673883L228.23821782181707,17.745788498200767L231.69915588221073,17.859577445061177L235.1437687630742,17.96062315901989L238.58293991742764,17.598824176947545L242.00034416574087,17.49251188804169L245.42319014056417,17.648776013371048L248.87868647444776,17.4263019697473L252.30697417578114,17.670799963900663L255.76247050966472,17.716943769573618L259.1961999375081,17.70257691978017L262.64625454488163,17.6096142378924L266.0854256992351,17.665785257138452L269.51915512707853,17.829395724066273L272.9746514609621,17.79837233258496L276.42470606833564,17.661007774261492L279.852993769669,17.80195808346491" fill="none"></path></g></g></g></g><g opacity="0.2"><g><g><g><path style="fill: none;" stroke="rgb(0, 119, 187)" stroke-width="2px" d="M78.91180065945495,158.52592848305528L83.61345236414066,158.44134621065888L87.06350697151422,158.38386165293667L90.52444503190786,158.52592848305528L94.00714999834173,158.52592848305528L102.19150666946132,156.0981065321457L105.65788645636503,157.77140623610208L109.16235832883912,157.57713861976322L112.66138847480313,155.7673941404204L116.17130207378726,154.0465589260425L119.6703322197513,150.4529234961177L123.1475954596751,149.75373252827296L126.64118387912907,142.0748511412582L130.12388884556296,142.18746553754906L133.5848269059566,147.43102350102697L137.04576496635028,142.27498838934204L145.18114609887937,139.82670869942123L148.62575897974284,116.58396028383711L152.1139056726868,111.15651832329901L155.59661063912066,105.87003440170552L159.06299042602436,99.99207693796022L162.55113711896828,95.37392380255737L166.03384208540217,94.67999034513285L169.52198877834607,78.71648012707253L173.01013547128997,74.89485647176971L176.47107353168366,57.1275466995684L179.94289504509743,64.79320250129587L183.39839137898105,47.10472497842483L186.85388771286463,42.76243548534066L190.32026749976833,35.665413245217394L193.77576383365192,20.911405534514074L197.23126016753554,25.36617186853522L200.68675650141913,17.972713496957937L204.14225283530277,18.886648643516963L207.57598226314613,17.04782025652389L211.00971169098952,17.367771113735103L214.45976629836306,18.396661993503045L217.89349572620648,17.302740734227342L221.3544337866001,17.08626625395644L224.7990466674636,18.22100815045789L228.23821782181707,17.379088299481282L231.69915588221073,18.03026086521487L235.1437687630742,18.11219172988504L238.58293991742764,17.056125703995775L242.00034416574087,17.333043454710463L245.42319014056417,17.883172201340727L248.87868647444776,17.092590904332496L252.30697417578114,18.037546955116994L255.76247050966472,17.786159478081487L259.1961999375081,17.681026645090327L262.64625454488163,17.4701702150619L266.0854256992351,17.75004178600716L269.51915512707853,18.074811424457266L272.9746514609621,17.751837245362992L276.42470606833564,17.454960936776587L279.852993769669,18.013383547269967" fill="none"></path></g></g></g></g></g></g><g transform="translate(51, 177)" clip-path="url(#clip_1)"><clipPath id="clip_1"><rect width="278" height="22"></rect></clipPath><g><g><line x1="19.749350042159627" y1="0" x2="19.749350042159627" y2="5" style="visibility: inherit;" fill="rgb(0, 0, 0)" stroke="rgb(204, 204, 204)" stroke-width="1px"></line><line x1="46.95798259242421" y1="0" x2="46.95798259242421" y2="5" style="visibility: inherit;" fill="rgb(0, 0, 0)" stroke="rgb(204, 204, 204)" stroke-width="1px"></line><line x1="74.1666151426888" y1="0" x2="74.1666151426888" y2="5" style="visibility: inherit;" fill="rgb(0, 0, 0)" stroke="rgb(204, 204, 204)" stroke-width="1px"></line><line x1="101.37524769295338" y1="0" x2="101.37524769295338" y2="5" style="visibility: inherit;" fill="rgb(0, 0, 0)" stroke="rgb(204, 204, 204)" stroke-width="1px"></line><line x1="128.58388024321798" y1="0" x2="128.58388024321798" y2="5" style="visibility: inherit;" fill="rgb(0, 0, 0)" stroke="rgb(204, 204, 204)" stroke-width="1px"></line><line x1="155.79251279348256" y1="0" x2="155.79251279348256" y2="5" style="visibility: inherit;" fill="rgb(0, 0, 0)" stroke="rgb(204, 204, 204)" stroke-width="1px"></line><line x1="183.00114534374714" y1="0" x2="183.00114534374714" y2="5" style="visibility: inherit;" fill="rgb(0, 0, 0)" stroke="rgb(204, 204, 204)" stroke-width="1px"></line><line x1="210.20977789401172" y1="0" x2="210.20977789401172" y2="5" style="visibility: inherit;" fill="rgb(0, 0, 0)" stroke="rgb(204, 204, 204)" stroke-width="1px"></line><line x1="237.41841044427636" y1="0" x2="237.41841044427636" y2="5" style="visibility: inherit;" fill="rgb(0, 0, 0)" stroke="rgb(204, 204, 204)" stroke-width="1px"></line><line x1="264.62704299454094" y1="0" x2="264.62704299454094" y2="5" style="visibility: inherit;" fill="rgb(0, 0, 0)" stroke="rgb(204, 204, 204)" stroke-width="1px"></line></g><g transform="translate(0, 8)"><text style="text-anchor: middle; visibility: inherit; font-family: &quot;Helvetica Neue&quot;, sans-serif; font-size: 12px; font-weight: 200;" x="19.749350042159627" y="0" dx="0em" dy="0.95em" fill="rgb(50, 49, 63)" stroke="none" stroke-width="1px">-10k</text><text style="text-anchor: middle; visibility: hidden; font-family: &quot;Helvetica Neue&quot;, sans-serif; font-size: 12px; font-weight: 200;" x="46.95798259242421" y="0" dx="0em" dy="0.95em" fill="rgb(50, 49, 63)" stroke="none" stroke-width="1px">-5k</text><text style="text-anchor: middle; visibility: inherit; font-family: &quot;Helvetica Neue&quot;, sans-serif; font-size: 12px; font-weight: 200;" x="74.1666151426888" y="0" dx="0em" dy="0.95em" fill="rgb(50, 49, 63)" stroke="none" stroke-width="1px">0</text><text style="text-anchor: middle; visibility: hidden; font-family: &quot;Helvetica Neue&quot;, sans-serif; font-size: 12px; font-weight: 200;" x="101.37524769295338" y="0" dx="0em" dy="0.95em" fill="rgb(50, 49, 63)" stroke="none" stroke-width="1px">5k</text><text style="text-anchor: middle; visibility: inherit; font-family: &quot;Helvetica Neue&quot;, sans-serif; font-size: 12px; font-weight: 200;" x="128.58388024321798" y="0" dx="0em" dy="0.95em" fill="rgb(50, 49, 63)" stroke="none" stroke-width="1px">10k</text><text style="text-anchor: middle; visibility: hidden; font-family: &quot;Helvetica Neue&quot;, sans-serif; font-size: 12px; font-weight: 200;" x="155.79251279348256" y="0" dx="0em" dy="0.95em" fill="rgb(50, 49, 63)" stroke="none" stroke-width="1px">15k</text><text style="text-anchor: middle; visibility: inherit; font-family: &quot;Helvetica Neue&quot;, sans-serif; font-size: 12px; font-weight: 200;" x="183.00114534374714" y="0" dx="0em" dy="0.95em" fill="rgb(50, 49, 63)" stroke="none" stroke-width="1px">20k</text><text style="text-anchor: middle; visibility: hidden; font-family: &quot;Helvetica Neue&quot;, sans-serif; font-size: 12px; font-weight: 200;" x="210.20977789401172" y="0" dx="0em" dy="0.95em" fill="rgb(50, 49, 63)" stroke="none" stroke-width="1px">25k</text><text style="text-anchor: middle; visibility: inherit; font-family: &quot;Helvetica Neue&quot;, sans-serif; font-size: 12px; font-weight: 200;" x="237.41841044427636" y="0" dx="0em" dy="0.95em" fill="rgb(50, 49, 63)" stroke="none" stroke-width="1px">30k</text><text style="text-anchor: middle; visibility: hidden; font-family: &quot;Helvetica Neue&quot;, sans-serif; font-size: 12px; font-weight: 200;" x="264.62704299454094" y="0" dx="0em" dy="0.95em" fill="rgb(50, 49, 63)" stroke="none" stroke-width="1px">35k</text></g><line x1="0" y1="0" x2="278.4799995422363" y2="0" fill="rgb(0, 0, 0)" stroke="rgb(204, 204, 204)" stroke-width="1px"></line></g></g></g></g></svg>