<svg viewBox="0 0 330 200" xmlns="http://www.w3.org/2000/svg"><g><g><g><g><g><line x1="61.90000057220459" y1="177.95999908447263" x2="56.90000057220459" y2="177.95999908447263" style="visibility: inherit;" fill="rgb(0, 0, 0)" stroke="rgb(204, 204, 204)" stroke-width="1px"></line><line x1="61.90000057220459" y1="160.42445526032125" x2="56.90000057220459" y2="160.42445526032125" style="visibility: inherit;" fill="rgb(0, 0, 0)" stroke="rgb(204, 204, 204)" stroke-width="1px"></line><line x1="61.90000057220459" y1="142.88891143616988" x2="56.90000057220459" y2="142.88891143616988" style="visibility: inherit;" fill="rgb(0, 0, 0)" stroke="rgb(204, 204, 204)" stroke-width="1px"></line><line x1="61.90000057220459" y1="125.3533676120185" x2="56.90000057220459" y2="125.3533676120185" style="visibility: inherit;" fill="rgb(0, 0, 0)" stroke="rgb(204, 204, 204)" stroke-width="1px"></line><line x1="61.90000057220459" y1="107.81782378786713" x2="56.90000057220459" y2="107.81782378786713" style="visibility: inherit;" fill="rgb(0, 0, 0)" stroke="rgb(204, 204, 204)" stroke-width="1px"></line><line x1="61.90000057220459" y1="90.28227996371574" x2="56.90000057220459" y2="90.28227996371574" style="visibility: inherit;" fill="rgb(0, 0, 0)" stroke="rgb(204, 204, 204)" stroke-width="1px"></line><line x1="61.90000057220459" y1="72.74673613956436" x2="56.90000057220459" y2="72.74673613956436" style="visibility: inherit;" fill="rgb(0, 0, 0)" stroke="rgb(204, 204, 204)" stroke-width="1px"></line><line x1="61.90000057220459" y1="55.21119231541297" x2="56.90000057220459" y2="55.21119231541297" style="visibility: inherit;" fill="rgb(0, 0, 0)" stroke="rgb(204, 204, 204)" stroke-width="1px"></line><line x1="61.90000057220459" y1="37.675648491261626" x2="56.90000057220459" y2="37.675648491261626" style="visibility: inherit;" fill="rgb(0, 0, 0)" stroke="rgb(204, 204, 204)" stroke-width="1px"></line><line x1="61.90000057220459" y1="20.140104667110222" x2="56.90000057220459" y2="20.140104667110222" style="visibility: inherit;" fill="rgb(0, 0, 0)" stroke="rgb(204, 204, 204)" stroke-width="1px"></line><line x1="61.90000057220459" y1="2.6045608429588754" x2="56.90000057220459" y2="2.6045608429588754" style="visibility: inherit;" fill="rgb(0, 0, 0)" stroke="rgb(204, 204, 204)" stroke-width="1px"></line></g><g transform="translate(51.90000057220459, 0)"><text style="text-anchor: end; visibility: hidden; font-family: &quot;Helvetica Neue&quot;, sans-serif; font-size: 12px; font-weight: 200;" x="0" y="177.95999908447263" dx="0em" dy="0.3em" fill="rgb(50, 49, 63)" stroke="none" stroke-width="1px">-0.05</text><text style="text-anchor: end; visibility: inherit; font-family: &quot;Helvetica Neue&quot;, sans-serif; font-size: 12px; font-weight: 200;" x="0" y="160.42445526032125" dx="0em" dy="0.3em" fill="rgb(50, 49, 63)" stroke="none" stroke-width="1px">0</text><text style="text-anchor: end; visibility: hidden; font-family: &quot;Helvetica Neue&quot;, sans-serif; font-size: 12px; font-weight: 200;" x="0" y="142.88891143616988" dx="0em" dy="0.3em" fill="rgb(50, 49, 63)" stroke="none" stroke-width="1px">0.05</text><text style="text-anchor: end; visibility: inherit; font-family: &quot;Helvetica Neue&quot;, sans-serif; font-size: 12px; font-weight: 200;" x="0" y="125.3533676120185" dx="0em" dy="0.3em" fill="rgb(50, 49, 63)" stroke="none" stroke-width="1px">0.1</text><text style="text-anchor: end; visibility: hidden; font-family: &quot;Helvetica Neue&quot;, sans-serif; font-size: 12px; font-weight: 200;" x="0" y="107.81782378786713" dx="0em" dy="0.3em" fill="rgb(50, 49, 63)" stroke="none" stroke-width="1px">0.15</text><text style="text-anchor: end; visibility: inherit; font-family: &quot;Helvetica Neue&quot;, sans-serif; font-size: 12px; font-weight: 200;" x="0" y="90.28227996371574" dx="0em" dy="0.3em" fill="rgb(50, 49, 63)" stroke="none" stroke-width="1px">0.2</text><text style="text-anchor: end; visibility: hidden; font-family: &quot;Helvetica Neue&quot;, sans-serif; font-size: 12px; font-weight: 200;" x="0" y="72.74673613956436" dx="0em" dy="0.3em" fill="rgb(50, 49, 63)" stroke="none" stroke-width="1px">0.25</text><text style="text-anchor: end; visibility: inherit; font-family: &quot;Helvetica Neue&quot;, sans-serif; font-size: 12px; font-weight: 200;" x="0" y="55.21119231541297" dx="0em" dy="0.3em" fill="rgb(50, 49, 63)" stroke="none" stroke-width="1px">0.3</text><text style="text-anchor: end; visibility: hidden; font-family: &quot;Helvetica Neue&quot;, sans-serif; font-size: 12px; font-weight: 200;" x="0" y="37.675648491261626" dx="0em" dy="0.3em" fill="rgb(50, 49, 63)" stroke="none" stroke-width="1px">0.35</text><text style="text-anchor: end; visibility: inherit; font-family: &quot;Helvetica Neue&quot;, sans-serif; font-size: 12px; font-weight: 200;" x="0" y="20.140104667110222" dx="0em" dy="0.3em" fill="rgb(50, 49, 63)" stroke="none" stroke-width="1px">0.4</text><text style="text-anchor: end; visibility: hidden; font-family: &quot;Helvetica Neue&quot;, sans-serif; font-size: 12px; font-weight: 200;" x="0" y="2.6045608429588754" dx="0em" dy="0.3em" fill="rgb(50, 49, 63)" stroke="none" stroke-width="1px">0.45</text></g><line x1="61.90000057220459" y1="0" x2="61.90000057220459" y2="177.95999908447266" fill="rgb(0, 0, 0)" stroke="rgb(204, 204, 204)" stroke-width="1px"></line></g></g><g transform="translate(61, 0)" clip-path="url(#clip_0)"><clipPath id="clip_0"><rect width="268" height="177"></rect></clipPath><g><g><g><line x1="1.610311402275721" y1="0" x2="1.610311402275721" y2="177.95999908447266" fill="rgb(0, 0, 0)" stroke="rgb(60, 60, 60)" stroke-width="1px" opacity="0.25"></line><line x1="33.71649312196941" y1="0" x2="33.71649312196941" y2="177.95999908447266" fill="rgb(0, 0, 0)" stroke="rgb(60, 60, 60)" stroke-width="1px" opacity="0.25"></line><line x1="65.8226748416631" y1="0" x2="65.8226748416631" y2="177.95999908447266" fill="rgb(0, 0, 0)" stroke="rgb(60, 60, 60)" stroke-width="1px" opacity="0.25"></line><line x1="97.92885656135678" y1="0" x2="97.92885656135678" y2="177.95999908447266" fill="rgb(0, 0, 0)" stroke="rgb(60, 60, 60)" stroke-width="1px" opacity="0.25"></line><line x1="130.03503828105045" y1="0" x2="130.03503828105045" y2="177.95999908447266" fill="rgb(0, 0, 0)" stroke="rgb(60, 60, 60)" stroke-width="1px" opacity="0.25"></line><line x1="162.14122000074414" y1="0" x2="162.14122000074414" y2="177.95999908447266" fill="rgb(0, 0, 0)" stroke="rgb(60, 60, 60)" stroke-width="1px" opacity="0.25"></line><line x1="194.24740172043784" y1="0" x2="194.24740172043784" y2="177.95999908447266" fill="rgb(0, 0, 0)" stroke="rgb(60, 60, 60)" stroke-width="1px" opacity="0.25"></line><line x1="226.3535834401315" y1="0" x2="226.3535834401315" y2="177.95999908447266" fill="rgb(0, 0, 0)" stroke="rgb(60, 60, 60)" stroke-width="1px" opacity="0.25"></line><line x1="258.4597651598252" y1="0" x2="258.4597651598252" y2="177.95999908447266" fill="rgb(0, 0, 0)" stroke="rgb(60, 60, 60)" stroke-width="1px" opacity="0.25"></line></g><g><line x1="0" y1="177.95999908447263" x2="268.0999994277954" y2="177.95999908447263" fill="rgb(0, 0, 0)" stroke="rgb(60, 60, 60)" stroke-width="1px" opacity="0.25"></line><line x1="0" y1="160.42445526032125" x2="268.0999994277954" y2="160.42445526032125" fill="rgb(0, 0, 0)" stroke="rgb(60, 60, 60)" stroke-width="1px" opacity="0.25"></line><line x1="0" y1="142.88891143616988" x2="268.0999994277954" y2="142.88891143616988" fill="rgb(0, 0, 0)" stroke="rgb(60, 60, 60)" stroke-width="1px" opacity="0.25"></line><line x1="0" y1="125.3533676120185" x2="268.0999994277954" y2="125.3533676120185" fill="rgb(0, 0, 0)" stroke="rgb(60, 60, 60)" stroke-width="1px" opacity="0.25"></line><line x1="0" y1="107.81782378786713" x2="268.0999994277954" y2="107.81782378786713" fill="rgb(0, 0, 0)" stroke="rgb(60, 60, 60)" stroke-width="1px" opacity="0.25"></line><line x1="0" y1="90.28227996371574" x2="268.0999994277954" y2="90.28227996371574" fill="rgb(0, 0, 0)" stroke="rgb(60, 60, 60)" stroke-width="1px" opacity="0.25"></line><line x1="0" y1="72.74673613956436" x2="268.0999994277954" y2="72.74673613956436" fill="rgb(0, 0, 0)" stroke="rgb(60, 60, 60)" stroke-width="1px" opacity="0.25"></line><line x1="0" y1="55.21119231541297" x2="268.0999994277954" y2="55.21119231541297" fill="rgb(0, 0, 0)" stroke="rgb(60, 60, 60)" stroke-width="1px" opacity="0.25"></line><line x1="0" y1="37.675648491261626" x2="268.0999994277954" y2="37.675648491261626" fill="rgb(0, 0, 0)" stroke="rgb(60, 60, 60)" stroke-width="1px" opacity="0.25"></line><line x1="0" y1="20.140104667110222" x2="268.0999994277954" y2="20.140104667110222" fill="rgb(0, 0, 0)" stroke="rgb(60, 60, 60)" stroke-width="1px" opacity="0.25"></line><line x1="0" y1="2.6045608429588754" x2="268.0999994277954" y2="2.6045608429588754" fill="rgb(0, 0, 0)" stroke="rgb(60, 60, 60)" stroke-width="1px" opacity="0.25"></line></g></g></g><g><g><line x1="0" y1="160.42445526032125" x2="268.0999994277954" y2="160.42445526032125" fill="rgb(0, 0, 0)" stroke="rgb(153, 153, 153)" stroke-width="1.5px"></line></g></g><g><g><line x1="33.71649312196941" y1="0" x2="33.71649312196941" y2="177.95999908447266" fill="rgb(0, 0, 0)" stroke="rgb(153, 153, 153)" stroke-width="1.5px"></line></g></g><g><g><g><g><g><path style="fill: none;" stroke="rgb(0, 119, 187)" stroke-width="2px" d="M39.31581121388399,160.42445526032125L44.86375941504706,158.13446094835945L48.93482325710421,158.31745297598314L53.018729571849256,159.28574446694736L57.12832083197004,159.74713090486648L66.7858602932539,157.69534449349516L70.87618784434288,158.03397493220797L75.01146404983943,158.4925949309927L79.14031901899205,156.5943985588599L83.28201646083252,153.44553275469224L87.41087142998514,145.49439437248589L91.51404145376199,142.2616543390941L95.63647518657066,138.40544927133033L99.74606644669146,135.47604533610115L103.82997276143648,135.9185532721157L107.9138790761815,132.68732182390895L117.51362741036992,130.19248344353656L121.57827001608314,116.45422694050643L125.69428251254787,105.82409213392867L129.80387377266865,95.46069264092849L133.89420132375764,87.06939228500694L138.01021382022236,81.65617023493981L142.11980508034318,78.59389066214533L146.2358175768079,70.76574423977524L150.35183007327262,64.8846026048102L154.43573638801766,54.08530501387726L158.53248517545057,52.15786841462973L162.60997025385166,45.98150202132288L166.68745533225277,38.980360554953194L170.77778288334176,32.8568896102866L174.85526796174284,24.047313872104183L178.93275304014395,20.001406254354578L183.01023811854506,17.209459212191206L187.08772319694614,13.817646410416216L191.13952332997147,11.249360525502794L195.19132346299682,10.049533899224883L199.262387305054,9.474632237735165L203.31418743807933,8.918197140944045L207.39809375282437,8.260671133043957L211.4627363585376,8.114022586110025L215.52095772790688,8.111936344285567L219.60486404265188,8.282101557209245L223.66950664836511,8.218314924590516L227.72772801773442,7.79805584231778L231.76026444172794,7.771763902096524L235.79922210206541,7.981308743124345L239.87670718046652,8.091520701001599L243.92208607714792,8.299920480750899L247.999571155549,7.973262596042929L252.05137128857433,7.682037615522802L256.1224351306315,7.844275062265524L260.1806565000008,8.024639845636614L264.2324566330262,8.214923627912526L268.30994171142726,8.237170659939295" fill="none"></path></g></g></g></g><g opacity="0.2"><g><g><g><path style="fill: none;" stroke="rgb(0, 119, 187)" stroke-width="2px" d="M39.31581121388399,160.42445526032125L44.86375941504706,156.76046436118233L48.93482325710421,158.49312532250192L53.018729571849256,160.42445526032125L57.12832083197004,160.3495170382137L66.7858602932539,154.8569852434605L70.87618784434288,158.51822187765433L75.01146404983943,159.16126729197288L79.14031901899205,153.7949276156273L83.28201646083252,148.7698340169195L87.41087142998514,133.63980303909918L91.51404145376199,137.43013671751038L95.63647518657066,132.63373284829788L99.74606644669146,131.08767844052454L103.82997276143648,136.58179502466982L107.9138790761815,127.84275356636181L117.51362741036992,126.45128160496886L121.57827001608314,95.85033032779909L125.69428251254787,89.88050931810753L129.80387377266865,79.91654065719132L133.89420132375764,74.48290194997894L138.01021382022236,73.53651528421652L142.11980508034318,74.00053176232183L146.2358175768079,59.02361733807744L150.35183007327262,56.0629319530003L154.43573638801766,37.88640468154904L158.53248517545057,49.2667184475404L162.60997025385166,36.71696191353985L166.68745533225277,28.478654804439373L170.77778288334176,23.671686577636052L174.85526796174284,10.83295318618184L178.93275304014395,13.932545632730296L183.01023811854506,13.021538982248558L187.08772319694614,8.72992745070232L191.13952332997147,7.396931808509294L195.19132346299682,8.249793990746866L199.262387305054,8.612279754395246L203.31418743807933,8.083544500922699L207.39809375282437,7.274382124856061L211.4627363585376,7.894049766199231L215.52095772790688,8.10880698155296L219.60486404265188,8.537349376390125L223.66950664836511,8.122634975708479L227.72772801773442,7.167667219090674L231.76026444172794,7.732325991771376L235.79922210206541,8.295626004633363L239.87670718046652,8.256838637807164L243.92208607714792,8.612520150363167L247.999571155549,7.483275768991945L252.05137128857433,7.2452001447486225L256.1224351306315,8.08763123237759L260.1806565000008,8.295187020691912L264.2324566330262,8.500349301325514L268.30994171142726,8.270541207979392" fill="none"></path></g></g></g></g></g></g><g transform="translate(61, 177)" clip-path="url(#clip_1)"><clipPath id="clip_1"><rect width="268" height="22"></rect></clipPath><g><g><line x1="1.610311402275721" y1="0" x2="1.610311402275721" y2="5" style="visibility: inherit;" fill="rgb(0, 0, 0)" stroke="rgb(204, 204, 204)" stroke-width="1px"></line><line x1="33.71649312196941" y1="0" x2="33.71649312196941" y2="5" style="visibility: inherit;" fill="rgb(0, 0, 0)" stroke="rgb(204, 204, 204)" stroke-width="1px"></line><line x1="65.8226748416631" y1="0" x2="65.8226748416631" y2="5" style="visibility: inherit;" fill="rgb(0, 0, 0)" stroke="rgb(204, 204, 204)" stroke-width="1px"></line><line x1="97.92885656135678" y1="0" x2="97.92885656135678" y2="5" style="visibility: inherit;" fill="rgb(0, 0, 0)" stroke="rgb(204, 204, 204)" stroke-width="1px"></line><line x1="130.03503828105045" y1="0" x2="130.03503828105045" y2="5" style="visibility: inherit;" fill="rgb(0, 0, 0)" stroke="rgb(204, 204, 204)" stroke-width="1px"></line><line x1="162.14122000074414" y1="0" x2="162.14122000074414" y2="5" style="visibility: inherit;" fill="rgb(0, 0, 0)" stroke="rgb(204, 204, 204)" stroke-width="1px"></line><line x1="194.24740172043784" y1="0" x2="194.24740172043784" y2="5" style="visibility: inherit;" fill="rgb(0, 0, 0)" stroke="rgb(204, 204, 204)" stroke-width="1px"></line><line x1="226.3535834401315" y1="0" x2="226.3535834401315" y2="5" style="visibility: inherit;" fill="rgb(0, 0, 0)" stroke="rgb(204, 204, 204)" stroke-width="1px"></line><line x1="258.4597651598252" y1="0" x2="258.4597651598252" y2="5" style="visibility: inherit;" fill="rgb(0, 0, 0)" stroke="rgb(204, 204, 204)" stroke-width="1px"></line></g><g transform="translate(0, 8)"><text style="text-anchor: middle; visibility: hidden; font-family: &quot;Helvetica Neue&quot;, sans-serif; font-size: 12px; font-weight: 200;" x="1.610311402275721" y="0" dx="0em" dy="0.95em" fill="rgb(50, 49, 63)" stroke="none" stroke-width="1px">-5k</text><text style="text-anchor: middle; visibility: inherit; font-family: &quot;Helvetica Neue&quot;, sans-serif; font-size: 12px; font-weight: 200;" x="33.71649312196941" y="0" dx="0em" dy="0.95em" fill="rgb(50, 49, 63)" stroke="none" stroke-width="1px">0</text><text style="text-anchor: middle; visibility: inherit; font-family: &quot;Helvetica Neue&quot;, sans-serif; font-size: 12px; font-weight: 200;" x="65.8226748416631" y="0" dx="0em" dy="0.95em" fill="rgb(50, 49, 63)" stroke="none" stroke-width="1px">5k</text><text style="text-anchor: middle; visibility: inherit; font-family: &quot;Helvetica Neue&quot;, sans-serif; font-size: 12px; font-weight: 200;" x="97.92885656135678" y="0" dx="0em" dy="0.95em" fill="rgb(50, 49, 63)" stroke="none" stroke-width="1px">10k</text><text style="text-anchor: middle; visibility: inherit; font-family: &quot;Helvetica Neue&quot;, sans-serif; font-size: 12px; font-weight: 200;" x="130.03503828105045" y="0" dx="0em" dy="0.95em" fill="rgb(50, 49, 63)" stroke="none" stroke-width="1px">15k</text><text style="text-anchor: middle; visibility: inherit; font-family: &quot;Helvetica Neue&quot;, sans-serif; font-size: 12px; font-weight: 200;" x="162.14122000074414" y="0" dx="0em" dy="0.95em" fill="rgb(50, 49, 63)" stroke="none" stroke-width="1px">20k</text><text style="text-anchor: middle; visibility: inherit; font-family: &quot;Helvetica Neue&quot;, sans-serif; font-size: 12px; font-weight: 200;" x="194.24740172043784" y="0" dx="0em" dy="0.95em" fill="rgb(50, 49, 63)" stroke="none" stroke-width="1px">25k</text><text style="text-anchor: middle; visibility: inherit; font-family: &quot;Helvetica Neue&quot;, sans-serif; font-size: 12px; font-weight: 200;" x="226.3535834401315" y="0" dx="0em" dy="0.95em" fill="rgb(50, 49, 63)" stroke="none" stroke-width="1px">30k</text><text style="text-anchor: middle; visibility: hidden; font-family: &quot;Helvetica Neue&quot;, sans-serif; font-size: 12px; font-weight: 200;" x="258.4597651598252" y="0" dx="0em" dy="0.95em" fill="rgb(50, 49, 63)" stroke="none" stroke-width="1px">35k</text></g><line x1="0" y1="0" x2="268.0999994277954" y2="0" fill="rgb(0, 0, 0)" stroke="rgb(204, 204, 204)" stroke-width="1px"></line></g></g></g></g></svg>