<svg viewBox="0 0 330 200" xmlns="http://www.w3.org/2000/svg"><g><g><g><g><g><line x1="51.52000045776367" y1="175.40011179495008" x2="46.52000045776367" y2="175.40011179495008" style="visibility: inherit;" fill="rgb(0, 0, 0)" stroke="rgb(204, 204, 204)" stroke-width="1px"></line><line x1="51.52000045776367" y1="155.09898277306192" x2="46.52000045776367" y2="155.09898277306192" style="visibility: inherit;" fill="rgb(0, 0, 0)" stroke="rgb(204, 204, 204)" stroke-width="1px"></line><line x1="51.52000045776367" y1="134.79785375117376" x2="46.52000045776367" y2="134.79785375117376" style="visibility: inherit;" fill="rgb(0, 0, 0)" stroke="rgb(204, 204, 204)" stroke-width="1px"></line><line x1="51.52000045776367" y1="114.49672472928562" x2="46.52000045776367" y2="114.49672472928562" style="visibility: inherit;" fill="rgb(0, 0, 0)" stroke="rgb(204, 204, 204)" stroke-width="1px"></line><line x1="51.52000045776367" y1="94.19559570739746" x2="46.52000045776367" y2="94.19559570739746" style="visibility: inherit;" fill="rgb(0, 0, 0)" stroke="rgb(204, 204, 204)" stroke-width="1px"></line><line x1="51.52000045776367" y1="73.89446668550931" x2="46.52000045776367" y2="73.89446668550931" style="visibility: inherit;" fill="rgb(0, 0, 0)" stroke="rgb(204, 204, 204)" stroke-width="1px"></line><line x1="51.52000045776367" y1="53.593337663621156" x2="46.52000045776367" y2="53.593337663621156" style="visibility: inherit;" fill="rgb(0, 0, 0)" stroke="rgb(204, 204, 204)" stroke-width="1px"></line><line x1="51.52000045776367" y1="33.292208641733" x2="46.52000045776367" y2="33.292208641733" style="visibility: inherit;" fill="rgb(0, 0, 0)" stroke="rgb(204, 204, 204)" stroke-width="1px"></line><line x1="51.52000045776367" y1="12.991079619844896" x2="46.52000045776367" y2="12.991079619844896" style="visibility: inherit;" fill="rgb(0, 0, 0)" stroke="rgb(204, 204, 204)" stroke-width="1px"></line></g><g transform="translate(41.52000045776367, 0)"><text style="text-anchor: end; visibility: hidden; font-family: &quot;Helvetica Neue&quot;, sans-serif; font-size: 12px; font-weight: 200;" x="0" y="175.40011179495008" dx="0em" dy="0.3em" fill="rgb(50, 49, 63)" stroke="none" stroke-width="1px">-1</text><text style="text-anchor: end; visibility: inherit; font-family: &quot;Helvetica Neue&quot;, sans-serif; font-size: 12px; font-weight: 200;" x="0" y="155.09898277306192" dx="0em" dy="0.3em" fill="rgb(50, 49, 63)" stroke="none" stroke-width="1px">-0.8</text><text style="text-anchor: end; visibility: hidden; font-family: &quot;Helvetica Neue&quot;, sans-serif; font-size: 12px; font-weight: 200;" x="0" y="134.79785375117376" dx="0em" dy="0.3em" fill="rgb(50, 49, 63)" stroke="none" stroke-width="1px">-0.6</text><text style="text-anchor: end; visibility: inherit; font-family: &quot;Helvetica Neue&quot;, sans-serif; font-size: 12px; font-weight: 200;" x="0" y="114.49672472928562" dx="0em" dy="0.3em" fill="rgb(50, 49, 63)" stroke="none" stroke-width="1px">-0.4</text><text style="text-anchor: end; visibility: hidden; font-family: &quot;Helvetica Neue&quot;, sans-serif; font-size: 12px; font-weight: 200;" x="0" y="94.19559570739746" dx="0em" dy="0.3em" fill="rgb(50, 49, 63)" stroke="none" stroke-width="1px">-0.2</text><text style="text-anchor: end; visibility: inherit; font-family: &quot;Helvetica Neue&quot;, sans-serif; font-size: 12px; font-weight: 200;" x="0" y="73.89446668550931" dx="0em" dy="0.3em" fill="rgb(50, 49, 63)" stroke="none" stroke-width="1px">0</text><text style="text-anchor: end; visibility: hidden; font-family: &quot;Helvetica Neue&quot;, sans-serif; font-size: 12px; font-weight: 200;" x="0" y="53.593337663621156" dx="0em" dy="0.3em" fill="rgb(50, 49, 63)" stroke="none" stroke-width="1px">0.2</text><text style="text-anchor: end; visibility: inherit; font-family: &quot;Helvetica Neue&quot;, sans-serif; font-size: 12px; font-weight: 200;" x="0" y="33.292208641733" dx="0em" dy="0.3em" fill="rgb(50, 49, 63)" stroke="none" stroke-width="1px">0.4</text><text style="text-anchor: end; visibility: hidden; font-family: &quot;Helvetica Neue&quot;, sans-serif; font-size: 12px; font-weight: 200;" x="0" y="12.991079619844896" dx="0em" dy="0.3em" fill="rgb(50, 49, 63)" stroke="none" stroke-width="1px">0.6</text></g><line x1="51.52000045776367" y1="0" x2="51.52000045776367" y2="177.95999908447266" fill="rgb(0, 0, 0)" stroke="rgb(204, 204, 204)" stroke-width="1px"></line></g></g><g transform="translate(51, 0)" clip-path="url(#clip_0)"><clipPath id="clip_0"><rect width="278" height="177"></rect></clipPath><g><g><g><line x1="12.17914002111144" y1="0" x2="12.17914002111144" y2="177.95999908447266" fill="rgb(0, 0, 0)" stroke="rgb(60, 60, 60)" stroke-width="1px" opacity="0.25"></line><line x1="36.47460059286707" y1="0" x2="36.47460059286707" y2="177.95999908447266" fill="rgb(0, 0, 0)" stroke="rgb(60, 60, 60)" stroke-width="1px" opacity="0.25"></line><line x1="60.7700611646227" y1="0" x2="60.7700611646227" y2="177.95999908447266" fill="rgb(0, 0, 0)" stroke="rgb(60, 60, 60)" stroke-width="1px" opacity="0.25"></line><line x1="85.06552173637833" y1="0" x2="85.06552173637833" y2="177.95999908447266" fill="rgb(0, 0, 0)" stroke="rgb(60, 60, 60)" stroke-width="1px" opacity="0.25"></line><line x1="109.36098230813397" y1="0" x2="109.36098230813397" y2="177.95999908447266" fill="rgb(0, 0, 0)" stroke="rgb(60, 60, 60)" stroke-width="1px" opacity="0.25"></line><line x1="133.6564428798896" y1="0" x2="133.6564428798896" y2="177.95999908447266" fill="rgb(0, 0, 0)" stroke="rgb(60, 60, 60)" stroke-width="1px" opacity="0.25"></line><line x1="157.95190345164522" y1="0" x2="157.95190345164522" y2="177.95999908447266" fill="rgb(0, 0, 0)" stroke="rgb(60, 60, 60)" stroke-width="1px" opacity="0.25"></line><line x1="182.24736402340085" y1="0" x2="182.24736402340085" y2="177.95999908447266" fill="rgb(0, 0, 0)" stroke="rgb(60, 60, 60)" stroke-width="1px" opacity="0.25"></line><line x1="206.54282459515647" y1="0" x2="206.54282459515647" y2="177.95999908447266" fill="rgb(0, 0, 0)" stroke="rgb(60, 60, 60)" stroke-width="1px" opacity="0.25"></line><line x1="230.83828516691207" y1="0" x2="230.83828516691207" y2="177.95999908447266" fill="rgb(0, 0, 0)" stroke="rgb(60, 60, 60)" stroke-width="1px" opacity="0.25"></line><line x1="255.13374573866773" y1="0" x2="255.13374573866773" y2="177.95999908447266" fill="rgb(0, 0, 0)" stroke="rgb(60, 60, 60)" stroke-width="1px" opacity="0.25"></line></g><g><line x1="0" y1="175.40011179495008" x2="278.4799995422363" y2="175.40011179495008" fill="rgb(0, 0, 0)" stroke="rgb(60, 60, 60)" stroke-width="1px" opacity="0.25"></line><line x1="0" y1="155.09898277306192" x2="278.4799995422363" y2="155.09898277306192" fill="rgb(0, 0, 0)" stroke="rgb(60, 60, 60)" stroke-width="1px" opacity="0.25"></line><line x1="0" y1="134.79785375117376" x2="278.4799995422363" y2="134.79785375117376" fill="rgb(0, 0, 0)" stroke="rgb(60, 60, 60)" stroke-width="1px" opacity="0.25"></line><line x1="0" y1="114.49672472928562" x2="278.4799995422363" y2="114.49672472928562" fill="rgb(0, 0, 0)" stroke="rgb(60, 60, 60)" stroke-width="1px" opacity="0.25"></line><line x1="0" y1="94.19559570739746" x2="278.4799995422363" y2="94.19559570739746" fill="rgb(0, 0, 0)" stroke="rgb(60, 60, 60)" stroke-width="1px" opacity="0.25"></line><line x1="0" y1="73.89446668550931" x2="278.4799995422363" y2="73.89446668550931" fill="rgb(0, 0, 0)" stroke="rgb(60, 60, 60)" stroke-width="1px" opacity="0.25"></line><line x1="0" y1="53.593337663621156" x2="278.4799995422363" y2="53.593337663621156" fill="rgb(0, 0, 0)" stroke="rgb(60, 60, 60)" stroke-width="1px" opacity="0.25"></line><line x1="0" y1="33.292208641733" x2="278.4799995422363" y2="33.292208641733" fill="rgb(0, 0, 0)" stroke="rgb(60, 60, 60)" stroke-width="1px" opacity="0.25"></line><line x1="0" y1="12.991079619844896" x2="278.4799995422363" y2="12.991079619844896" fill="rgb(0, 0, 0)" stroke="rgb(60, 60, 60)" stroke-width="1px" opacity="0.25"></line></g></g></g><g><g><line x1="0" y1="73.89446668550931" x2="278.4799995422363" y2="73.89446668550931" fill="rgb(0, 0, 0)" stroke="rgb(153, 153, 153)" stroke-width="1.5px"></line></g></g><g><g><line x1="85.06552173637833" y1="0" x2="85.06552173637833" y2="177.95999908447266" fill="rgb(0, 0, 0)" stroke="rgb(153, 153, 153)" stroke-width="1.5px"></line></g></g><g><g><g><g><g><path style="fill: none;" stroke="rgb(0, 119, 187)" stroke-width="2px" d="M89.30265006009252,73.89446668550931L93.50090564689188,73.89446668550931L96.5815700473905,73.89446668550931L99.67195263211782,73.89446668550931L102.78177158530254,73.89446668550931L110.08984612528663,73.89446668550931L113.18508780212831,73.89446668550931L116.31434312377041,73.89446668550931L119.4387393532982,73.89446668550931L122.57285376705468,73.89446668550931L125.69724999658244,73.89446668550931L128.80220985765283,73.89446668550931L131.92174699506623,73.89446668550931L135.03156594825094,73.89446668550931L138.12194853297828,73.89446668550931L141.2123311177056,73.89446668550931L148.47667382866052,73.89446668550931L151.55247913704477,73.89446668550931L154.66715718234386,73.89446668550931L157.77697613552857,73.89446668550931L160.87221781237025,73.89446668550931L163.9868958576693,73.89446668550931L167.09671481085402,73.89446668550931L170.21139285615308,73.89446668550931L173.32607090145217,73.89446668550931L176.41645348617948,73.89446668550931L179.5165542551355,73.89446668550931L182.60207774774847,73.89446668550931L185.68760124036143,73.89446668550931L188.78284291720308,73.89446668550931L191.86836640981608,73.89446668550931L194.95388990242904,73.89446668550931L198.03941339504198,73.89446668550931L201.12493688765497,73.89446668550931L204.19102401181053,73.89446668550931L207.25711113596608,73.89446668550931L210.3377755364647,73.89446668550931L213.40386266062026,73.89446668550931L216.49424524534757,73.89446668550931L219.57005055373185,73.89446668550931L222.64099677000175,73.89446668550931L225.73137935472906,73.89446668550931L228.80718466311333,73.89446668550931L231.87813087938324,73.89446668550931L234.92964072719573,73.89446668550931L237.9860096671226,73.89446668550931L241.07153315973557,73.89446668550931L244.13276119177678,73.89446668550931L247.21828468438974,73.89446668550931L250.2843718085453,73.89446668550931L253.36503620904392,73.89446668550931L256.4359824253138,73.89446668550931L259.5020695494694,73.89446668550931L262.58759304208235,73.89446668550931L265.66825744258097,73.89446668550931L268.7294854746222,73.89446668550931L271.81014987512077,73.89446668550931L274.89567336773376,73.89446668550931L277.95204230766063,73.89446668550931L281.0278476160448,73.89446668550931" fill="none"></path></g></g></g></g><g opacity="0.2"><g><g><g><path style="fill: none;" stroke="rgb(0, 119, 187)" stroke-width="2px" d="M89.30265006009252,73.89446668550931L93.50090564689188,73.89446668550931L96.5815700473905,73.89446668550931L99.67195263211782,73.89446668550931L102.78177158530254,73.89446668550931L110.08984612528663,73.89446668550931L113.18508780212831,73.89446668550931L116.31434312377041,73.89446668550931L119.4387393532982,73.89446668550931L122.57285376705468,73.89446668550931L125.69724999658244,73.89446668550931L128.80220985765283,73.89446668550931L131.92174699506623,73.89446668550931L135.03156594825094,73.89446668550931L138.12194853297828,73.89446668550931L141.2123311177056,73.89446668550931L148.47667382866052,73.89446668550931L151.55247913704477,73.89446668550931L154.66715718234386,73.89446668550931L157.77697613552857,73.89446668550931L160.87221781237025,73.89446668550931L163.9868958576693,73.89446668550931L167.09671481085402,73.89446668550931L170.21139285615308,73.89446668550931L173.32607090145217,73.89446668550931L176.41645348617948,73.89446668550931L179.5165542551355,73.89446668550931L182.60207774774847,73.89446668550931L185.68760124036143,73.89446668550931L188.78284291720308,73.89446668550931L191.86836640981608,73.89446668550931L194.95388990242904,73.89446668550931L198.03941339504198,73.89446668550931L201.12493688765497,73.89446668550931L204.19102401181053,73.89446668550931L207.25711113596608,73.89446668550931L210.3377755364647,73.89446668550931L213.40386266062026,73.89446668550931L216.49424524534757,73.89446668550931L219.57005055373185,73.89446668550931L222.64099677000175,73.89446668550931L225.73137935472906,73.89446668550931L228.80718466311333,73.89446668550931L231.87813087938324,73.89446668550931L234.92964072719573,73.89446668550931L237.9860096671226,73.89446668550931L241.07153315973557,73.89446668550931L244.13276119177678,73.89446668550931L247.21828468438974,73.89446668550931L250.2843718085453,73.89446668550931L253.36503620904392,73.89446668550931L256.4359824253138,73.89446668550931L259.5020695494694,73.89446668550931L262.58759304208235,73.89446668550931L265.66825744258097,73.89446668550931L268.7294854746222,73.89446668550931L271.81014987512077,73.89446668550931L274.89567336773376,73.89446668550931L277.95204230766063,73.89446668550931L281.0278476160448,73.89446668550931" fill="none"></path></g></g></g></g></g></g><g transform="translate(51, 177)" clip-path="url(#clip_1)"><clipPath id="clip_1"><rect width="278" height="22"></rect></clipPath><g><g><line x1="12.17914002111144" y1="0" x2="12.17914002111144" y2="5" style="visibility: inherit;" fill="rgb(0, 0, 0)" stroke="rgb(204, 204, 204)" stroke-width="1px"></line><line x1="36.47460059286707" y1="0" x2="36.47460059286707" y2="5" style="visibility: inherit;" fill="rgb(0, 0, 0)" stroke="rgb(204, 204, 204)" stroke-width="1px"></line><line x1="60.7700611646227" y1="0" x2="60.7700611646227" y2="5" style="visibility: inherit;" fill="rgb(0, 0, 0)" stroke="rgb(204, 204, 204)" stroke-width="1px"></line><line x1="85.06552173637833" y1="0" x2="85.06552173637833" y2="5" style="visibility: inherit;" fill="rgb(0, 0, 0)" stroke="rgb(204, 204, 204)" stroke-width="1px"></line><line x1="109.36098230813397" y1="0" x2="109.36098230813397" y2="5" style="visibility: inherit;" fill="rgb(0, 0, 0)" stroke="rgb(204, 204, 204)" stroke-width="1px"></line><line x1="133.6564428798896" y1="0" x2="133.6564428798896" y2="5" style="visibility: inherit;" fill="rgb(0, 0, 0)" stroke="rgb(204, 204, 204)" stroke-width="1px"></line><line x1="157.95190345164522" y1="0" x2="157.95190345164522" y2="5" style="visibility: inherit;" fill="rgb(0, 0, 0)" stroke="rgb(204, 204, 204)" stroke-width="1px"></line><line x1="182.24736402340085" y1="0" x2="182.24736402340085" y2="5" style="visibility: inherit;" fill="rgb(0, 0, 0)" stroke="rgb(204, 204, 204)" stroke-width="1px"></line><line x1="206.54282459515647" y1="0" x2="206.54282459515647" y2="5" style="visibility: inherit;" fill="rgb(0, 0, 0)" stroke="rgb(204, 204, 204)" stroke-width="1px"></line><line x1="230.83828516691207" y1="0" x2="230.83828516691207" y2="5" style="visibility: inherit;" fill="rgb(0, 0, 0)" stroke="rgb(204, 204, 204)" stroke-width="1px"></line><line x1="255.13374573866773" y1="0" x2="255.13374573866773" y2="5" style="visibility: inherit;" fill="rgb(0, 0, 0)" stroke="rgb(204, 204, 204)" stroke-width="1px"></line></g><g transform="translate(0, 8)"><text style="text-anchor: middle; visibility: hidden; font-family: &quot;Helvetica Neue&quot;, sans-serif; font-size: 12px; font-weight: 200;" x="12.17914002111144" y="0" dx="0em" dy="0.95em" fill="rgb(50, 49, 63)" stroke="none" stroke-width="1px">-15k</text><text style="text-anchor: middle; visibility: inherit; font-family: &quot;Helvetica Neue&quot;, sans-serif; font-size: 12px; font-weight: 200;" x="36.47460059286707" y="0" dx="0em" dy="0.95em" fill="rgb(50, 49, 63)" stroke="none" stroke-width="1px">-10k</text><text style="text-anchor: middle; visibility: hidden; font-family: &quot;Helvetica Neue&quot;, sans-serif; font-size: 12px; font-weight: 200;" x="60.7700611646227" y="0" dx="0em" dy="0.95em" fill="rgb(50, 49, 63)" stroke="none" stroke-width="1px">-5k</text><text style="text-anchor: middle; visibility: inherit; font-family: &quot;Helvetica Neue&quot;, sans-serif; font-size: 12px; font-weight: 200;" x="85.06552173637833" y="0" dx="0em" dy="0.95em" fill="rgb(50, 49, 63)" stroke="none" stroke-width="1px">0</text><text style="text-anchor: middle; visibility: hidden; font-family: &quot;Helvetica Neue&quot;, sans-serif; font-size: 12px; font-weight: 200;" x="109.36098230813397" y="0" dx="0em" dy="0.95em" fill="rgb(50, 49, 63)" stroke="none" stroke-width="1px">5k</text><text style="text-anchor: middle; visibility: inherit; font-family: &quot;Helvetica Neue&quot;, sans-serif; font-size: 12px; font-weight: 200;" x="133.6564428798896" y="0" dx="0em" dy="0.95em" fill="rgb(50, 49, 63)" stroke="none" stroke-width="1px">10k</text><text style="text-anchor: middle; visibility: hidden; font-family: &quot;Helvetica Neue&quot;, sans-serif; font-size: 12px; font-weight: 200;" x="157.95190345164522" y="0" dx="0em" dy="0.95em" fill="rgb(50, 49, 63)" stroke="none" stroke-width="1px">15k</text><text style="text-anchor: middle; visibility: inherit; font-family: &quot;Helvetica Neue&quot;, sans-serif; font-size: 12px; font-weight: 200;" x="182.24736402340085" y="0" dx="0em" dy="0.95em" fill="rgb(50, 49, 63)" stroke="none" stroke-width="1px">20k</text><text style="text-anchor: middle; visibility: hidden; font-family: &quot;Helvetica Neue&quot;, sans-serif; font-size: 12px; font-weight: 200;" x="206.54282459515647" y="0" dx="0em" dy="0.95em" fill="rgb(50, 49, 63)" stroke="none" stroke-width="1px">25k</text><text style="text-anchor: middle; visibility: inherit; font-family: &quot;Helvetica Neue&quot;, sans-serif; font-size: 12px; font-weight: 200;" x="230.83828516691207" y="0" dx="0em" dy="0.95em" fill="rgb(50, 49, 63)" stroke="none" stroke-width="1px">30k</text><text style="text-anchor: middle; visibility: hidden; font-family: &quot;Helvetica Neue&quot;, sans-serif; font-size: 12px; font-weight: 200;" x="255.13374573866773" y="0" dx="0em" dy="0.95em" fill="rgb(50, 49, 63)" stroke="none" stroke-width="1px">35k</text></g><line x1="0" y1="0" x2="278.4799995422363" y2="0" fill="rgb(0, 0, 0)" stroke="rgb(204, 204, 204)" stroke-width="1px"></line></g></g></g></g></svg>