<svg viewBox="0 0 330 200" xmlns="http://www.w3.org/2000/svg"><g><g><g><g><g><line x1="51.52000045776367" y1="154.95786096879573" x2="46.52000045776367" y2="154.95786096879573" style="visibility: inherit;" fill="rgb(0, 0, 0)" stroke="rgb(204, 204, 204)" stroke-width="1px"></line><line x1="51.52000045776367" y1="131.9557228531188" x2="46.52000045776367" y2="131.9557228531188" style="visibility: inherit;" fill="rgb(0, 0, 0)" stroke="rgb(204, 204, 204)" stroke-width="1px"></line><line x1="51.52000045776367" y1="108.95358473744186" x2="46.52000045776367" y2="108.95358473744186" style="visibility: inherit;" fill="rgb(0, 0, 0)" stroke="rgb(204, 204, 204)" stroke-width="1px"></line><line x1="51.52000045776367" y1="85.95144662176493" x2="46.52000045776367" y2="85.95144662176493" style="visibility: inherit;" fill="rgb(0, 0, 0)" stroke="rgb(204, 204, 204)" stroke-width="1px"></line><line x1="51.52000045776367" y1="62.949308506087974" x2="46.52000045776367" y2="62.949308506087974" style="visibility: inherit;" fill="rgb(0, 0, 0)" stroke="rgb(204, 204, 204)" stroke-width="1px"></line><line x1="51.52000045776367" y1="39.94717039041106" x2="46.52000045776367" y2="39.94717039041106" style="visibility: inherit;" fill="rgb(0, 0, 0)" stroke="rgb(204, 204, 204)" stroke-width="1px"></line><line x1="51.52000045776367" y1="16.94503227473413" x2="46.52000045776367" y2="16.94503227473413" style="visibility: inherit;" fill="rgb(0, 0, 0)" stroke="rgb(204, 204, 204)" stroke-width="1px"></line></g><g transform="translate(41.52000045776367, 0)"><text style="text-anchor: end; visibility: inherit; font-family: &quot;Helvetica Neue&quot;, sans-serif; font-size: 12px; font-weight: 200;" x="0" y="154.95786096879573" dx="0em" dy="0.3em" fill="rgb(50, 49, 63)" stroke="none" stroke-width="1px">0</text><text style="text-anchor: end; visibility: hidden; font-family: &quot;Helvetica Neue&quot;, sans-serif; font-size: 12px; font-weight: 200;" x="0" y="131.9557228531188" dx="0em" dy="0.3em" fill="rgb(50, 49, 63)" stroke="none" stroke-width="1px">0.05</text><text style="text-anchor: end; visibility: inherit; font-family: &quot;Helvetica Neue&quot;, sans-serif; font-size: 12px; font-weight: 200;" x="0" y="108.95358473744186" dx="0em" dy="0.3em" fill="rgb(50, 49, 63)" stroke="none" stroke-width="1px">0.1</text><text style="text-anchor: end; visibility: hidden; font-family: &quot;Helvetica Neue&quot;, sans-serif; font-size: 12px; font-weight: 200;" x="0" y="85.95144662176493" dx="0em" dy="0.3em" fill="rgb(50, 49, 63)" stroke="none" stroke-width="1px">0.15</text><text style="text-anchor: end; visibility: inherit; font-family: &quot;Helvetica Neue&quot;, sans-serif; font-size: 12px; font-weight: 200;" x="0" y="62.949308506087974" dx="0em" dy="0.3em" fill="rgb(50, 49, 63)" stroke="none" stroke-width="1px">0.2</text><text style="text-anchor: end; visibility: hidden; font-family: &quot;Helvetica Neue&quot;, sans-serif; font-size: 12px; font-weight: 200;" x="0" y="39.94717039041106" dx="0em" dy="0.3em" fill="rgb(50, 49, 63)" stroke="none" stroke-width="1px">0.25</text><text style="text-anchor: end; visibility: inherit; font-family: &quot;Helvetica Neue&quot;, sans-serif; font-size: 12px; font-weight: 200;" x="0" y="16.94503227473413" dx="0em" dy="0.3em" fill="rgb(50, 49, 63)" stroke="none" stroke-width="1px">0.3</text></g><line x1="51.52000045776367" y1="0" x2="51.52000045776367" y2="177.95999908447266" fill="rgb(0, 0, 0)" stroke="rgb(204, 204, 204)" stroke-width="1px"></line></g></g><g transform="translate(51, 0)" clip-path="url(#clip_0)"><clipPath id="clip_0"><rect width="278" height="177"></rect></clipPath><g><g><g><line x1="5.203027297726592" y1="0" x2="5.203027297726592" y2="177.95999908447266" fill="rgb(0, 0, 0)" stroke="rgb(60, 60, 60)" stroke-width="1px" opacity="0.25"></line><line x1="41.759847460609436" y1="0" x2="41.759847460609436" y2="177.95999908447266" fill="rgb(0, 0, 0)" stroke="rgb(60, 60, 60)" stroke-width="1px" opacity="0.25"></line><line x1="78.3166676234923" y1="0" x2="78.3166676234923" y2="177.95999908447266" fill="rgb(0, 0, 0)" stroke="rgb(60, 60, 60)" stroke-width="1px" opacity="0.25"></line><line x1="114.87348778637514" y1="0" x2="114.87348778637514" y2="177.95999908447266" fill="rgb(0, 0, 0)" stroke="rgb(60, 60, 60)" stroke-width="1px" opacity="0.25"></line><line x1="151.43030794925798" y1="0" x2="151.43030794925798" y2="177.95999908447266" fill="rgb(0, 0, 0)" stroke="rgb(60, 60, 60)" stroke-width="1px" opacity="0.25"></line><line x1="187.98712811214082" y1="0" x2="187.98712811214082" y2="177.95999908447266" fill="rgb(0, 0, 0)" stroke="rgb(60, 60, 60)" stroke-width="1px" opacity="0.25"></line><line x1="224.54394827502367" y1="0" x2="224.54394827502367" y2="177.95999908447266" fill="rgb(0, 0, 0)" stroke="rgb(60, 60, 60)" stroke-width="1px" opacity="0.25"></line><line x1="261.1007684379065" y1="0" x2="261.1007684379065" y2="177.95999908447266" fill="rgb(0, 0, 0)" stroke="rgb(60, 60, 60)" stroke-width="1px" opacity="0.25"></line></g><g><line x1="0" y1="154.95786096879573" x2="278.4799995422363" y2="154.95786096879573" fill="rgb(0, 0, 0)" stroke="rgb(60, 60, 60)" stroke-width="1px" opacity="0.25"></line><line x1="0" y1="131.9557228531188" x2="278.4799995422363" y2="131.9557228531188" fill="rgb(0, 0, 0)" stroke="rgb(60, 60, 60)" stroke-width="1px" opacity="0.25"></line><line x1="0" y1="108.95358473744186" x2="278.4799995422363" y2="108.95358473744186" fill="rgb(0, 0, 0)" stroke="rgb(60, 60, 60)" stroke-width="1px" opacity="0.25"></line><line x1="0" y1="85.95144662176493" x2="278.4799995422363" y2="85.95144662176493" fill="rgb(0, 0, 0)" stroke="rgb(60, 60, 60)" stroke-width="1px" opacity="0.25"></line><line x1="0" y1="62.949308506087974" x2="278.4799995422363" y2="62.949308506087974" fill="rgb(0, 0, 0)" stroke="rgb(60, 60, 60)" stroke-width="1px" opacity="0.25"></line><line x1="0" y1="39.94717039041106" x2="278.4799995422363" y2="39.94717039041106" fill="rgb(0, 0, 0)" stroke="rgb(60, 60, 60)" stroke-width="1px" opacity="0.25"></line><line x1="0" y1="16.94503227473413" x2="278.4799995422363" y2="16.94503227473413" fill="rgb(0, 0, 0)" stroke="rgb(60, 60, 60)" stroke-width="1px" opacity="0.25"></line></g></g></g><g><g><line x1="0" y1="154.95786096879573" x2="278.4799995422363" y2="154.95786096879573" fill="rgb(0, 0, 0)" stroke="rgb(153, 153, 153)" stroke-width="1.5px"></line></g></g><g><g><line x1="41.759847460609436" y1="0" x2="41.759847460609436" y2="177.95999908447266" fill="rgb(0, 0, 0)" stroke="rgb(153, 153, 153)" stroke-width="1.5px"></line></g></g><g><g><g><g><g><path style="fill: none;" stroke="rgb(0, 119, 187)" stroke-width="2px" d="M48.13535689701621,154.95786096879573L54.452375421162365,154.7311475985636L59.08778021781591,154.7720226439305L63.737807742534606,154.85742628587224L68.4170807233836,154.86806127603035L79.41337222837878,153.86801742467622L84.07071111713005,153.96778860045828L88.77922955410936,153.9025291593224L93.48043662705608,153.25623356921838L98.19626642806799,151.88928274200106L102.8974735010147,149.58514038126103L107.56943511783115,147.6042785304659L112.26333082674529,143.96089886284668L116.9426038075943,141.1196212275737L121.59263133231299,141.89384708035294L126.24265885703169,140.0832642340349L137.17314808573366,137.12077451430258L141.80124151835463,125.65566283796109L146.48782586323622,117.30924136353102L151.16709884408522,108.88715169126735L155.8244377328365,101.45857242133296L160.51102207771808,94.79939976513676L165.19029505856707,90.82067079126513L169.87687940344867,81.55925527795513L174.56346374833024,77.22739085037618L179.21349127304896,65.65502095478057L183.8781415258328,61.69190867535501L188.52085768651892,52.35681670902211L193.16357384720501,43.7291181824765L197.82091273595628,37.093418686128445L202.46362889664243,27.248919159287624L207.10634505732855,22.108167830095994L211.74906121801467,17.12234493942492L216.3917773787008,13.160625217056207L221.0052480832566,10.249712701796L225.6187187878124,8.599082783286548L230.25412358446596,7.825383100679431L234.86759428902178,7.2068341918739804L239.51762181374048,6.889811344670079L244.14571524636142,6.776342651281567L248.76649731494982,6.565684839273615L253.41652483966848,6.514740910240164L258.0446182722895,6.471221021035348L262.66540034087785,6.35428629322621L267.2569369533359,6.357009638432032L271.8557849298266,6.383086444548468L276.4985010905127,6.3300327429404035L281.104660431036,6.392917053588491" fill="none"></path></g></g></g></g><g opacity="0.2"><g><g><g><path style="fill: none;" stroke="rgb(0, 119, 187)" stroke-width="2px" d="M48.13535689701621,154.95786096879573L54.452375421162365,154.59511957642437L59.08778021781591,154.81126268748272L63.737807742534606,154.95786096879573L68.4170807233836,154.88194631918077L79.41337222837878,152.48459676246694L84.07071111713005,154.11046297816543L88.77922955410936,153.8073802676557L93.48043662705608,152.30307311027036L98.19626642806799,149.8595200735005L102.8974735010147,146.14982524177802L107.56943511783115,144.64376551699036L112.26333082674529,138.5077256281736L116.9426038075943,136.86327113333556L121.59263133231299,143.05427578609516L126.24265885703169,137.36866692785944L137.17314808573366,132.67829356106895L141.80124151835463,108.46090631406146L146.48782586323622,104.79088064519081L151.16709884408522,96.25478699522782L155.8244377328365,90.3161109173733L160.51102207771808,84.81085990375523L165.19029505856707,84.85265588352068L169.87687940344867,67.66724171828622L174.56346374833024,70.72962499804608L179.21349127304896,48.296515462258554L183.8781415258328,55.747250396734785L188.52085768651892,38.35419309108781L193.16357384720501,30.787578339987846L197.82091273595628,27.139873109056538L202.46362889664243,12.482173133569546L207.10634505732855,14.397041859146015L211.74906121801467,9.64361119862545L216.3917773787008,7.218045917273059L221.0052480832566,5.883344054007324L225.6187187878124,6.123137948085571L230.25412358446596,6.664833588739185L234.86759428902178,6.2790108344078135L239.51762181374048,6.414277075629997L244.14571524636142,6.6061396115780155L248.76649731494982,6.249698121683991L253.41652483966848,6.438325016751378L258.0446182722895,6.4059411872594865L262.66540034087785,6.178884201563108L267.2569369533359,6.361094656240084L271.8557849298266,6.422201653719014L276.4985010905127,6.250452190533309L281.104660431036,6.48724351955704" fill="none"></path></g></g></g></g></g></g><g transform="translate(51, 177)" clip-path="url(#clip_1)"><clipPath id="clip_1"><rect width="278" height="22"></rect></clipPath><g><g><line x1="5.203027297726592" y1="0" x2="5.203027297726592" y2="5" style="visibility: inherit;" fill="rgb(0, 0, 0)" stroke="rgb(204, 204, 204)" stroke-width="1px"></line><line x1="41.759847460609436" y1="0" x2="41.759847460609436" y2="5" style="visibility: inherit;" fill="rgb(0, 0, 0)" stroke="rgb(204, 204, 204)" stroke-width="1px"></line><line x1="78.3166676234923" y1="0" x2="78.3166676234923" y2="5" style="visibility: inherit;" fill="rgb(0, 0, 0)" stroke="rgb(204, 204, 204)" stroke-width="1px"></line><line x1="114.87348778637514" y1="0" x2="114.87348778637514" y2="5" style="visibility: inherit;" fill="rgb(0, 0, 0)" stroke="rgb(204, 204, 204)" stroke-width="1px"></line><line x1="151.43030794925798" y1="0" x2="151.43030794925798" y2="5" style="visibility: inherit;" fill="rgb(0, 0, 0)" stroke="rgb(204, 204, 204)" stroke-width="1px"></line><line x1="187.98712811214082" y1="0" x2="187.98712811214082" y2="5" style="visibility: inherit;" fill="rgb(0, 0, 0)" stroke="rgb(204, 204, 204)" stroke-width="1px"></line><line x1="224.54394827502367" y1="0" x2="224.54394827502367" y2="5" style="visibility: inherit;" fill="rgb(0, 0, 0)" stroke="rgb(204, 204, 204)" stroke-width="1px"></line><line x1="261.1007684379065" y1="0" x2="261.1007684379065" y2="5" style="visibility: inherit;" fill="rgb(0, 0, 0)" stroke="rgb(204, 204, 204)" stroke-width="1px"></line></g><g transform="translate(0, 8)"><text style="text-anchor: middle; visibility: hidden; font-family: &quot;Helvetica Neue&quot;, sans-serif; font-size: 12px; font-weight: 200;" x="5.203027297726592" y="0" dx="0em" dy="0.95em" fill="rgb(50, 49, 63)" stroke="none" stroke-width="1px">-5k</text><text style="text-anchor: middle; visibility: inherit; font-family: &quot;Helvetica Neue&quot;, sans-serif; font-size: 12px; font-weight: 200;" x="41.759847460609436" y="0" dx="0em" dy="0.95em" fill="rgb(50, 49, 63)" stroke="none" stroke-width="1px">0</text><text style="text-anchor: middle; visibility: inherit; font-family: &quot;Helvetica Neue&quot;, sans-serif; font-size: 12px; font-weight: 200;" x="78.3166676234923" y="0" dx="0em" dy="0.95em" fill="rgb(50, 49, 63)" stroke="none" stroke-width="1px">5k</text><text style="text-anchor: middle; visibility: inherit; font-family: &quot;Helvetica Neue&quot;, sans-serif; font-size: 12px; font-weight: 200;" x="114.87348778637514" y="0" dx="0em" dy="0.95em" fill="rgb(50, 49, 63)" stroke="none" stroke-width="1px">10k</text><text style="text-anchor: middle; visibility: inherit; font-family: &quot;Helvetica Neue&quot;, sans-serif; font-size: 12px; font-weight: 200;" x="151.43030794925798" y="0" dx="0em" dy="0.95em" fill="rgb(50, 49, 63)" stroke="none" stroke-width="1px">15k</text><text style="text-anchor: middle; visibility: inherit; font-family: &quot;Helvetica Neue&quot;, sans-serif; font-size: 12px; font-weight: 200;" x="187.98712811214082" y="0" dx="0em" dy="0.95em" fill="rgb(50, 49, 63)" stroke="none" stroke-width="1px">20k</text><text style="text-anchor: middle; visibility: inherit; font-family: &quot;Helvetica Neue&quot;, sans-serif; font-size: 12px; font-weight: 200;" x="224.54394827502367" y="0" dx="0em" dy="0.95em" fill="rgb(50, 49, 63)" stroke="none" stroke-width="1px">25k</text><text style="text-anchor: middle; visibility: inherit; font-family: &quot;Helvetica Neue&quot;, sans-serif; font-size: 12px; font-weight: 200;" x="261.1007684379065" y="0" dx="0em" dy="0.95em" fill="rgb(50, 49, 63)" stroke="none" stroke-width="1px">30k</text></g><line x1="0" y1="0" x2="278.4799995422363" y2="0" fill="rgb(0, 0, 0)" stroke="rgb(204, 204, 204)" stroke-width="1px"></line></g></g></g></g></svg>