<svg viewBox="0 0 330 200" xmlns="http://www.w3.org/2000/svg"><g><g><g><g><g><line x1="51.52000045776367" y1="171.17976138954603" x2="46.52000045776367" y2="171.17976138954603" style="visibility: inherit;" fill="rgb(0, 0, 0)" stroke="rgb(204, 204, 204)" stroke-width="1px"></line><line x1="51.52000045776367" y1="151.8095414601455" x2="46.52000045776367" y2="151.8095414601455" style="visibility: inherit;" fill="rgb(0, 0, 0)" stroke="rgb(204, 204, 204)" stroke-width="1px"></line><line x1="51.52000045776367" y1="132.439321530745" x2="46.52000045776367" y2="132.439321530745" style="visibility: inherit;" fill="rgb(0, 0, 0)" stroke="rgb(204, 204, 204)" stroke-width="1px"></line><line x1="51.52000045776367" y1="113.06910160134449" x2="46.52000045776367" y2="113.06910160134449" style="visibility: inherit;" fill="rgb(0, 0, 0)" stroke="rgb(204, 204, 204)" stroke-width="1px"></line><line x1="51.52000045776367" y1="93.69888167194397" x2="46.52000045776367" y2="93.69888167194397" style="visibility: inherit;" fill="rgb(0, 0, 0)" stroke="rgb(204, 204, 204)" stroke-width="1px"></line><line x1="51.52000045776367" y1="74.32866174254346" x2="46.52000045776367" y2="74.32866174254346" style="visibility: inherit;" fill="rgb(0, 0, 0)" stroke="rgb(204, 204, 204)" stroke-width="1px"></line><line x1="51.52000045776367" y1="54.958441813142926" x2="46.52000045776367" y2="54.958441813142926" style="visibility: inherit;" fill="rgb(0, 0, 0)" stroke="rgb(204, 204, 204)" stroke-width="1px"></line><line x1="51.52000045776367" y1="35.58822188374242" x2="46.52000045776367" y2="35.58822188374242" style="visibility: inherit;" fill="rgb(0, 0, 0)" stroke="rgb(204, 204, 204)" stroke-width="1px"></line><line x1="51.52000045776367" y1="16.2180019543419" x2="46.52000045776367" y2="16.2180019543419" style="visibility: inherit;" fill="rgb(0, 0, 0)" stroke="rgb(204, 204, 204)" stroke-width="1px"></line></g><g transform="translate(41.52000045776367, 0)"><text style="text-anchor: end; visibility: inherit; font-family: &quot;Helvetica Neue&quot;, sans-serif; font-size: 12px; font-weight: 200;" x="0" y="171.17976138954603" dx="0em" dy="0.3em" fill="rgb(50, 49, 63)" stroke="none" stroke-width="1px">-0.5</text><text style="text-anchor: end; visibility: hidden; font-family: &quot;Helvetica Neue&quot;, sans-serif; font-size: 12px; font-weight: 200;" x="0" y="151.8095414601455" dx="0em" dy="0.3em" fill="rgb(50, 49, 63)" stroke="none" stroke-width="1px">0</text><text style="text-anchor: end; visibility: inherit; font-family: &quot;Helvetica Neue&quot;, sans-serif; font-size: 12px; font-weight: 200;" x="0" y="132.439321530745" dx="0em" dy="0.3em" fill="rgb(50, 49, 63)" stroke="none" stroke-width="1px">0.5</text><text style="text-anchor: end; visibility: hidden; font-family: &quot;Helvetica Neue&quot;, sans-serif; font-size: 12px; font-weight: 200;" x="0" y="113.06910160134449" dx="0em" dy="0.3em" fill="rgb(50, 49, 63)" stroke="none" stroke-width="1px">1</text><text style="text-anchor: end; visibility: inherit; font-family: &quot;Helvetica Neue&quot;, sans-serif; font-size: 12px; font-weight: 200;" x="0" y="93.69888167194397" dx="0em" dy="0.3em" fill="rgb(50, 49, 63)" stroke="none" stroke-width="1px">1.5</text><text style="text-anchor: end; visibility: hidden; font-family: &quot;Helvetica Neue&quot;, sans-serif; font-size: 12px; font-weight: 200;" x="0" y="74.32866174254346" dx="0em" dy="0.3em" fill="rgb(50, 49, 63)" stroke="none" stroke-width="1px">2</text><text style="text-anchor: end; visibility: inherit; font-family: &quot;Helvetica Neue&quot;, sans-serif; font-size: 12px; font-weight: 200;" x="0" y="54.958441813142926" dx="0em" dy="0.3em" fill="rgb(50, 49, 63)" stroke="none" stroke-width="1px">2.5</text><text style="text-anchor: end; visibility: hidden; font-family: &quot;Helvetica Neue&quot;, sans-serif; font-size: 12px; font-weight: 200;" x="0" y="35.58822188374242" dx="0em" dy="0.3em" fill="rgb(50, 49, 63)" stroke="none" stroke-width="1px">3</text><text style="text-anchor: end; visibility: inherit; font-family: &quot;Helvetica Neue&quot;, sans-serif; font-size: 12px; font-weight: 200;" x="0" y="16.2180019543419" dx="0em" dy="0.3em" fill="rgb(50, 49, 63)" stroke="none" stroke-width="1px">3.5</text></g><line x1="51.52000045776367" y1="0" x2="51.52000045776367" y2="177.95999908447266" fill="rgb(0, 0, 0)" stroke="rgb(204, 204, 204)" stroke-width="1px"></line></g></g><g transform="translate(51, 0)" clip-path="url(#clip_0)"><clipPath id="clip_0"><rect width="278" height="177"></rect></clipPath><g><g><g><line x1="20.325469549034054" y1="0" x2="20.325469549034054" y2="177.95999908447266" fill="rgb(0, 0, 0)" stroke="rgb(60, 60, 60)" stroke-width="1px" opacity="0.25"></line><line x1="48.27742726685794" y1="0" x2="48.27742726685794" y2="177.95999908447266" fill="rgb(0, 0, 0)" stroke="rgb(60, 60, 60)" stroke-width="1px" opacity="0.25"></line><line x1="76.22938498468183" y1="0" x2="76.22938498468183" y2="177.95999908447266" fill="rgb(0, 0, 0)" stroke="rgb(60, 60, 60)" stroke-width="1px" opacity="0.25"></line><line x1="104.18134270250573" y1="0" x2="104.18134270250573" y2="177.95999908447266" fill="rgb(0, 0, 0)" stroke="rgb(60, 60, 60)" stroke-width="1px" opacity="0.25"></line><line x1="132.13330042032962" y1="0" x2="132.13330042032962" y2="177.95999908447266" fill="rgb(0, 0, 0)" stroke="rgb(60, 60, 60)" stroke-width="1px" opacity="0.25"></line><line x1="160.0852581381535" y1="0" x2="160.0852581381535" y2="177.95999908447266" fill="rgb(0, 0, 0)" stroke="rgb(60, 60, 60)" stroke-width="1px" opacity="0.25"></line><line x1="188.0372158559774" y1="0" x2="188.0372158559774" y2="177.95999908447266" fill="rgb(0, 0, 0)" stroke="rgb(60, 60, 60)" stroke-width="1px" opacity="0.25"></line><line x1="215.98917357380128" y1="0" x2="215.98917357380128" y2="177.95999908447266" fill="rgb(0, 0, 0)" stroke="rgb(60, 60, 60)" stroke-width="1px" opacity="0.25"></line><line x1="243.9411312916252" y1="0" x2="243.9411312916252" y2="177.95999908447266" fill="rgb(0, 0, 0)" stroke="rgb(60, 60, 60)" stroke-width="1px" opacity="0.25"></line><line x1="271.89308900944906" y1="0" x2="271.89308900944906" y2="177.95999908447266" fill="rgb(0, 0, 0)" stroke="rgb(60, 60, 60)" stroke-width="1px" opacity="0.25"></line></g><g><line x1="0" y1="171.17976138954603" x2="278.4799995422363" y2="171.17976138954603" fill="rgb(0, 0, 0)" stroke="rgb(60, 60, 60)" stroke-width="1px" opacity="0.25"></line><line x1="0" y1="151.8095414601455" x2="278.4799995422363" y2="151.8095414601455" fill="rgb(0, 0, 0)" stroke="rgb(60, 60, 60)" stroke-width="1px" opacity="0.25"></line><line x1="0" y1="132.439321530745" x2="278.4799995422363" y2="132.439321530745" fill="rgb(0, 0, 0)" stroke="rgb(60, 60, 60)" stroke-width="1px" opacity="0.25"></line><line x1="0" y1="113.06910160134449" x2="278.4799995422363" y2="113.06910160134449" fill="rgb(0, 0, 0)" stroke="rgb(60, 60, 60)" stroke-width="1px" opacity="0.25"></line><line x1="0" y1="93.69888167194397" x2="278.4799995422363" y2="93.69888167194397" fill="rgb(0, 0, 0)" stroke="rgb(60, 60, 60)" stroke-width="1px" opacity="0.25"></line><line x1="0" y1="74.32866174254346" x2="278.4799995422363" y2="74.32866174254346" fill="rgb(0, 0, 0)" stroke="rgb(60, 60, 60)" stroke-width="1px" opacity="0.25"></line><line x1="0" y1="54.958441813142926" x2="278.4799995422363" y2="54.958441813142926" fill="rgb(0, 0, 0)" stroke="rgb(60, 60, 60)" stroke-width="1px" opacity="0.25"></line><line x1="0" y1="35.58822188374242" x2="278.4799995422363" y2="35.58822188374242" fill="rgb(0, 0, 0)" stroke="rgb(60, 60, 60)" stroke-width="1px" opacity="0.25"></line><line x1="0" y1="16.2180019543419" x2="278.4799995422363" y2="16.2180019543419" fill="rgb(0, 0, 0)" stroke="rgb(60, 60, 60)" stroke-width="1px" opacity="0.25"></line></g></g></g><g><g><line x1="0" y1="151.8095414601455" x2="278.4799995422363" y2="151.8095414601455" fill="rgb(0, 0, 0)" stroke="rgb(153, 153, 153)" stroke-width="1.5px"></line></g></g><g><g><line x1="76.22938498468183" y1="0" x2="76.22938498468183" y2="177.95999908447266" fill="rgb(0, 0, 0)" stroke="rgb(153, 153, 153)" stroke-width="1.5px"></line></g></g><g><g><g><g><g><path style="fill: none;" stroke="rgb(0, 119, 187)" stroke-width="2px" d="M81.10420641067032,5.1198828299624495L85.93430470431029,22.297947877994517L89.47861294293035,38.25676247192317L93.03410196463756,53.333586228568464L96.61195255251901,67.20734594862948L105.01990143404043,84.73797032668354L108.5809808472912,97.55658149581456L112.18119300134691,107.292699320597L115.77581476385907,114.8434884604869L119.38161730945835,120.77381993172442L122.97623907197051,125.4723928815977L126.54849926830839,129.21127885962596L130.13753063927697,132.2067644531363L133.71538122715845,134.61518548154856L137.27087024886563,136.55410841309327L140.82635927057285,138.11433819682665L149.18399462820219,139.7577476182681L152.7227124752787,140.9565453467739L156.30615345470372,141.85469683710434L159.8840040425852,142.54194962914232L163.4450834558359,143.07908127871673L167.02852443526095,143.5101499624401L170.6063750231424,143.86066776013587L174.18981600256745,144.15016266420002L177.77325698199246,144.39197836473198L181.32874600369965,144.5938884083311L184.895415808494,144.76410631877036L188.44531443865762,144.90672768681196L191.99521306882124,145.026051341707L195.55629248207202,145.12428802537855L199.10619111223565,145.20307474790815L202.6560897423993,145.26422268059264L206.20598837256293,145.30962463376832L209.75588700272655,145.34121062608062L213.28342406671592,145.36160841660453L216.8109611307053,145.3738872692116L220.35526936932536,145.38125458069476L223.88280643331476,145.38567496755547L227.43829545502194,145.38832719966143L230.97701330209847,145.3899185389212L234.5101407576314,145.3908733424757L238.0656297793386,145.3914462246079L241.6043476264151,145.39178995388707L245.13747508194803,145.3919961914545L248.64824097130673,145.39211993399493L252.16459725220895,145.39219417951918L255.7144958823726,145.39223872683374L259.2364425548184,145.39226545522246L262.786341184982,145.39228149225568L266.31387824897143,145.39229111447563L269.85818648759147,145.3922968878076L273.39131394312443,145.39230035180677L276.9188510071138,145.39230243020629L280.4687496372774,145.392303677246" fill="none"></path></g></g></g></g><g opacity="0.2"><g><g><g><path style="fill: none;" stroke="rgb(0, 119, 187)" stroke-width="2px" d="M81.10420641067032,5.1198828299624495L85.93430470431029,32.60478690681376L89.47861294293035,53.577224482094664L93.03410196463756,71.06393096638332L96.61195255251901,85.32092663914118L105.01990143404043,108.98913486630838L108.5809808472912,115.8874005654506L112.18119300134691,121.4880525758609L115.77581476385907,125.97943577654199L119.38161730945835,129.57967102196116L122.97623907197051,132.47763659556728L126.54849926830839,134.79926097428515L130.13753063927697,136.6902120632102L133.71538122715845,138.2230986766499L137.27087024886563,139.4602136792887L140.82635927057285,140.45358247750153L149.18399462820219,142.22216631464013L152.7227124752787,142.75443756491921L156.30615345470372,143.20178724826033L159.8840040425852,143.57276599957194L163.4450834558359,143.88474929550213L167.02852443526095,144.15673880352648L170.6063750231424,144.3864375363171L174.18981600256745,144.58440159095312L177.77325698199246,144.75470019680742L181.32874600369965,144.8967526126757L184.895415808494,145.01943274888828L188.44531443865762,145.12065951991693L191.99521306882124,145.2050367141356L195.55629248207202,145.27164299659194L199.10619111223565,145.321254805576L202.6560897423993,145.35594456745298L206.20598837256293,145.37772755811176L209.75588700272655,145.38858961228664L213.28342406671592,145.39220510151375L216.8109611307053,145.39230554780553L220.35526936932536,145.39230554780553L223.88280643331476,145.39230554780553L227.43829545502194,145.39230554780553L230.97701330209847,145.39230554780553L234.5101407576314,145.39230554780553L238.0656297793386,145.39230554780553L241.6043476264151,145.39230554780553L245.13747508194803,145.39230554780553L248.64824097130673,145.39230554780553L252.16459725220895,145.39230554780553L255.7144958823726,145.39230554780553L259.2364425548184,145.39230554780553L262.786341184982,145.39230554780553L266.31387824897143,145.39230554780553L269.85818648759147,145.39230554780553L273.39131394312443,145.39230554780553L276.9188510071138,145.39230554780553L280.4687496372774,145.39230554780553" fill="none"></path></g></g></g></g></g></g><g transform="translate(51, 177)" clip-path="url(#clip_1)"><clipPath id="clip_1"><rect width="278" height="22"></rect></clipPath><g><g><line x1="20.325469549034054" y1="0" x2="20.325469549034054" y2="5" style="visibility: inherit;" fill="rgb(0, 0, 0)" stroke="rgb(204, 204, 204)" stroke-width="1px"></line><line x1="48.27742726685794" y1="0" x2="48.27742726685794" y2="5" style="visibility: inherit;" fill="rgb(0, 0, 0)" stroke="rgb(204, 204, 204)" stroke-width="1px"></line><line x1="76.22938498468183" y1="0" x2="76.22938498468183" y2="5" style="visibility: inherit;" fill="rgb(0, 0, 0)" stroke="rgb(204, 204, 204)" stroke-width="1px"></line><line x1="104.18134270250573" y1="0" x2="104.18134270250573" y2="5" style="visibility: inherit;" fill="rgb(0, 0, 0)" stroke="rgb(204, 204, 204)" stroke-width="1px"></line><line x1="132.13330042032962" y1="0" x2="132.13330042032962" y2="5" style="visibility: inherit;" fill="rgb(0, 0, 0)" stroke="rgb(204, 204, 204)" stroke-width="1px"></line><line x1="160.0852581381535" y1="0" x2="160.0852581381535" y2="5" style="visibility: inherit;" fill="rgb(0, 0, 0)" stroke="rgb(204, 204, 204)" stroke-width="1px"></line><line x1="188.0372158559774" y1="0" x2="188.0372158559774" y2="5" style="visibility: inherit;" fill="rgb(0, 0, 0)" stroke="rgb(204, 204, 204)" stroke-width="1px"></line><line x1="215.98917357380128" y1="0" x2="215.98917357380128" y2="5" style="visibility: inherit;" fill="rgb(0, 0, 0)" stroke="rgb(204, 204, 204)" stroke-width="1px"></line><line x1="243.9411312916252" y1="0" x2="243.9411312916252" y2="5" style="visibility: inherit;" fill="rgb(0, 0, 0)" stroke="rgb(204, 204, 204)" stroke-width="1px"></line><line x1="271.89308900944906" y1="0" x2="271.89308900944906" y2="5" style="visibility: inherit;" fill="rgb(0, 0, 0)" stroke="rgb(204, 204, 204)" stroke-width="1px"></line></g><g transform="translate(0, 8)"><text style="text-anchor: middle; visibility: inherit; font-family: &quot;Helvetica Neue&quot;, sans-serif; font-size: 12px; font-weight: 200;" x="20.325469549034054" y="0" dx="0em" dy="0.95em" fill="rgb(50, 49, 63)" stroke="none" stroke-width="1px">-10k</text><text style="text-anchor: middle; visibility: hidden; font-family: &quot;Helvetica Neue&quot;, sans-serif; font-size: 12px; font-weight: 200;" x="48.27742726685794" y="0" dx="0em" dy="0.95em" fill="rgb(50, 49, 63)" stroke="none" stroke-width="1px">-5k</text><text style="text-anchor: middle; visibility: inherit; font-family: &quot;Helvetica Neue&quot;, sans-serif; font-size: 12px; font-weight: 200;" x="76.22938498468183" y="0" dx="0em" dy="0.95em" fill="rgb(50, 49, 63)" stroke="none" stroke-width="1px">0</text><text style="text-anchor: middle; visibility: hidden; font-family: &quot;Helvetica Neue&quot;, sans-serif; font-size: 12px; font-weight: 200;" x="104.18134270250573" y="0" dx="0em" dy="0.95em" fill="rgb(50, 49, 63)" stroke="none" stroke-width="1px">5k</text><text style="text-anchor: middle; visibility: inherit; font-family: &quot;Helvetica Neue&quot;, sans-serif; font-size: 12px; font-weight: 200;" x="132.13330042032962" y="0" dx="0em" dy="0.95em" fill="rgb(50, 49, 63)" stroke="none" stroke-width="1px">10k</text><text style="text-anchor: middle; visibility: hidden; font-family: &quot;Helvetica Neue&quot;, sans-serif; font-size: 12px; font-weight: 200;" x="160.0852581381535" y="0" dx="0em" dy="0.95em" fill="rgb(50, 49, 63)" stroke="none" stroke-width="1px">15k</text><text style="text-anchor: middle; visibility: inherit; font-family: &quot;Helvetica Neue&quot;, sans-serif; font-size: 12px; font-weight: 200;" x="188.0372158559774" y="0" dx="0em" dy="0.95em" fill="rgb(50, 49, 63)" stroke="none" stroke-width="1px">20k</text><text style="text-anchor: middle; visibility: hidden; font-family: &quot;Helvetica Neue&quot;, sans-serif; font-size: 12px; font-weight: 200;" x="215.98917357380128" y="0" dx="0em" dy="0.95em" fill="rgb(50, 49, 63)" stroke="none" stroke-width="1px">25k</text><text style="text-anchor: middle; visibility: inherit; font-family: &quot;Helvetica Neue&quot;, sans-serif; font-size: 12px; font-weight: 200;" x="243.9411312916252" y="0" dx="0em" dy="0.95em" fill="rgb(50, 49, 63)" stroke="none" stroke-width="1px">30k</text><text style="text-anchor: middle; visibility: hidden; font-family: &quot;Helvetica Neue&quot;, sans-serif; font-size: 12px; font-weight: 200;" x="271.89308900944906" y="0" dx="0em" dy="0.95em" fill="rgb(50, 49, 63)" stroke="none" stroke-width="1px">35k</text></g><line x1="0" y1="0" x2="278.4799995422363" y2="0" fill="rgb(0, 0, 0)" stroke="rgb(204, 204, 204)" stroke-width="1px"></line></g></g></g></g></svg>