<svg viewBox="0 0 330 200" xmlns="http://www.w3.org/2000/svg"><g><g><g><g><g><line x1="51.52000045776367" y1="175.54659336736106" x2="46.52000045776367" y2="175.54659336736106" style="visibility: inherit;" fill="rgb(0, 0, 0)" stroke="rgb(204, 204, 204)" stroke-width="1px"></line><line x1="51.52000045776367" y1="155.65412142265924" x2="46.52000045776367" y2="155.65412142265924" style="visibility: inherit;" fill="rgb(0, 0, 0)" stroke="rgb(204, 204, 204)" stroke-width="1px"></line><line x1="51.52000045776367" y1="135.7616494779574" x2="46.52000045776367" y2="135.7616494779574" style="visibility: inherit;" fill="rgb(0, 0, 0)" stroke="rgb(204, 204, 204)" stroke-width="1px"></line><line x1="51.52000045776367" y1="115.8691775332556" x2="46.52000045776367" y2="115.8691775332556" style="visibility: inherit;" fill="rgb(0, 0, 0)" stroke="rgb(204, 204, 204)" stroke-width="1px"></line><line x1="51.52000045776367" y1="95.97670558855378" x2="46.52000045776367" y2="95.97670558855378" style="visibility: inherit;" fill="rgb(0, 0, 0)" stroke="rgb(204, 204, 204)" stroke-width="1px"></line><line x1="51.52000045776367" y1="76.08423364385196" x2="46.52000045776367" y2="76.08423364385196" style="visibility: inherit;" fill="rgb(0, 0, 0)" stroke="rgb(204, 204, 204)" stroke-width="1px"></line><line x1="51.52000045776367" y1="56.19176169915019" x2="46.52000045776367" y2="56.19176169915019" style="visibility: inherit;" fill="rgb(0, 0, 0)" stroke="rgb(204, 204, 204)" stroke-width="1px"></line><line x1="51.52000045776367" y1="36.29928975444835" x2="46.52000045776367" y2="36.29928975444835" style="visibility: inherit;" fill="rgb(0, 0, 0)" stroke="rgb(204, 204, 204)" stroke-width="1px"></line><line x1="51.52000045776367" y1="16.40681780974657" x2="46.52000045776367" y2="16.40681780974657" style="visibility: inherit;" fill="rgb(0, 0, 0)" stroke="rgb(204, 204, 204)" stroke-width="1px"></line></g><g transform="translate(41.52000045776367, 0)"><text style="text-anchor: end; visibility: hidden; font-family: &quot;Helvetica Neue&quot;, sans-serif; font-size: 12px; font-weight: 200;" x="0" y="175.54659336736106" dx="0em" dy="0.3em" fill="rgb(50, 49, 63)" stroke="none" stroke-width="1px">0.3</text><text style="text-anchor: end; visibility: inherit; font-family: &quot;Helvetica Neue&quot;, sans-serif; font-size: 12px; font-weight: 200;" x="0" y="155.65412142265924" dx="0em" dy="0.3em" fill="rgb(50, 49, 63)" stroke="none" stroke-width="1px">0.35</text><text style="text-anchor: end; visibility: hidden; font-family: &quot;Helvetica Neue&quot;, sans-serif; font-size: 12px; font-weight: 200;" x="0" y="135.7616494779574" dx="0em" dy="0.3em" fill="rgb(50, 49, 63)" stroke="none" stroke-width="1px">0.4</text><text style="text-anchor: end; visibility: inherit; font-family: &quot;Helvetica Neue&quot;, sans-serif; font-size: 12px; font-weight: 200;" x="0" y="115.8691775332556" dx="0em" dy="0.3em" fill="rgb(50, 49, 63)" stroke="none" stroke-width="1px">0.45</text><text style="text-anchor: end; visibility: hidden; font-family: &quot;Helvetica Neue&quot;, sans-serif; font-size: 12px; font-weight: 200;" x="0" y="95.97670558855378" dx="0em" dy="0.3em" fill="rgb(50, 49, 63)" stroke="none" stroke-width="1px">0.5</text><text style="text-anchor: end; visibility: inherit; font-family: &quot;Helvetica Neue&quot;, sans-serif; font-size: 12px; font-weight: 200;" x="0" y="76.08423364385196" dx="0em" dy="0.3em" fill="rgb(50, 49, 63)" stroke="none" stroke-width="1px">0.55</text><text style="text-anchor: end; visibility: hidden; font-family: &quot;Helvetica Neue&quot;, sans-serif; font-size: 12px; font-weight: 200;" x="0" y="56.19176169915019" dx="0em" dy="0.3em" fill="rgb(50, 49, 63)" stroke="none" stroke-width="1px">0.6</text><text style="text-anchor: end; visibility: inherit; font-family: &quot;Helvetica Neue&quot;, sans-serif; font-size: 12px; font-weight: 200;" x="0" y="36.29928975444835" dx="0em" dy="0.3em" fill="rgb(50, 49, 63)" stroke="none" stroke-width="1px">0.65</text><text style="text-anchor: end; visibility: hidden; font-family: &quot;Helvetica Neue&quot;, sans-serif; font-size: 12px; font-weight: 200;" x="0" y="16.40681780974657" dx="0em" dy="0.3em" fill="rgb(50, 49, 63)" stroke="none" stroke-width="1px">0.7</text></g><line x1="51.52000045776367" y1="0" x2="51.52000045776367" y2="177.95999908447266" fill="rgb(0, 0, 0)" stroke="rgb(204, 204, 204)" stroke-width="1px"></line></g></g><g transform="translate(51, 0)" clip-path="url(#clip_0)"><clipPath id="clip_0"><rect width="278" height="177"></rect></clipPath><g><g><g><line x1="34.052197535483224" y1="0" x2="34.052197535483224" y2="177.95999908447266" fill="rgb(0, 0, 0)" stroke="rgb(60, 60, 60)" stroke-width="1px" opacity="0.25"></line><line x1="69.47655379679864" y1="0" x2="69.47655379679864" y2="177.95999908447266" fill="rgb(0, 0, 0)" stroke="rgb(60, 60, 60)" stroke-width="1px" opacity="0.25"></line><line x1="104.90091005811406" y1="0" x2="104.90091005811406" y2="177.95999908447266" fill="rgb(0, 0, 0)" stroke="rgb(60, 60, 60)" stroke-width="1px" opacity="0.25"></line><line x1="140.3252663194295" y1="0" x2="140.3252663194295" y2="177.95999908447266" fill="rgb(0, 0, 0)" stroke="rgb(60, 60, 60)" stroke-width="1px" opacity="0.25"></line><line x1="175.7496225807449" y1="0" x2="175.7496225807449" y2="177.95999908447266" fill="rgb(0, 0, 0)" stroke="rgb(60, 60, 60)" stroke-width="1px" opacity="0.25"></line><line x1="211.1739788420603" y1="0" x2="211.1739788420603" y2="177.95999908447266" fill="rgb(0, 0, 0)" stroke="rgb(60, 60, 60)" stroke-width="1px" opacity="0.25"></line><line x1="246.59833510337572" y1="0" x2="246.59833510337572" y2="177.95999908447266" fill="rgb(0, 0, 0)" stroke="rgb(60, 60, 60)" stroke-width="1px" opacity="0.25"></line></g><g><line x1="0" y1="175.54659336736106" x2="278.4799995422363" y2="175.54659336736106" fill="rgb(0, 0, 0)" stroke="rgb(60, 60, 60)" stroke-width="1px" opacity="0.25"></line><line x1="0" y1="155.65412142265924" x2="278.4799995422363" y2="155.65412142265924" fill="rgb(0, 0, 0)" stroke="rgb(60, 60, 60)" stroke-width="1px" opacity="0.25"></line><line x1="0" y1="135.7616494779574" x2="278.4799995422363" y2="135.7616494779574" fill="rgb(0, 0, 0)" stroke="rgb(60, 60, 60)" stroke-width="1px" opacity="0.25"></line><line x1="0" y1="115.8691775332556" x2="278.4799995422363" y2="115.8691775332556" fill="rgb(0, 0, 0)" stroke="rgb(60, 60, 60)" stroke-width="1px" opacity="0.25"></line><line x1="0" y1="95.97670558855378" x2="278.4799995422363" y2="95.97670558855378" fill="rgb(0, 0, 0)" stroke="rgb(60, 60, 60)" stroke-width="1px" opacity="0.25"></line><line x1="0" y1="76.08423364385196" x2="278.4799995422363" y2="76.08423364385196" fill="rgb(0, 0, 0)" stroke="rgb(60, 60, 60)" stroke-width="1px" opacity="0.25"></line><line x1="0" y1="56.19176169915019" x2="278.4799995422363" y2="56.19176169915019" fill="rgb(0, 0, 0)" stroke="rgb(60, 60, 60)" stroke-width="1px" opacity="0.25"></line><line x1="0" y1="36.29928975444835" x2="278.4799995422363" y2="36.29928975444835" fill="rgb(0, 0, 0)" stroke="rgb(60, 60, 60)" stroke-width="1px" opacity="0.25"></line><line x1="0" y1="16.40681780974657" x2="278.4799995422363" y2="16.40681780974657" fill="rgb(0, 0, 0)" stroke="rgb(60, 60, 60)" stroke-width="1px" opacity="0.25"></line></g></g></g><g><g><line x1="0" y1="294.9014250355719" x2="278.4799995422363" y2="294.9014250355719" fill="rgb(0, 0, 0)" stroke="rgb(153, 153, 153)" stroke-width="1.5px"></line></g></g><g><g><line x1="34.052197535483224" y1="0" x2="34.052197535483224" y2="177.95999908447266" fill="rgb(0, 0, 0)" stroke="rgb(153, 153, 153)" stroke-width="1.5px"></line></g></g><g><g><g><g><g><path style="fill: none;" stroke="rgb(0, 119, 187)" stroke-width="2px" d="M40.23020526745664,4.843892594294999L46.351534029411944,8.51053058438788L50.84334240334673,10.56658782874021L55.349320519786055,12.564860561517264L59.883638121234426,17.712912730149412L70.53928448463812,23.634769420677316L75.05234747232969,25.910459199820707L79.61500455878712,29.753447815963682L84.17057677399228,27.71434288197142L88.74031873170198,27.36682404232451L93.29589094690714,14.990988201305242L97.82312367710324,24.277010900352167L102.37161102105614,32.17986980751155L106.90592862250452,43.50684049341817L111.41190673894384,38.36508823247803L115.91788485538315,32.849668242231076L126.50976737751647,41.90143052202802L130.994490880199,53.80886279198114L135.53589335289965,63.08797134292479L140.07021095434803,64.30626401677841L144.58327394203957,72.68282873980161L149.12467641474024,77.04461091507754L153.65899401618861,80.05966641845905L158.20039648888923,87.41910023098369L162.7417989615899,88.67241112063704L167.2477770780292,94.4316458791836L171.76792493697303,96.18357884312832L176.2668181821601,100.26082236159283L180.76571142734716,106.17529304069268L185.27877441503875,105.25617925451034L189.77766766022583,110.5168860713401L194.27656090541285,113.42572470537024L198.77545415059993,116.37124800136246L203.27434739578698,118.60887520836323L207.74490115596498,120.30720878492293L212.215454916143,121.12802898977051L216.70726329007778,121.7004978463047L221.17781705025578,122.07566536991482L225.68379516669512,122.39117663871077L230.16851866937765,122.45868522451474L234.6461573008079,122.54102129775453L239.15213541724722,122.51837131308335L243.63685891992975,122.57216135697273L248.11449755136002,122.6997738401898L252.56379669778124,122.64587817857665L257.02018071545467,122.66281779718352L261.5190739606418,122.6550682586446L265.9825428495675,122.58779546395493L270.48143609475454,122.63415269471429L274.95198985493255,122.70366990110924L279.44379822886737,122.64279486914765" fill="none"></path></g></g></g></g><g opacity="0.2"><g><g><g><path style="fill: none;" stroke="rgb(0, 119, 187)" stroke-width="2px" d="M40.23020526745664,4.843892594294971L46.351534029411944,10.710513378443608L50.84334240334673,12.540402783318484L55.349320519786055,14.914829295263075L59.883638121234426,24.434209641515565L70.53928448463812,31.826829092086L75.05234747232969,29.164731995032213L79.61500455878712,35.35656211099089L84.17057677399228,24.70705918007519L88.74031873170198,26.850799066684488L93.29589094690714,-3.4605176400071684L97.82312367710324,38.155510823465136L102.37161102105614,44.00835396274127L106.90592862250452,60.47510580753956L111.41190673894384,30.6585037778365L115.91788485538315,24.580428158355346L126.50976737751647,55.475243539286296L130.994490880199,71.66698790114738L135.53589335289965,77.00522059054677L140.07021095434803,66.1335916707828L144.58327394203957,85.24721643361917L149.12467641474024,83.58714065169106L153.65899401618861,84.58219014651979L158.20039648888923,98.458163770261L162.7417989615899,90.55236854711983L167.2477770780292,103.070473456498L171.76792493697303,98.8114738063291L176.2668181821601,106.37668137976036L180.76571142734716,115.0469936112791L185.27877441503875,103.87750908321706L189.77766766022583,118.40794455207711L194.27656090541285,117.7889820776539L198.77545415059993,120.78953259371445L203.27434739578698,121.9653158585877L207.74490115596498,122.85470907677362L212.215454916143,122.35925927587618L216.70726329007778,122.55920112224898L221.17781705025578,122.63841665184731L225.68379516669512,122.86444354014739L230.16851866937765,122.55994810299508L234.6461573008079,122.66452540744909L239.15213541724722,122.48439633610381L243.63685891992975,122.65284642276801L248.11449755136002,122.89119256496014L252.56379669778124,122.5650346861709L257.02018071545467,122.68822722509123L261.5190739606418,122.64344395083694L265.9825428495675,122.48688627192415L270.48143609475454,122.70368854085177L274.95198985493255,122.80794571070031L279.44379822886737,122.55148232120595" fill="none"></path></g></g></g></g></g></g><g transform="translate(51, 177)" clip-path="url(#clip_1)"><clipPath id="clip_1"><rect width="278" height="22"></rect></clipPath><g><g><line x1="34.052197535483224" y1="0" x2="34.052197535483224" y2="5" style="visibility: inherit;" fill="rgb(0, 0, 0)" stroke="rgb(204, 204, 204)" stroke-width="1px"></line><line x1="69.47655379679864" y1="0" x2="69.47655379679864" y2="5" style="visibility: inherit;" fill="rgb(0, 0, 0)" stroke="rgb(204, 204, 204)" stroke-width="1px"></line><line x1="104.90091005811406" y1="0" x2="104.90091005811406" y2="5" style="visibility: inherit;" fill="rgb(0, 0, 0)" stroke="rgb(204, 204, 204)" stroke-width="1px"></line><line x1="140.3252663194295" y1="0" x2="140.3252663194295" y2="5" style="visibility: inherit;" fill="rgb(0, 0, 0)" stroke="rgb(204, 204, 204)" stroke-width="1px"></line><line x1="175.7496225807449" y1="0" x2="175.7496225807449" y2="5" style="visibility: inherit;" fill="rgb(0, 0, 0)" stroke="rgb(204, 204, 204)" stroke-width="1px"></line><line x1="211.1739788420603" y1="0" x2="211.1739788420603" y2="5" style="visibility: inherit;" fill="rgb(0, 0, 0)" stroke="rgb(204, 204, 204)" stroke-width="1px"></line><line x1="246.59833510337572" y1="0" x2="246.59833510337572" y2="5" style="visibility: inherit;" fill="rgb(0, 0, 0)" stroke="rgb(204, 204, 204)" stroke-width="1px"></line></g><g transform="translate(0, 8)"><text style="text-anchor: middle; visibility: inherit; font-family: &quot;Helvetica Neue&quot;, sans-serif; font-size: 12px; font-weight: 200;" x="34.052197535483224" y="0" dx="0em" dy="0.95em" fill="rgb(50, 49, 63)" stroke="none" stroke-width="1px">0</text><text style="text-anchor: middle; visibility: inherit; font-family: &quot;Helvetica Neue&quot;, sans-serif; font-size: 12px; font-weight: 200;" x="69.47655379679864" y="0" dx="0em" dy="0.95em" fill="rgb(50, 49, 63)" stroke="none" stroke-width="1px">5k</text><text style="text-anchor: middle; visibility: inherit; font-family: &quot;Helvetica Neue&quot;, sans-serif; font-size: 12px; font-weight: 200;" x="104.90091005811406" y="0" dx="0em" dy="0.95em" fill="rgb(50, 49, 63)" stroke="none" stroke-width="1px">10k</text><text style="text-anchor: middle; visibility: inherit; font-family: &quot;Helvetica Neue&quot;, sans-serif; font-size: 12px; font-weight: 200;" x="140.3252663194295" y="0" dx="0em" dy="0.95em" fill="rgb(50, 49, 63)" stroke="none" stroke-width="1px">15k</text><text style="text-anchor: middle; visibility: inherit; font-family: &quot;Helvetica Neue&quot;, sans-serif; font-size: 12px; font-weight: 200;" x="175.7496225807449" y="0" dx="0em" dy="0.95em" fill="rgb(50, 49, 63)" stroke="none" stroke-width="1px">20k</text><text style="text-anchor: middle; visibility: inherit; font-family: &quot;Helvetica Neue&quot;, sans-serif; font-size: 12px; font-weight: 200;" x="211.1739788420603" y="0" dx="0em" dy="0.95em" fill="rgb(50, 49, 63)" stroke="none" stroke-width="1px">25k</text><text style="text-anchor: middle; visibility: inherit; font-family: &quot;Helvetica Neue&quot;, sans-serif; font-size: 12px; font-weight: 200;" x="246.59833510337572" y="0" dx="0em" dy="0.95em" fill="rgb(50, 49, 63)" stroke="none" stroke-width="1px">30k</text></g><line x1="0" y1="0" x2="278.4799995422363" y2="0" fill="rgb(0, 0, 0)" stroke="rgb(204, 204, 204)" stroke-width="1px"></line></g></g></g></g></svg>