<svg viewBox="0 0 330 200" xmlns="http://www.w3.org/2000/svg"><g><g><g><g><g><line x1="61.90000057220459" y1="177.95999908447266" x2="56.90000057220459" y2="177.95999908447266" style="visibility: inherit;" fill="rgb(0, 0, 0)" stroke="rgb(204, 204, 204)" stroke-width="1px"></line><line x1="61.90000057220459" y1="163.1299991607666" x2="56.90000057220459" y2="163.1299991607666" style="visibility: inherit;" fill="rgb(0, 0, 0)" stroke="rgb(204, 204, 204)" stroke-width="1px"></line><line x1="61.90000057220459" y1="148.29999923706055" x2="56.90000057220459" y2="148.29999923706055" style="visibility: inherit;" fill="rgb(0, 0, 0)" stroke="rgb(204, 204, 204)" stroke-width="1px"></line><line x1="61.90000057220459" y1="133.4699993133545" x2="56.90000057220459" y2="133.4699993133545" style="visibility: inherit;" fill="rgb(0, 0, 0)" stroke="rgb(204, 204, 204)" stroke-width="1px"></line><line x1="61.90000057220459" y1="118.63999938964844" x2="56.90000057220459" y2="118.63999938964844" style="visibility: inherit;" fill="rgb(0, 0, 0)" stroke="rgb(204, 204, 204)" stroke-width="1px"></line><line x1="61.90000057220459" y1="103.80999946594238" x2="56.90000057220459" y2="103.80999946594238" style="visibility: inherit;" fill="rgb(0, 0, 0)" stroke="rgb(204, 204, 204)" stroke-width="1px"></line><line x1="61.90000057220459" y1="88.97999954223634" x2="56.90000057220459" y2="88.97999954223634" style="visibility: inherit;" fill="rgb(0, 0, 0)" stroke="rgb(204, 204, 204)" stroke-width="1px"></line><line x1="61.90000057220459" y1="74.14999961853029" x2="56.90000057220459" y2="74.14999961853029" style="visibility: inherit;" fill="rgb(0, 0, 0)" stroke="rgb(204, 204, 204)" stroke-width="1px"></line><line x1="61.90000057220459" y1="59.31999969482425" x2="56.90000057220459" y2="59.31999969482425" style="visibility: inherit;" fill="rgb(0, 0, 0)" stroke="rgb(204, 204, 204)" stroke-width="1px"></line><line x1="61.90000057220459" y1="44.48999977111819" x2="56.90000057220459" y2="44.48999977111819" style="visibility: inherit;" fill="rgb(0, 0, 0)" stroke="rgb(204, 204, 204)" stroke-width="1px"></line><line x1="61.90000057220459" y1="29.65999984741211" x2="56.90000057220459" y2="29.65999984741211" style="visibility: inherit;" fill="rgb(0, 0, 0)" stroke="rgb(204, 204, 204)" stroke-width="1px"></line><line x1="61.90000057220459" y1="14.829999923706055" x2="56.90000057220459" y2="14.829999923706055" style="visibility: inherit;" fill="rgb(0, 0, 0)" stroke="rgb(204, 204, 204)" stroke-width="1px"></line><line x1="61.90000057220459" y1="0" x2="56.90000057220459" y2="0" style="visibility: inherit;" fill="rgb(0, 0, 0)" stroke="rgb(204, 204, 204)" stroke-width="1px"></line></g><g transform="translate(51.90000057220459, 0)"><text style="text-anchor: end; visibility: hidden; font-family: &quot;Helvetica Neue&quot;, sans-serif; font-size: 12px; font-weight: 200;" x="0" y="177.95999908447266" dx="0em" dy="0.3em" fill="rgb(50, 49, 63)" stroke="none" stroke-width="1px">-0.05</text><text style="text-anchor: end; visibility: inherit; font-family: &quot;Helvetica Neue&quot;, sans-serif; font-size: 12px; font-weight: 200;" x="0" y="163.1299991607666" dx="0em" dy="0.3em" fill="rgb(50, 49, 63)" stroke="none" stroke-width="1px">0</text><text style="text-anchor: end; visibility: hidden; font-family: &quot;Helvetica Neue&quot;, sans-serif; font-size: 12px; font-weight: 200;" x="0" y="148.29999923706055" dx="0em" dy="0.3em" fill="rgb(50, 49, 63)" stroke="none" stroke-width="1px">0.05</text><text style="text-anchor: end; visibility: inherit; font-family: &quot;Helvetica Neue&quot;, sans-serif; font-size: 12px; font-weight: 200;" x="0" y="133.4699993133545" dx="0em" dy="0.3em" fill="rgb(50, 49, 63)" stroke="none" stroke-width="1px">0.1</text><text style="text-anchor: end; visibility: hidden; font-family: &quot;Helvetica Neue&quot;, sans-serif; font-size: 12px; font-weight: 200;" x="0" y="118.63999938964844" dx="0em" dy="0.3em" fill="rgb(50, 49, 63)" stroke="none" stroke-width="1px">0.15</text><text style="text-anchor: end; visibility: inherit; font-family: &quot;Helvetica Neue&quot;, sans-serif; font-size: 12px; font-weight: 200;" x="0" y="103.80999946594238" dx="0em" dy="0.3em" fill="rgb(50, 49, 63)" stroke="none" stroke-width="1px">0.2</text><text style="text-anchor: end; visibility: hidden; font-family: &quot;Helvetica Neue&quot;, sans-serif; font-size: 12px; font-weight: 200;" x="0" y="88.97999954223634" dx="0em" dy="0.3em" fill="rgb(50, 49, 63)" stroke="none" stroke-width="1px">0.25</text><text style="text-anchor: end; visibility: inherit; font-family: &quot;Helvetica Neue&quot;, sans-serif; font-size: 12px; font-weight: 200;" x="0" y="74.14999961853029" dx="0em" dy="0.3em" fill="rgb(50, 49, 63)" stroke="none" stroke-width="1px">0.3</text><text style="text-anchor: end; visibility: hidden; font-family: &quot;Helvetica Neue&quot;, sans-serif; font-size: 12px; font-weight: 200;" x="0" y="59.31999969482425" dx="0em" dy="0.3em" fill="rgb(50, 49, 63)" stroke="none" stroke-width="1px">0.35</text><text style="text-anchor: end; visibility: inherit; font-family: &quot;Helvetica Neue&quot;, sans-serif; font-size: 12px; font-weight: 200;" x="0" y="44.48999977111819" dx="0em" dy="0.3em" fill="rgb(50, 49, 63)" stroke="none" stroke-width="1px">0.4</text><text style="text-anchor: end; visibility: hidden; font-family: &quot;Helvetica Neue&quot;, sans-serif; font-size: 12px; font-weight: 200;" x="0" y="29.65999984741211" dx="0em" dy="0.3em" fill="rgb(50, 49, 63)" stroke="none" stroke-width="1px">0.45</text><text style="text-anchor: end; visibility: inherit; font-family: &quot;Helvetica Neue&quot;, sans-serif; font-size: 12px; font-weight: 200;" x="0" y="14.829999923706055" dx="0em" dy="0.3em" fill="rgb(50, 49, 63)" stroke="none" stroke-width="1px">0.5</text><text style="text-anchor: end; visibility: hidden; font-family: &quot;Helvetica Neue&quot;, sans-serif; font-size: 12px; font-weight: 200;" x="0" y="0" dx="0em" dy="0.3em" fill="rgb(50, 49, 63)" stroke="none" stroke-width="1px">0.55</text></g><line x1="61.90000057220459" y1="0" x2="61.90000057220459" y2="177.95999908447266" fill="rgb(0, 0, 0)" stroke="rgb(204, 204, 204)" stroke-width="1px"></line></g></g><g transform="translate(61, 0)" clip-path="url(#clip_0)"><clipPath id="clip_0"><rect width="268" height="177"></rect></clipPath><g><g><g><line x1="0" y1="0" x2="0" y2="177.95999908447266" fill="rgb(0, 0, 0)" stroke="rgb(60, 60, 60)" stroke-width="1px" opacity="0.25"></line><line x1="22.34166661898295" y1="0" x2="22.34166661898295" y2="177.95999908447266" fill="rgb(0, 0, 0)" stroke="rgb(60, 60, 60)" stroke-width="1px" opacity="0.25"></line><line x1="44.6833332379659" y1="0" x2="44.6833332379659" y2="177.95999908447266" fill="rgb(0, 0, 0)" stroke="rgb(60, 60, 60)" stroke-width="1px" opacity="0.25"></line><line x1="67.02499985694885" y1="0" x2="67.02499985694885" y2="177.95999908447266" fill="rgb(0, 0, 0)" stroke="rgb(60, 60, 60)" stroke-width="1px" opacity="0.25"></line><line x1="89.3666664759318" y1="0" x2="89.3666664759318" y2="177.95999908447266" fill="rgb(0, 0, 0)" stroke="rgb(60, 60, 60)" stroke-width="1px" opacity="0.25"></line><line x1="111.70833309491476" y1="0" x2="111.70833309491476" y2="177.95999908447266" fill="rgb(0, 0, 0)" stroke="rgb(60, 60, 60)" stroke-width="1px" opacity="0.25"></line><line x1="134.0499997138977" y1="0" x2="134.0499997138977" y2="177.95999908447266" fill="rgb(0, 0, 0)" stroke="rgb(60, 60, 60)" stroke-width="1px" opacity="0.25"></line><line x1="156.39166633288067" y1="0" x2="156.39166633288067" y2="177.95999908447266" fill="rgb(0, 0, 0)" stroke="rgb(60, 60, 60)" stroke-width="1px" opacity="0.25"></line><line x1="178.7333329518636" y1="0" x2="178.7333329518636" y2="177.95999908447266" fill="rgb(0, 0, 0)" stroke="rgb(60, 60, 60)" stroke-width="1px" opacity="0.25"></line><line x1="201.07499957084656" y1="0" x2="201.07499957084656" y2="177.95999908447266" fill="rgb(0, 0, 0)" stroke="rgb(60, 60, 60)" stroke-width="1px" opacity="0.25"></line><line x1="223.41666618982953" y1="0" x2="223.41666618982953" y2="177.95999908447266" fill="rgb(0, 0, 0)" stroke="rgb(60, 60, 60)" stroke-width="1px" opacity="0.25"></line><line x1="245.75833280881244" y1="0" x2="245.75833280881244" y2="177.95999908447266" fill="rgb(0, 0, 0)" stroke="rgb(60, 60, 60)" stroke-width="1px" opacity="0.25"></line><line x1="268.0999994277954" y1="0" x2="268.0999994277954" y2="177.95999908447266" fill="rgb(0, 0, 0)" stroke="rgb(60, 60, 60)" stroke-width="1px" opacity="0.25"></line></g><g><line x1="0" y1="177.95999908447266" x2="268.0999994277954" y2="177.95999908447266" fill="rgb(0, 0, 0)" stroke="rgb(60, 60, 60)" stroke-width="1px" opacity="0.25"></line><line x1="0" y1="163.1299991607666" x2="268.0999994277954" y2="163.1299991607666" fill="rgb(0, 0, 0)" stroke="rgb(60, 60, 60)" stroke-width="1px" opacity="0.25"></line><line x1="0" y1="148.29999923706055" x2="268.0999994277954" y2="148.29999923706055" fill="rgb(0, 0, 0)" stroke="rgb(60, 60, 60)" stroke-width="1px" opacity="0.25"></line><line x1="0" y1="133.4699993133545" x2="268.0999994277954" y2="133.4699993133545" fill="rgb(0, 0, 0)" stroke="rgb(60, 60, 60)" stroke-width="1px" opacity="0.25"></line><line x1="0" y1="118.63999938964844" x2="268.0999994277954" y2="118.63999938964844" fill="rgb(0, 0, 0)" stroke="rgb(60, 60, 60)" stroke-width="1px" opacity="0.25"></line><line x1="0" y1="103.80999946594238" x2="268.0999994277954" y2="103.80999946594238" fill="rgb(0, 0, 0)" stroke="rgb(60, 60, 60)" stroke-width="1px" opacity="0.25"></line><line x1="0" y1="88.97999954223634" x2="268.0999994277954" y2="88.97999954223634" fill="rgb(0, 0, 0)" stroke="rgb(60, 60, 60)" stroke-width="1px" opacity="0.25"></line><line x1="0" y1="74.14999961853029" x2="268.0999994277954" y2="74.14999961853029" fill="rgb(0, 0, 0)" stroke="rgb(60, 60, 60)" stroke-width="1px" opacity="0.25"></line><line x1="0" y1="59.31999969482425" x2="268.0999994277954" y2="59.31999969482425" fill="rgb(0, 0, 0)" stroke="rgb(60, 60, 60)" stroke-width="1px" opacity="0.25"></line><line x1="0" y1="44.48999977111819" x2="268.0999994277954" y2="44.48999977111819" fill="rgb(0, 0, 0)" stroke="rgb(60, 60, 60)" stroke-width="1px" opacity="0.25"></line><line x1="0" y1="29.65999984741211" x2="268.0999994277954" y2="29.65999984741211" fill="rgb(0, 0, 0)" stroke="rgb(60, 60, 60)" stroke-width="1px" opacity="0.25"></line><line x1="0" y1="14.829999923706055" x2="268.0999994277954" y2="14.829999923706055" fill="rgb(0, 0, 0)" stroke="rgb(60, 60, 60)" stroke-width="1px" opacity="0.25"></line><line x1="0" y1="0" x2="268.0999994277954" y2="0" fill="rgb(0, 0, 0)" stroke="rgb(60, 60, 60)" stroke-width="1px" opacity="0.25"></line></g></g></g><g><g><line x1="0" y1="163.1299991607666" x2="268.0999994277954" y2="163.1299991607666" fill="rgb(0, 0, 0)" stroke="rgb(153, 153, 153)" stroke-width="1.5px"></line></g></g><g><g><line x1="22.34166661898295" y1="0" x2="22.34166661898295" y2="177.95999908447266" fill="rgb(0, 0, 0)" stroke="rgb(153, 153, 153)" stroke-width="1.5px"></line></g></g><g><g><g><g><g><path style="fill: none;" stroke="rgb(0, 119, 187)" stroke-width="2px" d="M26.224648277362185,162.24540264540022L29.41056993722916,162.70375596339713L32.6233015970389,161.77235067277317L35.84496992349625,161.28267000635938L39.07557491660118,159.63679115410707L42.31064824302991,160.31490855148652L46.09532656828562,158.4980918144105L49.27677989482879,156.40184967134942L52.50738488793373,151.87084073075638L55.742458214362465,149.69277292609289L58.964126540819805,144.3914061305762L62.185794867277146,140.4529989818667L65.42086819370587,140.99138929589006L68.6559415201346,134.26975730046487L71.88654651323954,128.29310155086984L75.11268317302068,124.33258678786616L78.33881983280182,125.52266790764541L81.56942482590676,112.96809007228256L84.7866248190403,108.88153105367469L88.01276147882143,106.04989224102803L91.23442980527878,105.47585199550164L94.45162979841233,104.07667318497425L97.66436145822207,97.51490877850493L100.88156145135562,84.52575045512164L104.09429311116536,83.709620930254L107.3159614376227,81.85233644508625L110.53316143075625,70.27595598041192L113.73695642391841,62.942376688498385L116.94521975040435,52.94684585609008L120.14901474356651,49.61547685404415L123.36174640337626,46.092638937077055L126.56554139653842,43.01202260897196L129.75593138972917,39.09606794192402L132.95972638289135,37.888159879044L136.1590530427297,37.02989109220641L139.36731636921564,36.45029636439915L142.57111136237782,36.00764360353574L145.76596968889234,36.02447685366678L148.9652963487307,35.7250539302529L152.17802800854048,36.290198319089626L155.39075966835023,35.66167460883909L158.5990229948362,35.83753715083364L161.79834965467455,35.70479125845873L165.0021446478367,35.72162720112482L168.19253464102744,35.51706999962758L171.4007979675134,35.83621925956595L174.61352962732315,36.16462003059914L177.80838795383772,35.8898079165113L181.0077146136761,35.784717209950514L184.21597794016205,35.57790989950436L187.41530460000035,35.49072457425109L190.60569459319115,35.66446786039711L193.8005529197057,35.75720850968719L197.00434791286787,36.01810657795778L200.19473790605863,35.993618682161184L203.39853289922078,35.750311582188885L206.59339122573533,35.77060292035307L209.7837812189261,35.889525476322575L212.98757621208827,35.704646923610255L216.19583953857423,35.5712536523051L219.3951661984126,35.639973658757896L222.59449285825096,35.88563904790374L225.79828785141308,36.037390786575884L228.99761451125144,35.84503045237673L232.1969411710898,35.88009920162554L235.39626783092817,35.54717676796008L238.60006282409032,35.58397188766722L241.8038578172525,35.80021806974443L245.00765281041464,35.545806812041604L245.75833280881244,35.5775634330505" fill="none"></path></g></g></g></g><g opacity="0.2"><g><g><g><path style="fill: none;" stroke="rgb(0, 119, 187)" stroke-width="2px" d="M26.224648277362185,162.24540264540022L29.41056993722916,162.9787679541953L32.6233015970389,160.87820159377418L35.84496992349625,160.70680554265675L39.07557491660118,157.48793172460648L42.31064824302991,161.25298903432534L46.09532656828562,155.90001481132396L49.27677989482879,153.34550850284185L52.50738488793373,145.18848264655827L55.742458214362465,146.4585960769018L58.964126540819805,136.4874389439559L62.185794867277146,134.56682089658568L65.42086819370587,141.79721682913691L68.6559415201346,124.20047768414419L71.88654651323954,119.33514326095587L75.11268317302068,118.39460790521981L78.33881983280182,127.30728598486861L81.56942482590676,94.13941092519066L84.7866248190403,102.75231507189814L88.01276147882143,101.80269284506166L91.23442980527878,104.61482310894338L94.45162979841233,101.97795100975794L97.66436145822207,87.67239171939265L100.88156145135562,65.0421668390102L104.09429311116536,82.48543244365194L107.3159614376227,79.06641763780455L110.53316143075625,52.911414904185236L113.73695642391841,51.942019009399715L116.94521975040435,37.9535588147742L120.14901474356651,44.61842519217228L123.36174640337626,40.8083832298378L126.56554139653842,38.39109872975385L129.75593138972917,33.22213640883845L132.95972638289135,36.07629787124395L136.1590530427297,35.74248794883559L139.36731636921564,35.580904287633786L142.57111136237782,35.34366446908919L145.76596968889234,36.04972672870716L148.9652963487307,35.27591954679977L152.17802800854048,37.13791490045608L155.39075966835023,34.71888904472351L158.5990229948362,36.10133096361395L161.79834965467455,35.50567241999218L165.0021446478367,35.74688111511662L168.19253464102744,35.21023419743486L171.4007979675134,36.314943149423726L174.61352962732315,36.65722118711827L177.80838795383772,35.47758974539491L181.0077146136761,35.6270811501129L184.21597794016205,35.267698933839284L187.41530460000035,35.35994658637222L190.60569459319115,35.92508278961489L193.8005529197057,35.896319483621966L197.00434791286787,36.40945368036299L200.19473790605863,35.95688683846632L203.39853289922078,35.38535093223075L206.59339122573533,35.801039927599305L209.7837812189261,36.06790931027675L212.98757621208827,35.427329094541875L216.19583953857423,35.37116374534733L219.3951661984126,35.74305366843717L222.59449285825096,36.25413713162246L225.79828785141308,36.26501839458413L228.99761451125144,35.55648995107802L232.1969411710898,35.932702325498695L235.39626783092817,35.04779311746191L238.60006282409032,35.63916456722794L241.8038578172525,36.124587342860224L245.00765281041464,35.164189925487364L245.75833280881244,35.625198364563886" fill="none"></path></g></g></g></g></g></g><g transform="translate(61, 177)" clip-path="url(#clip_1)"><clipPath id="clip_1"><rect width="268" height="22"></rect></clipPath><g><g><line x1="0" y1="0" x2="0" y2="5" style="visibility: inherit;" fill="rgb(0, 0, 0)" stroke="rgb(204, 204, 204)" stroke-width="1px"></line><line x1="22.34166661898295" y1="0" x2="22.34166661898295" y2="5" style="visibility: inherit;" fill="rgb(0, 0, 0)" stroke="rgb(204, 204, 204)" stroke-width="1px"></line><line x1="44.6833332379659" y1="0" x2="44.6833332379659" y2="5" style="visibility: inherit;" fill="rgb(0, 0, 0)" stroke="rgb(204, 204, 204)" stroke-width="1px"></line><line x1="67.02499985694885" y1="0" x2="67.02499985694885" y2="5" style="visibility: inherit;" fill="rgb(0, 0, 0)" stroke="rgb(204, 204, 204)" stroke-width="1px"></line><line x1="89.3666664759318" y1="0" x2="89.3666664759318" y2="5" style="visibility: inherit;" fill="rgb(0, 0, 0)" stroke="rgb(204, 204, 204)" stroke-width="1px"></line><line x1="111.70833309491476" y1="0" x2="111.70833309491476" y2="5" style="visibility: inherit;" fill="rgb(0, 0, 0)" stroke="rgb(204, 204, 204)" stroke-width="1px"></line><line x1="134.0499997138977" y1="0" x2="134.0499997138977" y2="5" style="visibility: inherit;" fill="rgb(0, 0, 0)" stroke="rgb(204, 204, 204)" stroke-width="1px"></line><line x1="156.39166633288067" y1="0" x2="156.39166633288067" y2="5" style="visibility: inherit;" fill="rgb(0, 0, 0)" stroke="rgb(204, 204, 204)" stroke-width="1px"></line><line x1="178.7333329518636" y1="0" x2="178.7333329518636" y2="5" style="visibility: inherit;" fill="rgb(0, 0, 0)" stroke="rgb(204, 204, 204)" stroke-width="1px"></line><line x1="201.07499957084656" y1="0" x2="201.07499957084656" y2="5" style="visibility: inherit;" fill="rgb(0, 0, 0)" stroke="rgb(204, 204, 204)" stroke-width="1px"></line><line x1="223.41666618982953" y1="0" x2="223.41666618982953" y2="5" style="visibility: inherit;" fill="rgb(0, 0, 0)" stroke="rgb(204, 204, 204)" stroke-width="1px"></line><line x1="245.75833280881244" y1="0" x2="245.75833280881244" y2="5" style="visibility: inherit;" fill="rgb(0, 0, 0)" stroke="rgb(204, 204, 204)" stroke-width="1px"></line><line x1="268.0999994277954" y1="0" x2="268.0999994277954" y2="5" style="visibility: inherit;" fill="rgb(0, 0, 0)" stroke="rgb(204, 204, 204)" stroke-width="1px"></line></g><g transform="translate(0, 8)"><text style="text-anchor: middle; visibility: hidden; font-family: &quot;Helvetica Neue&quot;, sans-serif; font-size: 12px; font-weight: 200;" x="0" y="0" dx="0em" dy="0.95em" fill="rgb(50, 49, 63)" stroke="none" stroke-width="1px">-5k</text><text style="text-anchor: middle; visibility: inherit; font-family: &quot;Helvetica Neue&quot;, sans-serif; font-size: 12px; font-weight: 200;" x="22.34166661898295" y="0" dx="0em" dy="0.95em" fill="rgb(50, 49, 63)" stroke="none" stroke-width="1px">0</text><text style="text-anchor: middle; visibility: hidden; font-family: &quot;Helvetica Neue&quot;, sans-serif; font-size: 12px; font-weight: 200;" x="44.6833332379659" y="0" dx="0em" dy="0.95em" fill="rgb(50, 49, 63)" stroke="none" stroke-width="1px">5k</text><text style="text-anchor: middle; visibility: inherit; font-family: &quot;Helvetica Neue&quot;, sans-serif; font-size: 12px; font-weight: 200;" x="67.02499985694885" y="0" dx="0em" dy="0.95em" fill="rgb(50, 49, 63)" stroke="none" stroke-width="1px">10k</text><text style="text-anchor: middle; visibility: hidden; font-family: &quot;Helvetica Neue&quot;, sans-serif; font-size: 12px; font-weight: 200;" x="89.3666664759318" y="0" dx="0em" dy="0.95em" fill="rgb(50, 49, 63)" stroke="none" stroke-width="1px">15k</text><text style="text-anchor: middle; visibility: inherit; font-family: &quot;Helvetica Neue&quot;, sans-serif; font-size: 12px; font-weight: 200;" x="111.70833309491476" y="0" dx="0em" dy="0.95em" fill="rgb(50, 49, 63)" stroke="none" stroke-width="1px">20k</text><text style="text-anchor: middle; visibility: hidden; font-family: &quot;Helvetica Neue&quot;, sans-serif; font-size: 12px; font-weight: 200;" x="134.0499997138977" y="0" dx="0em" dy="0.95em" fill="rgb(50, 49, 63)" stroke="none" stroke-width="1px">25k</text><text style="text-anchor: middle; visibility: inherit; font-family: &quot;Helvetica Neue&quot;, sans-serif; font-size: 12px; font-weight: 200;" x="156.39166633288067" y="0" dx="0em" dy="0.95em" fill="rgb(50, 49, 63)" stroke="none" stroke-width="1px">30k</text><text style="text-anchor: middle; visibility: hidden; font-family: &quot;Helvetica Neue&quot;, sans-serif; font-size: 12px; font-weight: 200;" x="178.7333329518636" y="0" dx="0em" dy="0.95em" fill="rgb(50, 49, 63)" stroke="none" stroke-width="1px">35k</text><text style="text-anchor: middle; visibility: inherit; font-family: &quot;Helvetica Neue&quot;, sans-serif; font-size: 12px; font-weight: 200;" x="201.07499957084656" y="0" dx="0em" dy="0.95em" fill="rgb(50, 49, 63)" stroke="none" stroke-width="1px">40k</text><text style="text-anchor: middle; visibility: hidden; font-family: &quot;Helvetica Neue&quot;, sans-serif; font-size: 12px; font-weight: 200;" x="223.41666618982953" y="0" dx="0em" dy="0.95em" fill="rgb(50, 49, 63)" stroke="none" stroke-width="1px">45k</text><text style="text-anchor: middle; visibility: inherit; font-family: &quot;Helvetica Neue&quot;, sans-serif; font-size: 12px; font-weight: 200;" x="245.75833280881244" y="0" dx="0em" dy="0.95em" fill="rgb(50, 49, 63)" stroke="none" stroke-width="1px">50k</text><text style="text-anchor: middle; visibility: hidden; font-family: &quot;Helvetica Neue&quot;, sans-serif; font-size: 12px; font-weight: 200;" x="268.0999994277954" y="0" dx="0em" dy="0.95em" fill="rgb(50, 49, 63)" stroke="none" stroke-width="1px">55k</text></g><line x1="0" y1="0" x2="268.0999994277954" y2="0" fill="rgb(0, 0, 0)" stroke="rgb(204, 204, 204)" stroke-width="1px"></line></g></g></g></g></svg>