<svg viewBox="0 0 330 200" xmlns="http://www.w3.org/2000/svg"><g><g><g><g><g><line x1="61.90000057220459" y1="177.95999908447266" x2="56.90000057220459" y2="177.95999908447266" style="visibility: inherit;" fill="rgb(0, 0, 0)" stroke="rgb(204, 204, 204)" stroke-width="1px"></line><line x1="61.90000057220459" y1="155.71499919891357" x2="56.90000057220459" y2="155.71499919891357" style="visibility: inherit;" fill="rgb(0, 0, 0)" stroke="rgb(204, 204, 204)" stroke-width="1px"></line><line x1="61.90000057220459" y1="133.4699993133545" x2="56.90000057220459" y2="133.4699993133545" style="visibility: inherit;" fill="rgb(0, 0, 0)" stroke="rgb(204, 204, 204)" stroke-width="1px"></line><line x1="61.90000057220459" y1="111.2249994277954" x2="56.90000057220459" y2="111.2249994277954" style="visibility: inherit;" fill="rgb(0, 0, 0)" stroke="rgb(204, 204, 204)" stroke-width="1px"></line><line x1="61.90000057220459" y1="88.97999954223631" x2="56.90000057220459" y2="88.97999954223631" style="visibility: inherit;" fill="rgb(0, 0, 0)" stroke="rgb(204, 204, 204)" stroke-width="1px"></line><line x1="61.90000057220459" y1="66.73499965667725" x2="56.90000057220459" y2="66.73499965667725" style="visibility: inherit;" fill="rgb(0, 0, 0)" stroke="rgb(204, 204, 204)" stroke-width="1px"></line><line x1="61.90000057220459" y1="44.489999771118164" x2="56.90000057220459" y2="44.489999771118164" style="visibility: inherit;" fill="rgb(0, 0, 0)" stroke="rgb(204, 204, 204)" stroke-width="1px"></line><line x1="61.90000057220459" y1="22.244999885559082" x2="56.90000057220459" y2="22.244999885559082" style="visibility: inherit;" fill="rgb(0, 0, 0)" stroke="rgb(204, 204, 204)" stroke-width="1px"></line><line x1="61.90000057220459" y1="0" x2="56.90000057220459" y2="0" style="visibility: inherit;" fill="rgb(0, 0, 0)" stroke="rgb(204, 204, 204)" stroke-width="1px"></line></g><g transform="translate(51.90000057220459, 0)"><text style="text-anchor: end; visibility: hidden; font-family: &quot;Helvetica Neue&quot;, sans-serif; font-size: 12px; font-weight: 200;" x="0" y="177.95999908447266" dx="0em" dy="0.3em" fill="rgb(50, 49, 63)" stroke="none" stroke-width="1px">-0.05</text><text style="text-anchor: end; visibility: inherit; font-family: &quot;Helvetica Neue&quot;, sans-serif; font-size: 12px; font-weight: 200;" x="0" y="155.71499919891357" dx="0em" dy="0.3em" fill="rgb(50, 49, 63)" stroke="none" stroke-width="1px">0</text><text style="text-anchor: end; visibility: hidden; font-family: &quot;Helvetica Neue&quot;, sans-serif; font-size: 12px; font-weight: 200;" x="0" y="133.4699993133545" dx="0em" dy="0.3em" fill="rgb(50, 49, 63)" stroke="none" stroke-width="1px">0.05</text><text style="text-anchor: end; visibility: inherit; font-family: &quot;Helvetica Neue&quot;, sans-serif; font-size: 12px; font-weight: 200;" x="0" y="111.2249994277954" dx="0em" dy="0.3em" fill="rgb(50, 49, 63)" stroke="none" stroke-width="1px">0.1</text><text style="text-anchor: end; visibility: hidden; font-family: &quot;Helvetica Neue&quot;, sans-serif; font-size: 12px; font-weight: 200;" x="0" y="88.97999954223631" dx="0em" dy="0.3em" fill="rgb(50, 49, 63)" stroke="none" stroke-width="1px">0.15</text><text style="text-anchor: end; visibility: inherit; font-family: &quot;Helvetica Neue&quot;, sans-serif; font-size: 12px; font-weight: 200;" x="0" y="66.73499965667725" dx="0em" dy="0.3em" fill="rgb(50, 49, 63)" stroke="none" stroke-width="1px">0.2</text><text style="text-anchor: end; visibility: hidden; font-family: &quot;Helvetica Neue&quot;, sans-serif; font-size: 12px; font-weight: 200;" x="0" y="44.489999771118164" dx="0em" dy="0.3em" fill="rgb(50, 49, 63)" stroke="none" stroke-width="1px">0.25</text><text style="text-anchor: end; visibility: inherit; font-family: &quot;Helvetica Neue&quot;, sans-serif; font-size: 12px; font-weight: 200;" x="0" y="22.244999885559082" dx="0em" dy="0.3em" fill="rgb(50, 49, 63)" stroke="none" stroke-width="1px">0.3</text><text style="text-anchor: end; visibility: hidden; font-family: &quot;Helvetica Neue&quot;, sans-serif; font-size: 12px; font-weight: 200;" x="0" y="0" dx="0em" dy="0.3em" fill="rgb(50, 49, 63)" stroke="none" stroke-width="1px">0.35</text></g><line x1="61.90000057220459" y1="0" x2="61.90000057220459" y2="177.95999908447266" fill="rgb(0, 0, 0)" stroke="rgb(204, 204, 204)" stroke-width="1px"></line></g></g><g transform="translate(61, 0)" clip-path="url(#clip_0)"><clipPath id="clip_0"><rect width="268" height="177"></rect></clipPath><g><g><g><line x1="0" y1="0" x2="0" y2="177.95999908447266" fill="rgb(0, 0, 0)" stroke="rgb(60, 60, 60)" stroke-width="1px" opacity="0.25"></line><line x1="33.512499928474426" y1="0" x2="33.512499928474426" y2="177.95999908447266" fill="rgb(0, 0, 0)" stroke="rgb(60, 60, 60)" stroke-width="1px" opacity="0.25"></line><line x1="67.02499985694885" y1="0" x2="67.02499985694885" y2="177.95999908447266" fill="rgb(0, 0, 0)" stroke="rgb(60, 60, 60)" stroke-width="1px" opacity="0.25"></line><line x1="100.53749978542328" y1="0" x2="100.53749978542328" y2="177.95999908447266" fill="rgb(0, 0, 0)" stroke="rgb(60, 60, 60)" stroke-width="1px" opacity="0.25"></line><line x1="134.0499997138977" y1="0" x2="134.0499997138977" y2="177.95999908447266" fill="rgb(0, 0, 0)" stroke="rgb(60, 60, 60)" stroke-width="1px" opacity="0.25"></line><line x1="167.56249964237213" y1="0" x2="167.56249964237213" y2="177.95999908447266" fill="rgb(0, 0, 0)" stroke="rgb(60, 60, 60)" stroke-width="1px" opacity="0.25"></line><line x1="201.07499957084656" y1="0" x2="201.07499957084656" y2="177.95999908447266" fill="rgb(0, 0, 0)" stroke="rgb(60, 60, 60)" stroke-width="1px" opacity="0.25"></line><line x1="234.58749949932098" y1="0" x2="234.58749949932098" y2="177.95999908447266" fill="rgb(0, 0, 0)" stroke="rgb(60, 60, 60)" stroke-width="1px" opacity="0.25"></line><line x1="268.0999994277954" y1="0" x2="268.0999994277954" y2="177.95999908447266" fill="rgb(0, 0, 0)" stroke="rgb(60, 60, 60)" stroke-width="1px" opacity="0.25"></line></g><g><line x1="0" y1="177.95999908447266" x2="268.0999994277954" y2="177.95999908447266" fill="rgb(0, 0, 0)" stroke="rgb(60, 60, 60)" stroke-width="1px" opacity="0.25"></line><line x1="0" y1="155.71499919891357" x2="268.0999994277954" y2="155.71499919891357" fill="rgb(0, 0, 0)" stroke="rgb(60, 60, 60)" stroke-width="1px" opacity="0.25"></line><line x1="0" y1="133.4699993133545" x2="268.0999994277954" y2="133.4699993133545" fill="rgb(0, 0, 0)" stroke="rgb(60, 60, 60)" stroke-width="1px" opacity="0.25"></line><line x1="0" y1="111.2249994277954" x2="268.0999994277954" y2="111.2249994277954" fill="rgb(0, 0, 0)" stroke="rgb(60, 60, 60)" stroke-width="1px" opacity="0.25"></line><line x1="0" y1="88.97999954223631" x2="268.0999994277954" y2="88.97999954223631" fill="rgb(0, 0, 0)" stroke="rgb(60, 60, 60)" stroke-width="1px" opacity="0.25"></line><line x1="0" y1="66.73499965667725" x2="268.0999994277954" y2="66.73499965667725" fill="rgb(0, 0, 0)" stroke="rgb(60, 60, 60)" stroke-width="1px" opacity="0.25"></line><line x1="0" y1="44.489999771118164" x2="268.0999994277954" y2="44.489999771118164" fill="rgb(0, 0, 0)" stroke="rgb(60, 60, 60)" stroke-width="1px" opacity="0.25"></line><line x1="0" y1="22.244999885559082" x2="268.0999994277954" y2="22.244999885559082" fill="rgb(0, 0, 0)" stroke="rgb(60, 60, 60)" stroke-width="1px" opacity="0.25"></line><line x1="0" y1="0" x2="268.0999994277954" y2="0" fill="rgb(0, 0, 0)" stroke="rgb(60, 60, 60)" stroke-width="1px" opacity="0.25"></line></g></g></g><g><g><line x1="0" y1="155.71499919891357" x2="268.0999994277954" y2="155.71499919891357" fill="rgb(0, 0, 0)" stroke="rgb(153, 153, 153)" stroke-width="1.5px"></line></g></g><g><g><line x1="33.512499928474426" y1="0" x2="33.512499928474426" y2="177.95999908447266" fill="rgb(0, 0, 0)" stroke="rgb(153, 153, 153)" stroke-width="1.5px"></line></g></g><g><g><g><g><g><path style="fill: none;" stroke="rgb(0, 119, 187)" stroke-width="2px" d="M33.94213017755747,154.9183159895831L35.6593106738925,146.71320094589643L36.92206167119741,131.73915058042957L39.83027641499043,120.83217720975219L43.12656590795517,109.67355363958524L44.69495090460777,91.36040796366592L46.24657965129614,83.34839968657923L47.79418689799309,101.83266670260826L51.08176314097643,94.93481666273061L52.651488637626166,84.05758003353247L54.223895134270194,63.20812333729327L55.79831238090992,67.84914993845439L57.37272962754965,64.36029527991798L58.94111462420225,63.14538149773034L60.516872370839124,58.17922965398202L62.082576367497445,41.465066123669544L63.642248114168645,53.15034260019735L65.22202736079693,54.616230370163294L66.79644460743665,49.22228843519383L68.36348910409212,62.52746321369165L69.94728985071183,53.30624254727701L71.51768559736013,66.07715703766223L73.08405984401703,49.22989913170886L76.39174358695746,47.48071843188205L79.68401157993078,54.893815277637884L81.24636432659626,47.95413292503389L84.53461081957816,46.52436944540801L86.10299581623077,53.99261069326491L87.67138081288338,33.207791881190815L89.24110630953312,67.26925861888452L92.53605530250073,40.677929173649886L94.10779154914617,43.17240788124343L95.66210129582882,38.331752975674135L97.22646479248999,42.47274090493397L100.53012703543901,37.310752845981824L102.09784178209304,39.2842833548375L103.66488627874851,44.08883385864647L105.23260102540254,41.12473274710544L108.52017726838588,37.96289937575841L110.08521101504564,38.6853851825598L111.65359601169826,39.70637205319895L114.93782100468874,36.08822836727916L116.4941415013671,46.88941769706622L118.05649424803256,36.30688341297491L119.6242089946866,32.93970708530685L122.89770998769998,42.33204909183121L124.45604123437404,35.43609509655573L126.02576673102378,30.10110291194485L127.59683272767067,36.432367092100776L129.162536724329,44.32648912752347L130.73628372097016,33.04047588933861L132.30399846762418,30.365369100518137L133.8723834642768,43.2218508904848L135.44814121091366,33.38841996241774L137.01719645756484,36.111047197771086L138.58759220421314,49.868726942584146L140.1660309508443,33.664102195763576L141.73106469750402,33.184973050698886L145.02601369047164,34.35806777921334L146.60378218710423,38.13021536761062L148.17082668375969,22.55871703880564L149.73384968042373,37.23471217609733L153.035501173377,30.376785145290683L154.61662092000245,40.879466781713404L156.21248616659642,34.840989013482385L159.54966090947391,34.4436284492682L161.11000290614365,34.99690221961521L162.67168540281057,40.60378454836757L164.23135714948177,41.92897387570417L165.8118066461086,39.5846937223306L167.411693392694,37.94958728638369L169.0310173892379,37.94769124178151L170.6382768858075,38.77854329007653L172.24084463238717,29.43564429279354L173.84676362895965,39.0713429610546L175.44128837555647,41.885245518375655L177.04653712213042,40.314790225647016L178.64441311872005,33.97970743818041L180.2510023652911,34.8600024957168L181.84351636189223,31.28560042617869L183.4434031084776,33.75536425867813L185.04328985506297,33.28384581012847L186.6458576016426,36.40195082414698L188.23971209824086,39.058030871679875L191.56951409113407,34.16793295686921L193.14728258776665,42.362465359785006L194.72371058440208,32.4472791099206L196.30416008102893,43.683862597917255L199.63396207392216,32.56136000332708L201.23585957050324,40.41745507428095L202.81899006712436,39.14739688999225L204.42557931369544,37.839311741234724L206.0234553102851,41.90806434886758L209.3907913030982,41.46126077541203L212.7561165459156,33.66980358862327L214.34527929252386,22.549210297688433L215.9411445391178,43.710473517613536L217.5383502857089,40.877557478058065L219.13622628229857,36.58066960171857L222.48412502515316,37.0293692197763L224.0685960217714,36.5160184585003L225.66714226835964,34.75163625422317L227.25764551496505,32.95491521928375L230.60420375782252,31.141103264818412L232.17392925447226,28.270160260794114" fill="none"></path></g></g></g></g></g></g><g transform="translate(61, 177)" clip-path="url(#clip_1)"><clipPath id="clip_1"><rect width="268" height="22"></rect></clipPath><g><g><line x1="0" y1="0" x2="0" y2="5" style="visibility: inherit;" fill="rgb(0, 0, 0)" stroke="rgb(204, 204, 204)" stroke-width="1px"></line><line x1="33.512499928474426" y1="0" x2="33.512499928474426" y2="5" style="visibility: inherit;" fill="rgb(0, 0, 0)" stroke="rgb(204, 204, 204)" stroke-width="1px"></line><line x1="67.02499985694885" y1="0" x2="67.02499985694885" y2="5" style="visibility: inherit;" fill="rgb(0, 0, 0)" stroke="rgb(204, 204, 204)" stroke-width="1px"></line><line x1="100.53749978542328" y1="0" x2="100.53749978542328" y2="5" style="visibility: inherit;" fill="rgb(0, 0, 0)" stroke="rgb(204, 204, 204)" stroke-width="1px"></line><line x1="134.0499997138977" y1="0" x2="134.0499997138977" y2="5" style="visibility: inherit;" fill="rgb(0, 0, 0)" stroke="rgb(204, 204, 204)" stroke-width="1px"></line><line x1="167.56249964237213" y1="0" x2="167.56249964237213" y2="5" style="visibility: inherit;" fill="rgb(0, 0, 0)" stroke="rgb(204, 204, 204)" stroke-width="1px"></line><line x1="201.07499957084656" y1="0" x2="201.07499957084656" y2="5" style="visibility: inherit;" fill="rgb(0, 0, 0)" stroke="rgb(204, 204, 204)" stroke-width="1px"></line><line x1="234.58749949932098" y1="0" x2="234.58749949932098" y2="5" style="visibility: inherit;" fill="rgb(0, 0, 0)" stroke="rgb(204, 204, 204)" stroke-width="1px"></line><line x1="268.0999994277954" y1="0" x2="268.0999994277954" y2="5" style="visibility: inherit;" fill="rgb(0, 0, 0)" stroke="rgb(204, 204, 204)" stroke-width="1px"></line></g><g transform="translate(0, 8)"><text style="text-anchor: middle; visibility: hidden; font-family: &quot;Helvetica Neue&quot;, sans-serif; font-size: 12px; font-weight: 200;" x="0" y="0" dx="0em" dy="0.95em" fill="rgb(50, 49, 63)" stroke="none" stroke-width="1px">-50k</text><text style="text-anchor: middle; visibility: inherit; font-family: &quot;Helvetica Neue&quot;, sans-serif; font-size: 12px; font-weight: 200;" x="33.512499928474426" y="0" dx="0em" dy="0.95em" fill="rgb(50, 49, 63)" stroke="none" stroke-width="1px">0</text><text style="text-anchor: middle; visibility: hidden; font-family: &quot;Helvetica Neue&quot;, sans-serif; font-size: 12px; font-weight: 200;" x="67.02499985694885" y="0" dx="0em" dy="0.95em" fill="rgb(50, 49, 63)" stroke="none" stroke-width="1px">50k</text><text style="text-anchor: middle; visibility: inherit; font-family: &quot;Helvetica Neue&quot;, sans-serif; font-size: 12px; font-weight: 200;" x="100.53749978542328" y="0" dx="0em" dy="0.95em" fill="rgb(50, 49, 63)" stroke="none" stroke-width="1px">100k</text><text style="text-anchor: middle; visibility: hidden; font-family: &quot;Helvetica Neue&quot;, sans-serif; font-size: 12px; font-weight: 200;" x="134.0499997138977" y="0" dx="0em" dy="0.95em" fill="rgb(50, 49, 63)" stroke="none" stroke-width="1px">150k</text><text style="text-anchor: middle; visibility: inherit; font-family: &quot;Helvetica Neue&quot;, sans-serif; font-size: 12px; font-weight: 200;" x="167.56249964237213" y="0" dx="0em" dy="0.95em" fill="rgb(50, 49, 63)" stroke="none" stroke-width="1px">200k</text><text style="text-anchor: middle; visibility: hidden; font-family: &quot;Helvetica Neue&quot;, sans-serif; font-size: 12px; font-weight: 200;" x="201.07499957084656" y="0" dx="0em" dy="0.95em" fill="rgb(50, 49, 63)" stroke="none" stroke-width="1px">250k</text><text style="text-anchor: middle; visibility: inherit; font-family: &quot;Helvetica Neue&quot;, sans-serif; font-size: 12px; font-weight: 200;" x="234.58749949932098" y="0" dx="0em" dy="0.95em" fill="rgb(50, 49, 63)" stroke="none" stroke-width="1px">300k</text><text style="text-anchor: middle; visibility: hidden; font-family: &quot;Helvetica Neue&quot;, sans-serif; font-size: 12px; font-weight: 200;" x="268.0999994277954" y="0" dx="0em" dy="0.95em" fill="rgb(50, 49, 63)" stroke="none" stroke-width="1px">350k</text></g><line x1="0" y1="0" x2="268.0999994277954" y2="0" fill="rgb(0, 0, 0)" stroke="rgb(204, 204, 204)" stroke-width="1px"></line></g></g></g></g></svg>