<svg viewBox="0 0 330 200" xmlns="http://www.w3.org/2000/svg"><g><g><g><g><g><line x1="51.52000045776367" y1="177.95999908447266" x2="46.52000045776367" y2="177.95999908447266" style="visibility: inherit;" fill="rgb(0, 0, 0)" stroke="rgb(204, 204, 204)" stroke-width="1px"></line><line x1="51.52000045776367" y1="158.18666585286462" x2="46.52000045776367" y2="158.18666585286462" style="visibility: inherit;" fill="rgb(0, 0, 0)" stroke="rgb(204, 204, 204)" stroke-width="1px"></line><line x1="51.52000045776367" y1="138.41333262125653" x2="46.52000045776367" y2="138.41333262125653" style="visibility: inherit;" fill="rgb(0, 0, 0)" stroke="rgb(204, 204, 204)" stroke-width="1px"></line><line x1="51.52000045776367" y1="118.63999938964844" x2="46.52000045776367" y2="118.63999938964844" style="visibility: inherit;" fill="rgb(0, 0, 0)" stroke="rgb(204, 204, 204)" stroke-width="1px"></line><line x1="51.52000045776367" y1="98.86666615804035" x2="46.52000045776367" y2="98.86666615804035" style="visibility: inherit;" fill="rgb(0, 0, 0)" stroke="rgb(204, 204, 204)" stroke-width="1px"></line><line x1="51.52000045776367" y1="79.09333292643225" x2="46.52000045776367" y2="79.09333292643225" style="visibility: inherit;" fill="rgb(0, 0, 0)" stroke="rgb(204, 204, 204)" stroke-width="1px"></line><line x1="51.52000045776367" y1="59.31999969482426" x2="46.52000045776367" y2="59.31999969482426" style="visibility: inherit;" fill="rgb(0, 0, 0)" stroke="rgb(204, 204, 204)" stroke-width="1px"></line><line x1="51.52000045776367" y1="39.546666463216184" x2="46.52000045776367" y2="39.546666463216184" style="visibility: inherit;" fill="rgb(0, 0, 0)" stroke="rgb(204, 204, 204)" stroke-width="1px"></line><line x1="51.52000045776367" y1="19.773333231608092" x2="46.52000045776367" y2="19.773333231608092" style="visibility: inherit;" fill="rgb(0, 0, 0)" stroke="rgb(204, 204, 204)" stroke-width="1px"></line><line x1="51.52000045776367" y1="0" x2="46.52000045776367" y2="0" style="visibility: inherit;" fill="rgb(0, 0, 0)" stroke="rgb(204, 204, 204)" stroke-width="1px"></line></g><g transform="translate(41.52000045776367, 0)"><text style="text-anchor: end; visibility: hidden; font-family: &quot;Helvetica Neue&quot;, sans-serif; font-size: 12px; font-weight: 200;" x="0" y="177.95999908447266" dx="0em" dy="0.3em" fill="rgb(50, 49, 63)" stroke="none" stroke-width="1px">0.23</text><text style="text-anchor: end; visibility: inherit; font-family: &quot;Helvetica Neue&quot;, sans-serif; font-size: 12px; font-weight: 200;" x="0" y="158.18666585286462" dx="0em" dy="0.3em" fill="rgb(50, 49, 63)" stroke="none" stroke-width="1px">0.24</text><text style="text-anchor: end; visibility: hidden; font-family: &quot;Helvetica Neue&quot;, sans-serif; font-size: 12px; font-weight: 200;" x="0" y="138.41333262125653" dx="0em" dy="0.3em" fill="rgb(50, 49, 63)" stroke="none" stroke-width="1px">0.25</text><text style="text-anchor: end; visibility: inherit; font-family: &quot;Helvetica Neue&quot;, sans-serif; font-size: 12px; font-weight: 200;" x="0" y="118.63999938964844" dx="0em" dy="0.3em" fill="rgb(50, 49, 63)" stroke="none" stroke-width="1px">0.26</text><text style="text-anchor: end; visibility: hidden; font-family: &quot;Helvetica Neue&quot;, sans-serif; font-size: 12px; font-weight: 200;" x="0" y="98.86666615804035" dx="0em" dy="0.3em" fill="rgb(50, 49, 63)" stroke="none" stroke-width="1px">0.27</text><text style="text-anchor: end; visibility: inherit; font-family: &quot;Helvetica Neue&quot;, sans-serif; font-size: 12px; font-weight: 200;" x="0" y="79.09333292643225" dx="0em" dy="0.3em" fill="rgb(50, 49, 63)" stroke="none" stroke-width="1px">0.28</text><text style="text-anchor: end; visibility: hidden; font-family: &quot;Helvetica Neue&quot;, sans-serif; font-size: 12px; font-weight: 200;" x="0" y="59.31999969482426" dx="0em" dy="0.3em" fill="rgb(50, 49, 63)" stroke="none" stroke-width="1px">0.29</text><text style="text-anchor: end; visibility: inherit; font-family: &quot;Helvetica Neue&quot;, sans-serif; font-size: 12px; font-weight: 200;" x="0" y="39.546666463216184" dx="0em" dy="0.3em" fill="rgb(50, 49, 63)" stroke="none" stroke-width="1px">0.3</text><text style="text-anchor: end; visibility: hidden; font-family: &quot;Helvetica Neue&quot;, sans-serif; font-size: 12px; font-weight: 200;" x="0" y="19.773333231608092" dx="0em" dy="0.3em" fill="rgb(50, 49, 63)" stroke="none" stroke-width="1px">0.31</text><text style="text-anchor: end; visibility: hidden; font-family: &quot;Helvetica Neue&quot;, sans-serif; font-size: 12px; font-weight: 200;" x="0" y="0" dx="0em" dy="0.3em" fill="rgb(50, 49, 63)" stroke="none" stroke-width="1px">0.32</text></g><line x1="51.52000045776367" y1="0" x2="51.52000045776367" y2="177.95999908447266" fill="rgb(0, 0, 0)" stroke="rgb(204, 204, 204)" stroke-width="1px"></line></g></g><g transform="translate(51, 0)" clip-path="url(#clip_0)"><clipPath id="clip_0"><rect width="278" height="177"></rect></clipPath><g><g><g><line x1="0" y1="0" x2="0" y2="177.95999908447266" fill="rgb(0, 0, 0)" stroke="rgb(60, 60, 60)" stroke-width="1px" opacity="0.25"></line><line x1="34.80999994277954" y1="0" x2="34.80999994277954" y2="177.95999908447266" fill="rgb(0, 0, 0)" stroke="rgb(60, 60, 60)" stroke-width="1px" opacity="0.25"></line><line x1="69.61999988555908" y1="0" x2="69.61999988555908" y2="177.95999908447266" fill="rgb(0, 0, 0)" stroke="rgb(60, 60, 60)" stroke-width="1px" opacity="0.25"></line><line x1="104.42999982833862" y1="0" x2="104.42999982833862" y2="177.95999908447266" fill="rgb(0, 0, 0)" stroke="rgb(60, 60, 60)" stroke-width="1px" opacity="0.25"></line><line x1="139.23999977111816" y1="0" x2="139.23999977111816" y2="177.95999908447266" fill="rgb(0, 0, 0)" stroke="rgb(60, 60, 60)" stroke-width="1px" opacity="0.25"></line><line x1="174.0499997138977" y1="0" x2="174.0499997138977" y2="177.95999908447266" fill="rgb(0, 0, 0)" stroke="rgb(60, 60, 60)" stroke-width="1px" opacity="0.25"></line><line x1="208.85999965667725" y1="0" x2="208.85999965667725" y2="177.95999908447266" fill="rgb(0, 0, 0)" stroke="rgb(60, 60, 60)" stroke-width="1px" opacity="0.25"></line><line x1="243.6699995994568" y1="0" x2="243.6699995994568" y2="177.95999908447266" fill="rgb(0, 0, 0)" stroke="rgb(60, 60, 60)" stroke-width="1px" opacity="0.25"></line><line x1="278.4799995422363" y1="0" x2="278.4799995422363" y2="177.95999908447266" fill="rgb(0, 0, 0)" stroke="rgb(60, 60, 60)" stroke-width="1px" opacity="0.25"></line></g><g><line x1="0" y1="177.95999908447266" x2="278.4799995422363" y2="177.95999908447266" fill="rgb(0, 0, 0)" stroke="rgb(60, 60, 60)" stroke-width="1px" opacity="0.25"></line><line x1="0" y1="158.18666585286462" x2="278.4799995422363" y2="158.18666585286462" fill="rgb(0, 0, 0)" stroke="rgb(60, 60, 60)" stroke-width="1px" opacity="0.25"></line><line x1="0" y1="138.41333262125653" x2="278.4799995422363" y2="138.41333262125653" fill="rgb(0, 0, 0)" stroke="rgb(60, 60, 60)" stroke-width="1px" opacity="0.25"></line><line x1="0" y1="118.63999938964844" x2="278.4799995422363" y2="118.63999938964844" fill="rgb(0, 0, 0)" stroke="rgb(60, 60, 60)" stroke-width="1px" opacity="0.25"></line><line x1="0" y1="98.86666615804035" x2="278.4799995422363" y2="98.86666615804035" fill="rgb(0, 0, 0)" stroke="rgb(60, 60, 60)" stroke-width="1px" opacity="0.25"></line><line x1="0" y1="79.09333292643225" x2="278.4799995422363" y2="79.09333292643225" fill="rgb(0, 0, 0)" stroke="rgb(60, 60, 60)" stroke-width="1px" opacity="0.25"></line><line x1="0" y1="59.31999969482426" x2="278.4799995422363" y2="59.31999969482426" fill="rgb(0, 0, 0)" stroke="rgb(60, 60, 60)" stroke-width="1px" opacity="0.25"></line><line x1="0" y1="39.546666463216184" x2="278.4799995422363" y2="39.546666463216184" fill="rgb(0, 0, 0)" stroke="rgb(60, 60, 60)" stroke-width="1px" opacity="0.25"></line><line x1="0" y1="19.773333231608092" x2="278.4799995422363" y2="19.773333231608092" fill="rgb(0, 0, 0)" stroke="rgb(60, 60, 60)" stroke-width="1px" opacity="0.25"></line><line x1="0" y1="0" x2="278.4799995422363" y2="0" fill="rgb(0, 0, 0)" stroke="rgb(60, 60, 60)" stroke-width="1px" opacity="0.25"></line></g></g></g><g><g><line x1="0" y1="632.7466634114584" x2="278.4799995422363" y2="632.7466634114584" fill="rgb(0, 0, 0)" stroke="rgb(153, 153, 153)" stroke-width="1.5px"></line></g></g><g><g><line x1="34.80999994277954" y1="0" x2="34.80999994277954" y2="177.95999908447266" fill="rgb(0, 0, 0)" stroke="rgb(153, 153, 153)" stroke-width="1.5px"></line></g></g><g><g><g><g><g><path style="fill: none;" stroke="rgb(0, 119, 187)" stroke-width="2px" d="M44.796292726364136,-72.14001908859518L46.42540072368622,36.48380161112712L48.037103721036914,30.520056286201907L49.644629518394474,3.885623868979593L53.05949051278114,46.64601138754159L54.68999091010093,70.5908596031186L56.323276107416156,56.17337769855598L57.958649904727935,100.84183136082812L59.59402370203972,99.41221078433078L61.2231316993618,109.17158106111887L62.8598978966713,115.93369817377638L64.48622109399795,104.85531728842521L66.10627849133492,101.85535338453703L67.74722188863754,86.46483376525372L69.38259568594933,105.73689700089018L71.0103112832737,95.9032170972693L72.65543188056947,79.48078956722567L74.2866284778881,102.43079629177102L75.91364787521363,117.64293744918058L79.34939486956597,103.62923791024697L82.76912926394463,112.20690244010592L84.39197146127701,93.30974629876772L87.80752865566254,102.22837474683003L89.43663665298462,104.11092457934382L91.06574465030671,133.83948964246764L92.6962450476265,98.03810144373864L96.11876424200058,126.19325886496307L97.75135323931694,132.1865276815958L99.36584103666306,122.38260698618313L100.990771833992,124.30045536467061L104.4223416283512,112.05739924956289L106.05075342567443,139.7416834961582L107.67846902299881,133.10588096329138L109.30688082032204,115.89940142293048L112.72174181470871,141.3862480566941L114.3473688120365,137.25667175252238L115.9764768093586,116.73095030813057L119.38785680375099,122.65574348132185L121.00443320109368,140.45725986303404L122.62727539842605,146.1833734907323L124.25568719574927,120.91521284045517L127.65592799015998,112.93862538727689L129.27459298749923,118.89058488716911L130.90509338481903,146.41690961376028L132.53698618213653,105.49746796534572L134.1633093794632,142.3142049906637L135.79798697677612,137.74973174277605L137.42639877409937,129.44072509454327L139.05550677142142,111.11818685268678L140.69227296873092,126.12454750502096L142.32207716605186,138.53675967391413L143.9532737633705,132.43473715678982L145.59282476067543,130.48907423122455L147.21845175800323,143.22916805253456L150.6409709523773,162.00675699891343L152.27982574968337,148.5549466684259L153.90754134700774,138.18639656024698L155.531079744339,130.84282576958867L158.96056093870163,133.09745409839283L160.60289673600195,119.80893637373691L162.26054893327714,120.12951081463326L165.72692872757912,135.09373714247462L167.34768232491493,115.6936209178551L168.96982832224845,120.81126186366451L170.58988571958542,138.7706493716931L172.2315253168869,131.77325772681525L173.89335471415518,130.38388574280546L175.5753739113903,134.41693613995724L177.244861508646,128.98508509876928L178.90947570590973,128.33945760346404L180.57757090316773,124.69398406252095L182.23383070044517,128.04316196213557L183.90122969770434,116.44196187832253L185.56097049497603,138.1532783919044L187.2297618922329,138.65570811305923L188.8839330895138,155.58819668596655L190.54576248678208,138.7217971269315L192.20759188405037,111.14258351050499L193.8722060813141,138.46666347953064L195.52776967859268,136.91010956742838L198.98649127290724,152.3314196546103L200.6253460702133,135.08212810481717L202.26280846752167,143.727885238804L203.90444806482316,154.7768310261354L207.36316965913772,136.31710578089528L209.0270876564026,155.1138466929527L210.6715120536995,139.64530491195123L212.34030345095636,143.45354069659942L214.00004424822808,146.19009141100108L217.49775304247856,148.57896028693057L220.99337323673248,139.59742499775484L222.64406343401907,148.16651533990233L224.30171563129426,142.5015996086877L225.9607602285671,154.48212647118638L227.62050102583885,116.51574114302883L231.09802002012253,135.1123587460267L232.74383681741713,134.17167312102146L234.4042738146877,127.68646396751322L236.05635641197205,131.6627656171313L239.53248300625802,148.04800886919597L241.1629834035778,126.96965008900892" fill="none"></path></g></g></g></g></g></g><g transform="translate(51, 177)" clip-path="url(#clip_1)"><clipPath id="clip_1"><rect width="278" height="22"></rect></clipPath><g><g><line x1="0" y1="0" x2="0" y2="5" style="visibility: inherit;" fill="rgb(0, 0, 0)" stroke="rgb(204, 204, 204)" stroke-width="1px"></line><line x1="34.80999994277954" y1="0" x2="34.80999994277954" y2="5" style="visibility: inherit;" fill="rgb(0, 0, 0)" stroke="rgb(204, 204, 204)" stroke-width="1px"></line><line x1="69.61999988555908" y1="0" x2="69.61999988555908" y2="5" style="visibility: inherit;" fill="rgb(0, 0, 0)" stroke="rgb(204, 204, 204)" stroke-width="1px"></line><line x1="104.42999982833862" y1="0" x2="104.42999982833862" y2="5" style="visibility: inherit;" fill="rgb(0, 0, 0)" stroke="rgb(204, 204, 204)" stroke-width="1px"></line><line x1="139.23999977111816" y1="0" x2="139.23999977111816" y2="5" style="visibility: inherit;" fill="rgb(0, 0, 0)" stroke="rgb(204, 204, 204)" stroke-width="1px"></line><line x1="174.0499997138977" y1="0" x2="174.0499997138977" y2="5" style="visibility: inherit;" fill="rgb(0, 0, 0)" stroke="rgb(204, 204, 204)" stroke-width="1px"></line><line x1="208.85999965667725" y1="0" x2="208.85999965667725" y2="5" style="visibility: inherit;" fill="rgb(0, 0, 0)" stroke="rgb(204, 204, 204)" stroke-width="1px"></line><line x1="243.6699995994568" y1="0" x2="243.6699995994568" y2="5" style="visibility: inherit;" fill="rgb(0, 0, 0)" stroke="rgb(204, 204, 204)" stroke-width="1px"></line><line x1="278.4799995422363" y1="0" x2="278.4799995422363" y2="5" style="visibility: inherit;" fill="rgb(0, 0, 0)" stroke="rgb(204, 204, 204)" stroke-width="1px"></line></g><g transform="translate(0, 8)"><text style="text-anchor: middle; visibility: hidden; font-family: &quot;Helvetica Neue&quot;, sans-serif; font-size: 12px; font-weight: 200;" x="0" y="0" dx="0em" dy="0.95em" fill="rgb(50, 49, 63)" stroke="none" stroke-width="1px">-50k</text><text style="text-anchor: middle; visibility: inherit; font-family: &quot;Helvetica Neue&quot;, sans-serif; font-size: 12px; font-weight: 200;" x="34.80999994277954" y="0" dx="0em" dy="0.95em" fill="rgb(50, 49, 63)" stroke="none" stroke-width="1px">0</text><text style="text-anchor: middle; visibility: hidden; font-family: &quot;Helvetica Neue&quot;, sans-serif; font-size: 12px; font-weight: 200;" x="69.61999988555908" y="0" dx="0em" dy="0.95em" fill="rgb(50, 49, 63)" stroke="none" stroke-width="1px">50k</text><text style="text-anchor: middle; visibility: inherit; font-family: &quot;Helvetica Neue&quot;, sans-serif; font-size: 12px; font-weight: 200;" x="104.42999982833862" y="0" dx="0em" dy="0.95em" fill="rgb(50, 49, 63)" stroke="none" stroke-width="1px">100k</text><text style="text-anchor: middle; visibility: hidden; font-family: &quot;Helvetica Neue&quot;, sans-serif; font-size: 12px; font-weight: 200;" x="139.23999977111816" y="0" dx="0em" dy="0.95em" fill="rgb(50, 49, 63)" stroke="none" stroke-width="1px">150k</text><text style="text-anchor: middle; visibility: inherit; font-family: &quot;Helvetica Neue&quot;, sans-serif; font-size: 12px; font-weight: 200;" x="174.0499997138977" y="0" dx="0em" dy="0.95em" fill="rgb(50, 49, 63)" stroke="none" stroke-width="1px">200k</text><text style="text-anchor: middle; visibility: hidden; font-family: &quot;Helvetica Neue&quot;, sans-serif; font-size: 12px; font-weight: 200;" x="208.85999965667725" y="0" dx="0em" dy="0.95em" fill="rgb(50, 49, 63)" stroke="none" stroke-width="1px">250k</text><text style="text-anchor: middle; visibility: inherit; font-family: &quot;Helvetica Neue&quot;, sans-serif; font-size: 12px; font-weight: 200;" x="243.6699995994568" y="0" dx="0em" dy="0.95em" fill="rgb(50, 49, 63)" stroke="none" stroke-width="1px">300k</text><text style="text-anchor: middle; visibility: hidden; font-family: &quot;Helvetica Neue&quot;, sans-serif; font-size: 12px; font-weight: 200;" x="278.4799995422363" y="0" dx="0em" dy="0.95em" fill="rgb(50, 49, 63)" stroke="none" stroke-width="1px">350k</text></g><line x1="0" y1="0" x2="278.4799995422363" y2="0" fill="rgb(0, 0, 0)" stroke="rgb(204, 204, 204)" stroke-width="1px"></line></g></g></g></g></svg>