<svg viewBox="0 0 330 200" xmlns="http://www.w3.org/2000/svg"><g><g><g><g><g><line x1="51.52000045776367" y1="177.95999908447266" x2="46.52000045776367" y2="177.95999908447266" style="visibility: inherit;" fill="rgb(0, 0, 0)" stroke="rgb(204, 204, 204)" stroke-width="1px"></line><line x1="51.52000045776367" y1="152.53714207240515" x2="46.52000045776367" y2="152.53714207240515" style="visibility: inherit;" fill="rgb(0, 0, 0)" stroke="rgb(204, 204, 204)" stroke-width="1px"></line><line x1="51.52000045776367" y1="127.1142850603376" x2="46.52000045776367" y2="127.1142850603376" style="visibility: inherit;" fill="rgb(0, 0, 0)" stroke="rgb(204, 204, 204)" stroke-width="1px"></line><line x1="51.52000045776367" y1="101.69142804827008" x2="46.52000045776367" y2="101.69142804827008" style="visibility: inherit;" fill="rgb(0, 0, 0)" stroke="rgb(204, 204, 204)" stroke-width="1px"></line><line x1="51.52000045776367" y1="76.26857103620257" x2="46.52000045776367" y2="76.26857103620257" style="visibility: inherit;" fill="rgb(0, 0, 0)" stroke="rgb(204, 204, 204)" stroke-width="1px"></line><line x1="51.52000045776367" y1="50.84571402413502" x2="46.52000045776367" y2="50.84571402413502" style="visibility: inherit;" fill="rgb(0, 0, 0)" stroke="rgb(204, 204, 204)" stroke-width="1px"></line><line x1="51.52000045776367" y1="25.42285701206754" x2="46.52000045776367" y2="25.42285701206754" style="visibility: inherit;" fill="rgb(0, 0, 0)" stroke="rgb(204, 204, 204)" stroke-width="1px"></line><line x1="51.52000045776367" y1="0" x2="46.52000045776367" y2="0" style="visibility: inherit;" fill="rgb(0, 0, 0)" stroke="rgb(204, 204, 204)" stroke-width="1px"></line></g><g transform="translate(41.52000045776367, 0)"><text style="text-anchor: end; visibility: hidden; font-family: &quot;Helvetica Neue&quot;, sans-serif; font-size: 12px; font-weight: 200;" x="0" y="177.95999908447266" dx="0em" dy="0.3em" fill="rgb(50, 49, 63)" stroke="none" stroke-width="1px">0.3</text><text style="text-anchor: end; visibility: inherit; font-family: &quot;Helvetica Neue&quot;, sans-serif; font-size: 12px; font-weight: 200;" x="0" y="152.53714207240515" dx="0em" dy="0.3em" fill="rgb(50, 49, 63)" stroke="none" stroke-width="1px">0.35</text><text style="text-anchor: end; visibility: inherit; font-family: &quot;Helvetica Neue&quot;, sans-serif; font-size: 12px; font-weight: 200;" x="0" y="127.1142850603376" dx="0em" dy="0.3em" fill="rgb(50, 49, 63)" stroke="none" stroke-width="1px">0.4</text><text style="text-anchor: end; visibility: inherit; font-family: &quot;Helvetica Neue&quot;, sans-serif; font-size: 12px; font-weight: 200;" x="0" y="101.69142804827008" dx="0em" dy="0.3em" fill="rgb(50, 49, 63)" stroke="none" stroke-width="1px">0.45</text><text style="text-anchor: end; visibility: inherit; font-family: &quot;Helvetica Neue&quot;, sans-serif; font-size: 12px; font-weight: 200;" x="0" y="76.26857103620257" dx="0em" dy="0.3em" fill="rgb(50, 49, 63)" stroke="none" stroke-width="1px">0.5</text><text style="text-anchor: end; visibility: inherit; font-family: &quot;Helvetica Neue&quot;, sans-serif; font-size: 12px; font-weight: 200;" x="0" y="50.84571402413502" dx="0em" dy="0.3em" fill="rgb(50, 49, 63)" stroke="none" stroke-width="1px">0.55</text><text style="text-anchor: end; visibility: inherit; font-family: &quot;Helvetica Neue&quot;, sans-serif; font-size: 12px; font-weight: 200;" x="0" y="25.42285701206754" dx="0em" dy="0.3em" fill="rgb(50, 49, 63)" stroke="none" stroke-width="1px">0.6</text><text style="text-anchor: end; visibility: hidden; font-family: &quot;Helvetica Neue&quot;, sans-serif; font-size: 12px; font-weight: 200;" x="0" y="0" dx="0em" dy="0.3em" fill="rgb(50, 49, 63)" stroke="none" stroke-width="1px">0.65</text></g><line x1="51.52000045776367" y1="0" x2="51.52000045776367" y2="177.95999908447266" fill="rgb(0, 0, 0)" stroke="rgb(204, 204, 204)" stroke-width="1px"></line></g></g><g transform="translate(51, 0)" clip-path="url(#clip_0)"><clipPath id="clip_0"><rect width="278" height="177"></rect></clipPath><g><g><g><line x1="0" y1="0" x2="0" y2="177.95999908447266" fill="rgb(0, 0, 0)" stroke="rgb(60, 60, 60)" stroke-width="1px" opacity="0.25"></line><line x1="34.80999994277954" y1="0" x2="34.80999994277954" y2="177.95999908447266" fill="rgb(0, 0, 0)" stroke="rgb(60, 60, 60)" stroke-width="1px" opacity="0.25"></line><line x1="69.61999988555908" y1="0" x2="69.61999988555908" y2="177.95999908447266" fill="rgb(0, 0, 0)" stroke="rgb(60, 60, 60)" stroke-width="1px" opacity="0.25"></line><line x1="104.42999982833862" y1="0" x2="104.42999982833862" y2="177.95999908447266" fill="rgb(0, 0, 0)" stroke="rgb(60, 60, 60)" stroke-width="1px" opacity="0.25"></line><line x1="139.23999977111816" y1="0" x2="139.23999977111816" y2="177.95999908447266" fill="rgb(0, 0, 0)" stroke="rgb(60, 60, 60)" stroke-width="1px" opacity="0.25"></line><line x1="174.0499997138977" y1="0" x2="174.0499997138977" y2="177.95999908447266" fill="rgb(0, 0, 0)" stroke="rgb(60, 60, 60)" stroke-width="1px" opacity="0.25"></line><line x1="208.85999965667725" y1="0" x2="208.85999965667725" y2="177.95999908447266" fill="rgb(0, 0, 0)" stroke="rgb(60, 60, 60)" stroke-width="1px" opacity="0.25"></line><line x1="243.6699995994568" y1="0" x2="243.6699995994568" y2="177.95999908447266" fill="rgb(0, 0, 0)" stroke="rgb(60, 60, 60)" stroke-width="1px" opacity="0.25"></line><line x1="278.4799995422363" y1="0" x2="278.4799995422363" y2="177.95999908447266" fill="rgb(0, 0, 0)" stroke="rgb(60, 60, 60)" stroke-width="1px" opacity="0.25"></line></g><g><line x1="0" y1="177.95999908447266" x2="278.4799995422363" y2="177.95999908447266" fill="rgb(0, 0, 0)" stroke="rgb(60, 60, 60)" stroke-width="1px" opacity="0.25"></line><line x1="0" y1="152.53714207240515" x2="278.4799995422363" y2="152.53714207240515" fill="rgb(0, 0, 0)" stroke="rgb(60, 60, 60)" stroke-width="1px" opacity="0.25"></line><line x1="0" y1="127.1142850603376" x2="278.4799995422363" y2="127.1142850603376" fill="rgb(0, 0, 0)" stroke="rgb(60, 60, 60)" stroke-width="1px" opacity="0.25"></line><line x1="0" y1="101.69142804827008" x2="278.4799995422363" y2="101.69142804827008" fill="rgb(0, 0, 0)" stroke="rgb(60, 60, 60)" stroke-width="1px" opacity="0.25"></line><line x1="0" y1="76.26857103620257" x2="278.4799995422363" y2="76.26857103620257" fill="rgb(0, 0, 0)" stroke="rgb(60, 60, 60)" stroke-width="1px" opacity="0.25"></line><line x1="0" y1="50.84571402413502" x2="278.4799995422363" y2="50.84571402413502" fill="rgb(0, 0, 0)" stroke="rgb(60, 60, 60)" stroke-width="1px" opacity="0.25"></line><line x1="0" y1="25.42285701206754" x2="278.4799995422363" y2="25.42285701206754" fill="rgb(0, 0, 0)" stroke="rgb(60, 60, 60)" stroke-width="1px" opacity="0.25"></line><line x1="0" y1="0" x2="278.4799995422363" y2="0" fill="rgb(0, 0, 0)" stroke="rgb(60, 60, 60)" stroke-width="1px" opacity="0.25"></line></g></g></g><g><g><line x1="0" y1="330.4971411568778" x2="278.4799995422363" y2="330.4971411568778" fill="rgb(0, 0, 0)" stroke="rgb(153, 153, 153)" stroke-width="1.5px"></line></g></g><g><g><line x1="34.80999994277954" y1="0" x2="34.80999994277954" y2="177.95999908447266" fill="rgb(0, 0, 0)" stroke="rgb(153, 153, 153)" stroke-width="1.5px"></line></g></g><g><g><g><g><g><path style="fill: none;" stroke="rgb(0, 119, 187)" stroke-width="2px" d="M35.25626414204598,160.83888831567972L37.039928539114,157.91428971180943L38.35156933695793,156.98498919378602L41.37238113199234,155.23856732409214L44.796292726364136,152.590893516264L46.42540072368622,151.18396402033366L48.037103721036914,149.63227597028072L49.644629518394474,147.8995374434501L53.05949051278114,143.95964389104807L54.68999091010093,141.95552664069794L56.323276107416156,139.84503390097896L57.958649904727935,137.70979597975864L59.59402370203972,135.54419103849625L61.2231316993618,133.3530984087555L62.8598978966713,131.1982522420589L64.48622109399795,128.98641487657085L66.10627849133492,126.79691333320949L67.74722188863754,124.61491262563699L69.38259568594933,122.40166601221284L71.0103112832737,120.22989371707965L72.65543188056947,118.08150281512255L74.2866284778881,115.99051224845451L75.91364787521363,113.92637315859014L79.34939486956597,109.64422934936687L82.76912926394463,105.51893635075001L84.39197146127701,103.62507380989389L87.80752865566254,99.77712989702039L89.43663665298462,97.97618680072408L91.06574465030671,96.17636504149517L92.6962450476265,94.47384200267048L96.11876424200058,91.03606500521528L97.75135323931694,89.4265826365793L99.36584103666306,87.87994060332974L100.990771833992,86.3903049220753L104.4223416283512,83.32914564723744L106.05075342567443,81.93174751638018L107.67846902299881,80.62739005571166L109.30688082032204,79.30878858364615L112.72174181470871,76.63644536033476L114.3473688120365,75.4166276226276L115.9764768093586,74.2203731165399L119.38785680375099,71.7553711782761L121.00443320109368,70.63788302457293L122.62727539842605,69.5653392727883L124.25568719574927,68.4623375817399L127.65592799015998,66.32037163811506L129.27459298749923,65.35856749834005L130.90509338481903,64.41700803859308L132.53698618213653,63.46644757589951L134.1633093794632,62.564741041656816L135.79798697677612,61.66961099778253L137.42639877409937,60.80075660897455L139.05550677142142,59.89889854269573L140.69227296873092,59.062350783992386L142.32207716605186,58.267989544149856L143.9532737633705,57.46205125674638L145.59282476067543,56.654415810538154L147.21845175800323,55.956580477715505L150.6409709523773,54.49875137084642L152.27982574968337,53.79697620508419L153.90754134700774,53.11420315665367L155.531079744339,52.45018977429703L158.96056093870163,51.1322247367833L160.60289673600195,50.51136767831875L162.26054893327714,49.93939485471233L165.72692872757912,48.81917912435867L167.34768232491493,48.32494223529102L168.96982832224845,47.78357888298447L170.58988571958542,47.286281046786826L172.2315253168869,46.79031669250722L173.89335471415518,46.273834900534496L175.5753739113903,45.744230434232264L177.244861508646,45.24993293235016L178.90947570590973,44.800579832386575L180.57757090316773,44.38098762432051L182.23383070044517,43.92757346578844L183.90122969770434,43.55592599395641L185.56097049497603,43.19958325777432L187.2297618922329,42.76814124448225L188.8839330895138,42.43871059791829L190.54576248678208,42.02027003332685L192.20759188405037,41.758028691586475L193.8722060813141,41.32476829386076L195.52776967859268,41.014036700556204L198.98649127290724,40.377723374405576L200.6253460702133,40.033775958779586L202.26280846752167,39.772625647699385L203.90444806482316,39.508778066375925L207.36316965913772,38.96505081430561L209.0270876564026,38.668290474733L210.6715120536995,38.40659464832268L212.34030345095636,38.155233306777006L214.00004424822808,37.851987396057666L217.49775304247856,37.4140598116189L220.99337323673248,36.96782827159976L222.64406343401907,36.840814118908895L224.30171563129426,36.603757401574654L225.9607602285671,36.43595082475545L227.62050102583885,36.297268705281965L231.09802002012253,36.00162970277677L232.74383681741713,35.87434279242086L234.4042738146877,35.73872162007734L236.05635641197205,35.60240340036762L239.53248300625802,35.30324885462403L241.1629834035778,35.194660997527535" fill="none"></path></g></g></g></g></g></g><g transform="translate(51, 177)" clip-path="url(#clip_1)"><clipPath id="clip_1"><rect width="278" height="22"></rect></clipPath><g><g><line x1="0" y1="0" x2="0" y2="5" style="visibility: inherit;" fill="rgb(0, 0, 0)" stroke="rgb(204, 204, 204)" stroke-width="1px"></line><line x1="34.80999994277954" y1="0" x2="34.80999994277954" y2="5" style="visibility: inherit;" fill="rgb(0, 0, 0)" stroke="rgb(204, 204, 204)" stroke-width="1px"></line><line x1="69.61999988555908" y1="0" x2="69.61999988555908" y2="5" style="visibility: inherit;" fill="rgb(0, 0, 0)" stroke="rgb(204, 204, 204)" stroke-width="1px"></line><line x1="104.42999982833862" y1="0" x2="104.42999982833862" y2="5" style="visibility: inherit;" fill="rgb(0, 0, 0)" stroke="rgb(204, 204, 204)" stroke-width="1px"></line><line x1="139.23999977111816" y1="0" x2="139.23999977111816" y2="5" style="visibility: inherit;" fill="rgb(0, 0, 0)" stroke="rgb(204, 204, 204)" stroke-width="1px"></line><line x1="174.0499997138977" y1="0" x2="174.0499997138977" y2="5" style="visibility: inherit;" fill="rgb(0, 0, 0)" stroke="rgb(204, 204, 204)" stroke-width="1px"></line><line x1="208.85999965667725" y1="0" x2="208.85999965667725" y2="5" style="visibility: inherit;" fill="rgb(0, 0, 0)" stroke="rgb(204, 204, 204)" stroke-width="1px"></line><line x1="243.6699995994568" y1="0" x2="243.6699995994568" y2="5" style="visibility: inherit;" fill="rgb(0, 0, 0)" stroke="rgb(204, 204, 204)" stroke-width="1px"></line><line x1="278.4799995422363" y1="0" x2="278.4799995422363" y2="5" style="visibility: inherit;" fill="rgb(0, 0, 0)" stroke="rgb(204, 204, 204)" stroke-width="1px"></line></g><g transform="translate(0, 8)"><text style="text-anchor: middle; visibility: hidden; font-family: &quot;Helvetica Neue&quot;, sans-serif; font-size: 12px; font-weight: 200;" x="0" y="0" dx="0em" dy="0.95em" fill="rgb(50, 49, 63)" stroke="none" stroke-width="1px">-50k</text><text style="text-anchor: middle; visibility: inherit; font-family: &quot;Helvetica Neue&quot;, sans-serif; font-size: 12px; font-weight: 200;" x="34.80999994277954" y="0" dx="0em" dy="0.95em" fill="rgb(50, 49, 63)" stroke="none" stroke-width="1px">0</text><text style="text-anchor: middle; visibility: hidden; font-family: &quot;Helvetica Neue&quot;, sans-serif; font-size: 12px; font-weight: 200;" x="69.61999988555908" y="0" dx="0em" dy="0.95em" fill="rgb(50, 49, 63)" stroke="none" stroke-width="1px">50k</text><text style="text-anchor: middle; visibility: inherit; font-family: &quot;Helvetica Neue&quot;, sans-serif; font-size: 12px; font-weight: 200;" x="104.42999982833862" y="0" dx="0em" dy="0.95em" fill="rgb(50, 49, 63)" stroke="none" stroke-width="1px">100k</text><text style="text-anchor: middle; visibility: hidden; font-family: &quot;Helvetica Neue&quot;, sans-serif; font-size: 12px; font-weight: 200;" x="139.23999977111816" y="0" dx="0em" dy="0.95em" fill="rgb(50, 49, 63)" stroke="none" stroke-width="1px">150k</text><text style="text-anchor: middle; visibility: inherit; font-family: &quot;Helvetica Neue&quot;, sans-serif; font-size: 12px; font-weight: 200;" x="174.0499997138977" y="0" dx="0em" dy="0.95em" fill="rgb(50, 49, 63)" stroke="none" stroke-width="1px">200k</text><text style="text-anchor: middle; visibility: hidden; font-family: &quot;Helvetica Neue&quot;, sans-serif; font-size: 12px; font-weight: 200;" x="208.85999965667725" y="0" dx="0em" dy="0.95em" fill="rgb(50, 49, 63)" stroke="none" stroke-width="1px">250k</text><text style="text-anchor: middle; visibility: inherit; font-family: &quot;Helvetica Neue&quot;, sans-serif; font-size: 12px; font-weight: 200;" x="243.6699995994568" y="0" dx="0em" dy="0.95em" fill="rgb(50, 49, 63)" stroke="none" stroke-width="1px">300k</text><text style="text-anchor: middle; visibility: hidden; font-family: &quot;Helvetica Neue&quot;, sans-serif; font-size: 12px; font-weight: 200;" x="278.4799995422363" y="0" dx="0em" dy="0.95em" fill="rgb(50, 49, 63)" stroke="none" stroke-width="1px">350k</text></g><line x1="0" y1="0" x2="278.4799995422363" y2="0" fill="rgb(0, 0, 0)" stroke="rgb(204, 204, 204)" stroke-width="1px"></line></g></g></g></g></svg>